{"glyphs":{"0":{"ha":979,"x_min":60,"x_max":919,"o":"m 174 125 q 117 197 174 125 q 60 506 60 268 q 177 889 60 743 q 489 1035 294 1035 q 801 889 683 1035 q 919 506 919 743 q 804 125 919 268 q 489 -18 689 -18 q 174 125 289 -18 m 235 506 q 301 235 235 331 q 489 139 368 139 q 677 235 610 139 q 744 506 744 331 q 678 781 744 685 q 489 878 611 878 q 301 781 368 878 q 235 506 235 685 z "},"1":{"ha":553,"x_min":47,"x_max":440,"o":"m 269 856 l 47 856 l 47 1015 l 440 1015 l 440 0 l 269 0 l 269 856 z "},"2":{"ha":818,"x_min":51,"x_max":768,"o":"m 768 1 l 64 0 l 64 133 l 396 414 q 540 563 500 503 q 579 694 579 622 q 535 828 579 781 q 410 875 490 875 q 278 819 326 875 q 228 667 229 764 l 51 667 q 151 933 53 833 q 410 1033 249 1033 q 667 946 572 1033 q 761 704 761 858 q 706 515 761 601 q 529 324 650 428 l 346 167 l 768 167 l 768 1 z "},"3":{"ha":790,"x_min":28,"x_max":749,"o":"m 360 503 l 236 503 l 236 618 l 497 858 l 75 858 l 75 1015 l 719 1015 l 719 874 l 472 646 q 672 537 594 622 q 749 322 749 451 q 644 76 749 169 q 381 -18 539 -18 q 127 73 226 -18 q 28 324 28 164 l 203 324 q 252 189 203 238 q 383 140 301 140 q 517 190 467 140 q 568 325 568 240 q 515 454 568 406 q 360 503 463 503 z "},"4":{"ha":897,"x_min":39,"x_max":846,"o":"m 846 193 l 722 193 l 722 0 l 554 0 l 554 193 l 39 193 l 39 349 l 499 1015 l 722 1015 l 722 349 l 846 349 l 846 193 m 228 349 l 554 349 l 554 824 l 228 349 z "},"5":{"ha":833,"x_min":57,"x_max":790,"o":"m 410 -17 q 153 77 250 -17 q 57 325 57 171 l 233 325 q 281 190 233 239 q 414 142 329 142 q 557 196 504 142 q 610 343 610 250 q 558 488 610 433 q 417 542 507 542 q 310 516 360 542 q 232 450 260 490 l 75 483 l 200 1015 l 729 1015 l 729 851 l 328 851 l 274 640 q 453 690 350 690 q 697 597 604 690 q 790 353 790 503 q 685 85 790 188 q 410 -17 579 -17 z "},"6":{"ha":861,"x_min":50,"x_max":811,"o":"m 204 717 l 424 1015 l 626 1015 l 383 692 q 460 703 424 703 q 714 604 617 703 q 811 350 811 506 q 704 85 811 189 q 433 -18 597 -18 q 160 88 269 -18 q 50 351 50 194 q 84 520 50 442 q 204 717 118 599 m 232 350 q 288 199 232 257 q 433 140 344 140 q 576 199 519 140 q 632 350 632 257 q 576 499 632 442 q 433 557 521 557 q 288 499 343 557 q 232 350 232 442 z "},"7":{"ha":747,"x_min":10,"x_max":739,"o":"m 10 1015 l 739 1015 l 739 851 l 371 0 l 186 0 l 561 851 l 10 851 l 10 1015 z "},"8":{"ha":890,"x_min":58,"x_max":832,"o":"m 58 288 q 106 447 58 378 q 232 546 153 515 q 94 761 94 608 q 192 958 94 882 q 447 1033 290 1033 q 700 958 604 1033 q 796 758 796 882 q 656 546 796 604 q 784 449 736 518 q 832 288 832 379 q 726 67 832 150 q 444 -17 621 -17 q 163 66 268 -17 q 58 288 58 149 m 256 746 q 307 644 256 682 q 444 607 358 607 q 581 644 531 607 q 631 744 631 681 q 581 845 631 808 q 444 882 531 882 q 307 845 358 882 q 256 746 256 808 m 289 417 q 260 395 289 417 q 232 300 232 374 q 290 183 232 226 q 446 140 347 140 q 600 183 543 140 q 657 300 657 226 q 600 417 657 374 q 444 460 543 460 q 289 417 346 460 z "},"9":{"ha":861,"x_min":50,"x_max":811,"o":"m 657 299 l 438 0 l 235 0 l 478 324 q 401 313 438 313 q 147 411 244 313 q 50 665 50 510 q 157 930 50 826 q 428 1033 264 1033 q 701 927 592 1033 q 811 664 811 821 q 777 495 811 574 q 657 299 743 417 m 629 665 q 573 817 629 758 q 428 875 517 875 q 285 817 340 875 q 229 665 229 758 q 285 516 229 574 q 428 458 340 458 q 574 516 518 458 q 629 665 629 574 z "}," ":{"ha":375,"x_min":0,"x_max":0,"o":""},"!":{"ha":444,"x_min":108,"x_max":333,"o":"m 289 304 l 153 304 q 122 782 122 492 l 122 1015 l 322 1015 l 322 782 q 289 304 322 488 m 222 -18 q 142 15 175 -18 q 108 92 108 47 q 142 170 108 138 q 222 203 175 203 q 300 170 267 203 q 333 92 333 138 q 300 15 333 47 q 222 -18 267 -18 z "},"\"":{"ha":603,"x_min":83,"x_max":521,"o":"m 257 913 l 215 613 l 125 613 l 83 913 q 103 994 75 967 q 174 1022 131 1022 q 237 994 210 1022 q 257 913 264 965 m 521 913 l 479 613 l 389 613 l 347 913 q 367 994 339 967 q 438 1022 394 1022 q 501 994 474 1022 q 521 913 528 965 z "},"#":{"ha":999,"x_min":57,"x_max":942,"o":"m 89 421 l 221 421 l 256 593 l 103 593 l 135 751 l 286 751 l 338 1015 l 506 1015 l 454 751 l 631 751 l 682 1015 l 850 1015 l 799 751 l 942 751 l 910 593 l 768 593 l 735 421 l 893 421 l 861 263 l 704 263 l 653 0 l 485 0 l 536 263 l 358 263 l 307 0 l 139 0 l 190 263 l 57 263 l 89 421 m 389 421 l 567 421 l 600 593 l 424 593 l 389 421 z "},"$":{"ha":822,"x_min":40,"x_max":774,"o":"m 361 -132 l 361 -17 q 130 74 217 -6 q 40 279 43 153 l 218 279 q 256 183 219 219 q 361 139 293 147 l 361 435 l 317 444 q 54 732 54 500 q 138 934 54 853 q 361 1031 222 1015 l 361 1149 l 468 1149 l 468 1031 q 676 939 600 1017 q 757 736 753 861 l 585 736 q 468 875 581 851 l 468 576 l 515 565 q 711 470 649 536 q 774 293 774 404 q 691 84 774 167 q 468 -14 608 1 l 468 -132 l 361 -132 m 356 601 l 361 600 l 361 876 q 263 829 299 865 q 228 738 228 793 q 356 601 228 629 m 478 410 l 468 413 l 468 142 q 566 190 531 154 q 601 278 601 225 q 478 410 601 383 z "},"%":{"ha":1332,"x_min":47,"x_max":1283,"o":"m 578 768 q 503 576 578 650 q 313 501 428 501 q 122 576 197 501 q 47 768 47 650 q 122 960 47 885 q 313 1035 197 1035 q 503 960 428 1035 q 578 768 578 885 m 1135 1014 l 364 0 l 194 0 l 965 1014 l 1135 1014 m 407 669 q 425 688 407 669 q 443 768 443 707 q 407 867 443 829 q 313 904 371 904 q 219 867 254 904 q 183 768 183 829 q 219 670 183 708 q 313 632 256 632 q 407 669 371 632 m 1209 440 q 1246 403 1209 440 q 1283 249 1283 365 q 1209 57 1283 132 q 1019 -18 1135 -18 q 828 57 903 -18 q 754 249 754 132 q 828 440 754 365 q 1019 515 903 515 q 1209 440 1135 515 m 1113 151 q 1131 170 1113 151 q 1149 249 1149 189 q 1113 347 1149 308 q 1019 385 1076 385 q 925 347 961 385 q 889 249 889 310 q 925 150 889 188 q 1019 113 961 113 q 1113 151 1076 113 z "},"&":{"ha":1022,"x_min":64,"x_max":1004,"o":"m 807 0 l 739 76 q 433 -18 614 -18 q 166 62 268 -18 q 64 269 64 142 q 300 569 64 456 q 215 691 240 639 q 190 800 190 743 q 264 967 190 901 q 450 1032 338 1032 q 631 969 561 1032 q 701 808 701 907 q 658 669 701 732 q 521 542 615 606 l 725 313 q 753 486 753 388 l 918 486 q 839 186 918 310 l 1004 0 l 807 0 m 351 801 q 439 635 351 735 q 544 803 544 697 q 519 872 544 847 q 450 897 494 897 q 378 872 404 897 q 351 801 351 846 m 243 286 q 299 170 243 213 q 453 128 354 128 q 640 188 565 128 l 382 478 q 243 286 243 399 z "},"'":{"ha":339,"x_min":83,"x_max":257,"o":"m 257 913 l 215 613 l 125 613 l 83 913 q 103 994 75 967 q 174 1022 131 1022 q 237 994 210 1022 q 257 913 264 965 z "},"(":{"ha":428,"x_min":63,"x_max":428,"o":"m 428 -265 l 293 -265 q 125 33 188 -144 q 63 408 63 211 q 122 775 63 596 q 293 1081 182 954 l 428 1081 q 286 783 339 960 q 233 408 233 606 q 284 41 233 221 q 428 -265 335 -139 z "},")":{"ha":428,"x_min":0,"x_max":367,"o":"m 135 -265 l 0 -265 q 144 40 94 -139 q 194 408 194 219 q 142 783 194 606 q 0 1081 89 960 l 135 1081 q 307 774 247 953 q 367 408 367 596 q 304 34 367 213 q 135 -265 242 -144 z "},"*":{"ha":583,"x_min":33,"x_max":550,"o":"m 126 785 l 33 818 l 65 903 l 156 874 q 258 822 210 854 q 246 936 246 872 l 246 1035 l 336 1035 l 336 936 q 325 822 336 874 q 426 874 372 854 l 518 904 l 550 818 l 456 785 q 344 760 408 768 q 419 676 390 721 l 475 593 l 400 542 l 344 621 q 289 722 315 661 q 238 621 275 672 l 179 542 l 104 593 l 160 676 q 238 760 192 721 q 126 785 167 769 z "},"+":{"ha":917,"x_min":111,"x_max":806,"o":"m 111 539 l 388 539 l 388 815 l 529 815 l 529 539 l 806 539 l 806 397 l 529 397 l 529 119 l 388 119 l 388 397 l 111 397 l 111 539 z "},",":{"ha":404,"x_min":89,"x_max":314,"o":"m 314 61 q 258 -87 314 -25 q 118 -160 203 -149 l 118 -92 q 197 -57 167 -83 q 228 6 228 -31 q 188 -3 211 -3 q 117 24 146 -3 q 89 93 89 51 q 118 174 89 143 q 194 204 147 204 q 281 165 247 204 q 314 61 314 125 z "},"-":{"ha":618,"x_min":86,"x_max":533,"o":"m 86 296 l 86 446 l 533 446 l 533 296 l 86 296 z "},".":{"ha":404,"x_min":89,"x_max":314,"o":"m 281 16 q 264 0 281 16 q 201 -17 247 -17 q 122 16 156 -17 q 89 93 89 49 q 122 172 89 139 q 201 204 156 204 q 281 172 247 204 q 314 93 314 139 q 281 16 314 49 z "},"/":{"ha":565,"x_min":0,"x_max":565,"o":"m 168 0 l 0 0 l 396 1014 l 565 1014 l 168 0 z "},":":{"ha":432,"x_min":103,"x_max":328,"o":"m 294 522 q 278 505 294 522 q 215 489 261 489 q 136 522 169 489 q 103 599 103 554 q 136 677 103 644 q 215 710 169 710 q 294 677 261 710 q 328 599 328 644 q 294 522 328 554 m 294 16 q 278 0 294 16 q 215 -17 261 -17 q 136 16 169 -17 q 103 93 103 49 q 136 172 103 139 q 215 204 169 204 q 294 172 261 204 q 328 93 328 139 q 294 16 328 49 z "},";":{"ha":432,"x_min":103,"x_max":328,"o":"m 294 522 q 278 505 294 522 q 215 489 261 489 q 136 522 169 489 q 103 599 103 554 q 136 677 103 644 q 215 710 169 710 q 294 677 261 710 q 328 599 328 644 q 294 522 328 554 m 328 61 q 272 -87 328 -25 q 132 -160 217 -149 l 132 -92 q 211 -57 181 -83 q 242 6 242 -31 q 201 -3 225 -3 q 131 24 160 -3 q 103 93 103 51 q 132 174 103 143 q 208 204 161 204 q 294 165 261 204 q 328 61 328 125 z "},"<":{"ha":917,"x_min":111,"x_max":806,"o":"m 806 178 l 806 13 l 111 257 l 111 436 l 806 679 l 806 514 l 278 346 l 806 178 z "},"=":{"ha":917,"x_min":111,"x_max":806,"o":"m 111 639 l 806 639 l 806 496 l 111 496 l 111 639 m 111 340 l 806 340 l 806 197 l 111 197 l 111 340 z "},">":{"ha":917,"x_min":111,"x_max":806,"o":"m 806 257 l 111 13 l 111 178 l 639 346 l 111 514 l 111 679 l 806 436 l 806 257 z "},"?":{"ha":769,"x_min":44,"x_max":724,"o":"m 426 260 l 272 260 l 272 292 q 297 401 272 350 q 349 478 322 451 q 424 540 376 504 q 485 592 464 572 q 524 646 506 611 q 543 718 543 681 q 501 832 543 789 q 388 875 460 875 q 267 825 314 875 q 221 694 221 775 l 44 694 q 142 938 44 843 q 392 1033 240 1033 q 635 951 546 1033 q 724 729 724 868 q 709 633 724 676 q 664 555 694 589 q 610 501 633 521 q 547 453 588 481 q 456 374 485 408 q 426 292 426 340 l 426 260 m 356 -18 q 276 15 308 -18 q 243 92 243 47 q 276 170 243 138 q 356 203 308 203 q 435 170 401 203 q 468 92 468 138 q 435 15 468 47 q 356 -18 401 -18 z "},"@":{"ha":1311,"x_min":65,"x_max":1246,"o":"m 364 313 q 424 449 364 397 q 597 510 485 501 l 785 525 l 785 539 q 656 658 785 658 q 550 631 588 658 q 513 554 513 604 l 382 554 q 458 717 382 656 q 663 778 535 778 q 864 709 793 778 q 935 514 935 640 l 935 299 q 1006 221 935 221 q 1098 290 1063 221 q 1133 472 1133 360 q 1001 801 1133 672 q 661 929 868 929 q 315 790 453 929 q 178 439 178 650 q 315 88 178 228 q 661 -53 453 -53 q 950 43 813 -53 l 999 -51 q 661 -157 851 -157 q 235 13 406 -157 q 65 439 65 183 q 235 864 65 694 q 661 1033 406 1033 q 1081 875 915 1033 q 1246 472 1246 717 q 1174 215 1246 311 q 983 118 1103 118 q 807 236 838 118 q 725 151 786 185 q 589 118 664 118 q 424 170 483 118 q 364 313 364 222 m 521 318 q 629 235 521 235 q 744 275 703 235 q 786 386 786 315 l 786 419 l 654 408 q 521 318 521 397 z "},"A":{"ha":946,"x_min":15,"x_max":931,"o":"m 200 0 l 15 0 l 382 1015 l 564 1015 l 931 0 l 743 0 l 661 235 l 282 235 l 200 0 m 450 713 l 335 385 l 610 385 l 493 713 q 472 790 475 769 q 450 713 464 753 z "},"B":{"ha":904,"x_min":113,"x_max":854,"o":"m 113 0 l 113 1015 l 517 1015 q 753 942 667 1015 q 839 742 839 869 q 693 508 839 569 q 854 275 854 456 q 767 72 854 144 q 524 0 681 0 l 113 0 m 501 858 l 290 858 l 290 582 l 506 582 q 617 619 578 582 q 657 724 657 656 q 617 824 657 789 q 501 858 576 858 m 517 432 l 290 432 l 290 157 l 517 157 q 632 193 592 157 q 672 297 672 229 q 631 397 672 361 q 517 432 590 432 z "},"C":{"ha":1054,"x_min":54,"x_max":1007,"o":"m 542 -17 q 187 126 319 -17 q 54 507 54 268 q 190 888 54 743 q 550 1032 326 1032 q 854 935 731 1032 q 1004 674 978 838 l 817 674 q 719 812 790 763 q 546 861 647 861 q 323 766 406 861 q 240 508 240 671 q 324 251 240 347 q 546 154 407 154 q 723 204 649 154 q 822 339 797 254 l 1007 339 q 850 81 978 179 q 542 -17 722 -17 z "},"D":{"ha":1028,"x_min":113,"x_max":975,"o":"m 478 0 l 113 0 l 113 1015 l 468 1015 q 834 874 693 1015 q 975 506 975 732 q 837 141 975 282 q 478 0 699 0 m 451 851 l 290 851 l 290 164 l 461 164 q 700 256 613 164 q 788 506 788 347 q 698 759 788 667 q 451 851 608 851 z "},"E":{"ha":824,"x_min":113,"x_max":743,"o":"m 743 0 l 113 0 l 113 1015 l 743 1015 l 743 851 l 290 851 l 290 590 l 696 590 l 696 433 l 290 433 l 290 164 l 743 164 l 743 0 z "},"F":{"ha":788,"x_min":113,"x_max":740,"o":"m 668 415 l 290 415 l 290 0 l 113 0 l 113 1015 l 740 1015 l 740 851 l 290 851 l 290 575 l 668 575 l 668 415 z "},"G":{"ha":1086,"x_min":54,"x_max":1007,"o":"m 557 865 q 324 766 408 865 q 240 500 240 667 q 327 242 240 333 q 558 150 414 150 q 766 219 690 150 q 842 410 842 288 l 842 414 l 535 414 l 535 571 l 1007 571 l 1007 0 l 857 0 l 846 117 q 721 21 803 57 q 538 -15 639 -15 q 188 128 322 -15 q 54 504 54 271 q 194 885 54 738 q 561 1032 333 1032 q 858 938 736 1032 q 1001 690 979 844 l 814 690 q 722 821 790 776 q 557 865 653 865 z "},"H":{"ha":1031,"x_min":113,"x_max":918,"o":"m 290 0 l 113 0 l 113 1015 l 290 1015 l 290 596 l 740 596 l 740 1015 l 918 1015 l 918 0 l 740 0 l 740 431 l 290 431 l 290 0 z "},"I":{"ha":403,"x_min":113,"x_max":290,"o":"m 290 1015 l 290 0 l 113 0 l 113 1015 l 290 1015 z "},"J":{"ha":767,"x_min":28,"x_max":661,"o":"m 28 286 l 28 346 l 199 346 l 199 286 q 234 185 199 224 q 342 147 269 147 q 483 293 483 147 l 483 1015 l 661 1015 l 661 283 q 574 65 661 149 q 343 -18 488 -18 q 110 66 192 -18 q 28 286 28 150 z "},"K":{"ha":936,"x_min":113,"x_max":915,"o":"m 290 1015 l 290 482 l 701 1015 l 911 1015 l 575 582 l 915 0 l 710 0 l 458 432 l 290 217 l 290 0 l 113 0 l 113 1015 l 290 1015 z "},"L":{"ha":747,"x_min":113,"x_max":715,"o":"m 290 1015 l 290 164 l 715 164 l 715 0 l 113 0 l 113 1015 l 290 1015 z "},"M":{"ha":1228,"x_min":113,"x_max":1115,"o":"m 285 0 l 113 0 l 113 1015 l 285 1015 l 613 207 l 940 1015 l 1115 1015 l 1115 0 l 943 0 l 943 313 q 953 649 943 576 l 694 0 l 531 0 l 274 647 q 285 364 285 578 l 285 0 z "},"N":{"ha":1053,"x_min":113,"x_max":940,"o":"m 288 0 l 113 0 l 113 1015 l 289 1015 l 765 296 l 765 1015 l 940 1015 l 940 0 l 765 0 l 288 719 l 288 0 z "},"O":{"ha":1092,"x_min":54,"x_max":1039,"o":"m 901 887 q 970 814 901 887 q 1039 508 1039 740 q 901 130 1039 276 q 544 -17 763 -17 q 190 130 326 -17 q 54 508 54 276 q 191 887 54 740 q 546 1033 328 1033 q 901 887 764 1033 m 851 508 q 769 767 851 671 q 546 863 686 863 q 323 767 406 863 q 240 508 240 671 q 323 250 240 346 q 546 154 406 154 q 768 251 685 154 q 851 508 851 347 z "},"P":{"ha":888,"x_min":113,"x_max":850,"o":"m 514 350 l 290 350 l 290 0 l 113 0 l 113 1015 l 514 1015 q 758 924 667 1015 q 850 683 850 833 q 758 443 850 536 q 514 350 665 350 m 479 857 l 290 857 l 290 508 l 476 508 q 615 554 567 508 q 664 685 664 600 q 616 813 664 768 q 479 857 568 857 z "},"Q":{"ha":1092,"x_min":54,"x_max":1039,"o":"m 910 -76 l 799 49 q 544 -17 686 -17 q 190 130 326 -17 q 54 508 54 276 q 191 887 54 740 q 546 1033 328 1033 q 901 887 764 1033 q 1039 508 1039 740 q 915 146 1039 289 l 1024 25 l 910 -76 m 851 508 q 769 767 851 671 q 546 863 686 863 q 323 767 406 863 q 240 508 240 671 q 323 250 240 346 q 546 154 406 154 q 681 183 619 154 l 546 335 l 658 436 l 793 285 q 851 508 851 375 z "},"R":{"ha":931,"x_min":113,"x_max":875,"o":"m 290 0 l 113 0 l 113 1015 l 500 1015 q 769 932 674 1015 q 865 699 865 849 q 682 417 865 492 l 875 0 l 681 0 l 508 379 l 290 379 l 290 0 m 290 857 l 290 536 l 500 536 q 632 579 585 536 q 679 699 679 622 q 632 815 679 774 q 500 857 585 857 l 290 857 z "},"S":{"ha":822,"x_min":40,"x_max":774,"o":"m 54 732 q 155 949 54 865 q 415 1033 256 1033 q 661 953 569 1033 q 757 736 753 874 l 579 736 q 532 838 576 801 q 413 875 488 875 q 281 838 331 875 q 232 738 232 801 q 356 606 232 633 l 515 571 q 774 293 774 515 q 672 67 774 151 q 403 -18 571 -18 q 142 63 240 -18 q 40 279 43 143 l 218 279 q 268 178 219 215 q 403 142 317 142 q 544 178 492 142 q 596 278 596 214 q 478 404 596 379 l 317 440 q 54 732 54 497 z "},"T":{"ha":819,"x_min":24,"x_max":796,"o":"m 24 851 l 24 1015 l 796 1015 l 796 851 l 499 851 l 499 0 l 321 0 l 321 851 l 24 851 z "},"U":{"ha":1015,"x_min":106,"x_max":910,"o":"m 106 371 l 106 1015 l 283 1015 l 283 382 q 341 214 283 272 q 507 156 399 156 q 674 215 615 156 q 732 382 732 274 l 732 1015 l 910 1015 l 910 371 q 801 88 910 193 q 507 -17 692 -17 q 214 88 322 -17 q 106 371 106 192 z "},"V":{"ha":972,"x_min":14,"x_max":958,"o":"m 397 0 l 14 1015 l 203 1015 l 425 431 q 489 228 460 335 q 554 431 522 346 l 774 1015 l 958 1015 l 581 0 l 397 0 z "},"W":{"ha":1438,"x_min":21,"x_max":1417,"o":"m 324 0 l 21 1015 l 206 1015 l 367 479 q 413 278 397 371 q 463 479 431 376 l 622 1015 l 818 1015 l 975 479 q 1024 278 1003 382 q 1072 478 1049 396 l 1236 1015 l 1417 1015 l 1108 0 l 936 0 l 719 739 l 499 0 l 324 0 z "},"X":{"ha":946,"x_min":24,"x_max":924,"o":"m 368 507 l 31 1015 l 242 1015 l 365 833 q 479 643 424 746 l 715 1015 l 922 1015 l 590 508 l 924 0 l 714 0 l 600 168 q 479 371 539 261 l 232 0 l 24 0 l 368 507 z "},"Y":{"ha":890,"x_min":14,"x_max":876,"o":"m 357 400 l 14 1015 l 213 1015 l 413 646 q 449 571 426 619 q 464 602 453 578 q 485 646 475 626 l 683 1015 l 876 1015 l 535 400 l 535 0 l 357 0 l 357 400 z "},"Z":{"ha":817,"x_min":43,"x_max":774,"o":"m 774 0 l 43 0 l 43 165 l 544 851 l 54 851 l 54 1015 l 765 1015 l 765 857 l 260 164 l 774 164 l 774 0 z "},"[":{"ha":425,"x_min":93,"x_max":418,"o":"m 247 1 l 418 1 l 418 -129 l 93 -129 l 93 1161 l 418 1161 l 418 1029 l 247 1029 l 247 1 z "},"\\":{"ha":565,"x_min":0,"x_max":565,"o":"m 169 1014 l 565 0 l 397 0 l 0 1014 l 169 1014 z "},"]":{"ha":425,"x_min":7,"x_max":331,"o":"m 7 -129 l 7 1 l 178 1 l 178 1029 l 7 1029 l 7 1161 l 331 1161 l 331 -129 l 7 -129 z "},"^":{"ha":718,"x_min":92,"x_max":626,"o":"m 238 556 l 92 556 l 276 1015 l 442 1015 l 626 556 l 481 556 l 358 875 l 238 556 z "},"_":{"ha":757,"x_min":83,"x_max":674,"o":"m 83 -149 l 83 -24 l 674 -24 l 674 -149 l 83 -149 z "},"`":{"ha":383,"x_min":65,"x_max":326,"o":"m 326 1068 l 200 1068 l 65 1275 l 222 1275 l 326 1068 z "},"a":{"ha":761,"x_min":57,"x_max":682,"o":"m 292 -18 q 120 40 183 -18 q 57 196 57 99 q 123 347 57 290 q 311 414 189 404 l 517 429 l 517 444 q 375 575 517 575 q 260 545 300 575 q 219 461 219 515 l 75 461 q 159 640 75 572 q 383 707 243 707 q 603 632 524 707 q 682 417 682 557 l 682 0 l 533 0 l 521 101 q 435 15 499 49 q 292 -18 372 -18 m 347 110 q 472 154 426 110 q 518 278 518 199 l 518 314 l 375 303 q 229 203 229 289 q 347 110 229 110 z "},"b":{"ha":860,"x_min":88,"x_max":813,"o":"m 244 0 l 88 0 l 88 1033 l 257 1033 l 257 586 q 355 676 290 643 q 497 708 419 708 q 727 606 642 708 q 813 339 813 504 q 723 81 813 179 q 486 -18 633 -18 q 347 15 408 -18 q 256 107 286 49 l 244 0 m 311 497 q 285 468 311 497 q 258 346 258 439 q 311 195 258 253 q 451 138 364 138 q 591 195 540 138 q 642 346 642 253 q 590 497 642 439 q 451 556 539 556 q 311 497 364 556 z "},"c":{"ha":764,"x_min":47,"x_max":725,"o":"m 47 344 q 143 606 47 504 q 390 707 239 707 q 620 634 531 707 q 724 438 710 561 l 554 438 q 397 556 525 556 q 266 498 315 556 q 217 344 217 440 q 264 191 217 247 q 392 135 311 135 q 498 165 456 135 q 554 251 540 196 l 725 251 q 617 56 710 131 q 392 -18 525 -18 q 142 81 236 -18 q 47 344 47 181 z "},"d":{"ha":860,"x_min":47,"x_max":771,"o":"m 369 -18 q 135 81 222 -18 q 47 340 47 179 q 137 605 47 503 q 379 707 226 707 q 511 678 451 707 q 603 599 571 650 l 603 1033 l 771 1033 l 771 0 l 615 0 l 604 107 q 511 15 574 49 q 369 -18 449 -18 m 268 195 q 294 166 268 195 q 407 138 319 138 q 548 195 494 138 q 601 346 601 253 q 548 497 601 439 q 407 556 494 556 q 268 497 319 556 q 217 346 217 439 q 268 195 217 253 z "},"e":{"ha":774,"x_min":47,"x_max":728,"o":"m 394 -18 q 144 83 242 -18 q 47 343 47 183 q 142 606 47 504 q 389 707 238 707 q 634 612 543 707 q 725 356 725 517 l 725 304 l 208 303 q 397 121 228 121 q 571 222 540 121 l 728 222 q 617 46 706 110 q 394 -18 529 -18 m 390 568 q 213 411 238 568 l 557 411 q 512 525 557 482 q 390 568 467 568 z "},"f":{"ha":471,"x_min":19,"x_max":453,"o":"m 19 686 l 118 686 l 118 769 q 183 969 118 904 q 365 1033 249 1033 q 453 1026 417 1033 l 453 882 l 393 882 q 309 853 332 882 q 286 769 286 825 l 286 686 l 450 686 l 450 544 l 286 544 l 286 0 l 118 0 l 118 544 l 19 544 l 19 686 z "},"g":{"ha":853,"x_min":49,"x_max":765,"o":"m 49 358 q 139 609 49 510 q 375 708 229 708 q 599 592 535 708 l 608 686 l 765 686 l 765 35 q 669 -237 765 -137 q 406 -337 572 -337 q 163 -258 257 -337 q 53 -42 68 -179 l 222 -42 q 279 -146 231 -108 q 406 -183 328 -183 q 545 -133 493 -183 q 597 4 597 -82 l 597 118 q 505 42 565 69 q 371 14 444 14 q 138 111 226 14 q 49 358 49 208 m 219 363 q 271 218 219 275 q 404 161 322 161 q 542 217 490 161 q 593 363 593 272 q 542 506 593 451 q 404 560 492 560 q 270 504 321 560 q 219 363 219 449 z "},"h":{"ha":818,"x_min":88,"x_max":739,"o":"m 257 0 l 88 0 l 88 1033 l 258 1033 l 258 597 q 350 678 292 649 q 481 707 408 707 q 672 632 606 707 q 739 422 739 557 l 739 0 l 569 0 l 569 382 q 531 510 569 467 q 426 553 493 553 q 302 503 347 553 q 257 375 257 454 l 257 0 z "},"i":{"ha":344,"x_min":68,"x_max":274,"o":"m 172 824 q 99 853 129 824 q 68 926 68 883 q 98 999 68 969 q 172 1028 128 1028 q 244 999 214 1028 q 274 926 274 969 q 244 853 274 883 q 172 824 214 824 m 88 0 l 88 686 l 257 686 l 257 0 l 88 0 z "},"j":{"ha":344,"x_min":-76,"x_max":275,"o":"m 172 824 q 99 853 129 824 q 69 926 69 883 q 99 999 69 969 q 172 1028 129 1028 q 244 998 214 1028 q 275 926 275 968 q 244 853 275 883 q 172 824 214 824 m -76 -322 l -49 -172 q 10 -181 -21 -181 q 70 -156 53 -181 q 88 -78 88 -132 l 88 686 l 257 686 l 257 -97 q 196 -273 257 -208 q 25 -337 135 -337 q -76 -322 -22 -337 z "},"k":{"ha":747,"x_min":90,"x_max":738,"o":"m 258 0 l 90 0 l 90 1033 l 258 1033 l 258 399 l 525 686 l 738 686 l 476 414 l 732 0 l 538 0 l 358 289 l 258 185 l 258 0 z "},"l":{"ha":349,"x_min":90,"x_max":258,"o":"m 258 0 l 90 0 l 90 1033 l 258 1033 l 258 0 z "},"m":{"ha":1229,"x_min":88,"x_max":1150,"o":"m 257 0 l 88 0 l 88 686 l 243 686 l 257 606 q 460 707 319 707 q 672 576 613 707 q 757 672 699 636 q 892 707 815 707 q 1083 638 1015 707 q 1150 449 1150 569 l 1150 0 l 982 0 l 982 404 q 946 515 982 476 q 849 554 910 554 q 744 512 785 554 q 704 389 704 469 l 704 0 l 535 0 l 535 406 q 499 515 535 476 q 403 553 464 553 q 298 510 339 553 q 257 389 257 468 l 257 0 z "},"n":{"ha":818,"x_min":88,"x_max":739,"o":"m 257 0 l 88 0 l 88 686 l 244 686 l 258 597 q 349 678 290 649 q 478 707 407 707 q 672 632 606 707 q 739 422 739 557 l 739 0 l 569 0 l 569 382 q 531 510 569 467 q 425 553 493 553 q 302 503 347 553 q 257 369 257 453 l 257 0 z "},"o":{"ha":828,"x_min":47,"x_max":781,"o":"m 151 84 q 99 134 151 84 q 47 344 47 185 q 151 605 47 504 q 414 706 254 706 q 677 605 574 706 q 781 344 781 504 q 677 84 781 185 q 414 -17 574 -17 q 151 84 254 -17 m 272 496 q 244 467 272 496 q 217 344 217 438 q 272 193 217 251 q 414 135 326 135 q 556 193 501 135 q 611 344 611 251 q 556 496 611 438 q 414 554 501 554 q 272 496 326 554 z "},"p":{"ha":860,"x_min":88,"x_max":813,"o":"m 88 -318 l 88 686 l 244 686 l 256 582 q 349 674 286 640 q 492 707 413 707 q 724 610 636 707 q 813 351 813 513 q 727 85 813 188 q 492 -18 642 -18 q 351 11 414 -18 q 257 92 289 40 l 257 -318 l 88 -318 m 311 494 q 285 465 311 494 q 258 343 258 436 q 311 192 258 250 q 451 135 364 135 q 591 192 540 135 q 642 343 642 250 q 590 494 642 436 q 451 553 539 553 q 311 494 364 553 z "},"q":{"ha":860,"x_min":47,"x_max":771,"o":"m 47 351 q 135 610 47 513 q 368 707 224 707 q 510 674 447 707 q 604 582 574 640 l 615 686 l 771 686 l 771 -318 l 603 -318 l 603 92 q 508 11 571 40 q 368 -18 444 -18 q 133 85 218 -18 q 47 351 47 188 m 268 494 q 242 465 268 494 q 217 343 217 436 q 268 192 217 250 q 407 135 319 135 q 548 192 494 135 q 601 343 601 250 q 548 494 601 436 q 407 553 494 553 q 268 494 319 553 z "},"r":{"ha":546,"x_min":88,"x_max":518,"o":"m 518 689 l 518 532 l 456 532 q 309 482 361 532 q 257 333 257 432 l 257 0 l 88 0 l 88 685 l 247 685 l 257 585 q 328 668 279 638 q 443 699 376 699 q 518 689 479 699 z "},"s":{"ha":643,"x_min":35,"x_max":601,"o":"m 35 208 l 196 208 q 229 137 197 163 q 319 111 261 111 q 410 133 378 111 q 442 193 442 156 q 363 267 442 249 l 239 296 q 100 363 144 317 q 56 492 56 410 q 131 649 56 592 q 328 707 207 707 q 515 646 443 707 q 588 485 586 585 l 426 485 q 397 555 425 529 q 321 581 369 581 q 243 559 271 581 q 215 499 215 538 q 304 421 215 442 l 428 392 q 559 328 517 371 q 601 207 601 285 q 522 43 601 104 q 314 -18 443 -18 q 110 44 186 -18 q 35 208 35 107 z "},"t":{"ha":472,"x_min":19,"x_max":454,"o":"m 321 0 l 151 0 l 151 544 l 19 544 l 19 686 l 151 686 l 151 900 l 321 900 l 321 686 l 454 686 l 454 544 l 321 544 l 321 0 z "},"u":{"ha":810,"x_min":79,"x_max":722,"o":"m 553 686 l 722 686 l 722 0 l 565 0 l 553 92 q 460 13 521 43 q 331 -18 399 -18 q 146 56 213 -18 q 79 257 79 131 l 79 686 l 249 686 l 249 317 q 394 133 249 133 q 553 326 553 133 l 553 686 z "},"v":{"ha":744,"x_min":10,"x_max":735,"o":"m 282 0 l 10 686 l 190 686 l 310 371 q 371 181 360 231 q 435 371 385 243 l 560 686 l 735 686 l 449 0 l 282 0 z "},"w":{"ha":1107,"x_min":17,"x_max":1092,"o":"m 239 0 l 17 686 l 193 686 l 283 392 q 325 214 306 313 q 372 392 340 292 l 467 686 l 639 686 l 731 392 q 775 215 763 288 q 821 392 790 288 l 913 686 l 1092 686 l 854 0 l 696 0 l 601 297 q 553 488 564 421 q 499 294 540 428 l 404 0 l 239 0 z "},"x":{"ha":713,"x_min":14,"x_max":699,"o":"m 207 0 l 14 0 l 250 336 l 14 686 l 211 686 l 363 453 l 508 686 l 699 686 l 465 339 l 692 0 l 497 0 l 351 226 l 207 0 z "},"y":{"ha":735,"x_min":10,"x_max":726,"o":"m 28 -318 l 28 -176 l 129 -176 q 215 -157 183 -176 q 267 -81 246 -137 l 286 -29 l 10 686 l 189 686 l 365 186 l 551 686 l 726 686 l 390 -153 q 295 -291 351 -249 q 154 -333 239 -333 q 28 -318 86 -333 z "},"z":{"ha":657,"x_min":51,"x_max":606,"o":"m 606 0 l 51 0 l 51 139 l 393 544 l 51 544 l 51 686 l 606 686 l 606 546 l 258 142 l 606 142 l 606 0 z "},"{":{"ha":485,"x_min":63,"x_max":478,"o":"m 63 449 l 63 583 q 204 707 204 583 l 204 993 q 253 1115 204 1069 q 382 1161 301 1161 l 478 1161 l 478 1029 l 415 1029 q 358 964 358 1029 l 358 688 q 238 515 358 556 q 358 344 358 478 l 358 68 q 415 1 358 1 l 478 1 l 478 -129 l 382 -129 q 253 -83 301 -129 q 204 39 204 -37 l 204 324 q 63 449 204 449 z "},"|":{"ha":467,"x_min":168,"x_max":300,"o":"m 168 -122 l 168 1097 l 300 1097 l 300 -122 l 168 -122 z "},"}":{"ha":485,"x_min":7,"x_max":422,"o":"m 103 -129 l 7 -129 l 7 1 l 69 1 q 126 68 126 1 l 126 344 q 247 515 126 478 q 126 688 126 556 l 126 964 q 69 1029 126 1029 l 7 1029 l 7 1161 l 103 1161 q 232 1115 183 1161 q 281 993 281 1069 l 281 707 q 422 583 281 583 l 422 449 q 281 324 281 449 l 281 39 q 232 -83 281 -37 q 103 -129 183 -129 z "},"~":{"ha":917,"x_min":111,"x_max":806,"o":"m 675 544 l 806 544 q 753 373 806 440 q 613 306 700 306 q 499 333 556 306 q 397 387 443 360 q 317 414 350 414 q 242 318 244 414 l 111 318 q 164 485 111 419 q 304 551 217 551 q 466 497 372 551 q 600 443 560 443 q 675 544 672 443 z "},"¡":{"ha":444,"x_min":108,"x_max":333,"o":"m 222 1033 q 300 1001 267 1033 q 333 924 333 968 q 300 845 333 878 q 222 813 267 813 q 142 845 175 813 q 108 924 108 878 q 142 1001 108 968 q 222 1033 175 1033 m 153 711 l 289 711 q 322 233 322 528 l 322 0 l 122 0 l 122 233 q 153 711 122 524 z "},"¢":{"ha":797,"x_min":61,"x_max":743,"o":"m 332 -1 l 332 153 q 135 272 208 176 q 61 507 61 367 q 135 741 61 644 q 332 861 210 838 l 332 1015 l 475 1015 l 475 863 q 660 776 589 846 q 743 599 731 707 l 572 599 q 411 717 543 717 q 281 660 331 717 q 231 507 231 603 q 280 355 231 411 q 411 299 329 299 q 572 415 544 299 l 743 415 q 658 238 731 310 q 475 150 586 167 l 475 -1 l 332 -1 z "},"£":{"ha":903,"x_min":38,"x_max":849,"o":"m 536 0 l 38 0 l 38 165 q 151 221 108 171 q 194 346 194 271 q 178 444 194 388 l 44 444 l 44 576 l 133 576 q 108 708 108 654 q 206 941 108 849 q 460 1033 304 1033 q 703 950 608 1033 q 803 724 799 867 l 625 724 q 576 837 621 799 q 454 875 531 875 q 328 831 376 875 q 281 711 281 786 q 307 576 281 661 l 621 576 l 621 444 l 351 444 q 364 353 364 392 q 258 165 364 214 l 510 165 q 639 208 601 165 q 678 338 676 250 l 849 338 q 767 88 849 176 q 536 0 686 0 z "},"¤":{"ha":989,"x_min":79,"x_max":910,"o":"m 800 94 l 692 203 q 496 144 603 144 q 299 203 388 144 l 189 94 l 79 207 l 189 314 q 133 506 133 403 q 189 699 133 610 l 79 807 l 189 918 l 299 811 q 496 869 389 869 q 692 811 603 869 l 800 918 l 910 807 l 801 700 q 858 506 858 613 q 801 313 858 403 l 910 207 l 800 94 m 703 506 q 642 652 703 592 q 496 713 581 713 q 349 652 410 713 q 289 506 289 592 q 350 360 289 421 q 496 300 411 300 q 642 360 581 300 q 703 506 703 421 z "},"¥":{"ha":913,"x_min":28,"x_max":885,"o":"m 319 518 l 28 1015 l 229 1015 l 456 593 l 683 1015 l 885 1015 l 593 518 l 771 518 l 771 392 l 540 392 l 540 311 l 771 311 l 771 185 l 540 185 l 540 0 l 372 0 l 372 185 l 140 185 l 140 311 l 372 311 l 372 392 l 140 392 l 140 518 l 319 518 z "},"¦":{"ha":467,"x_min":168,"x_max":300,"o":"m 300 1097 l 300 611 l 168 611 l 168 1097 l 300 1097 m 168 -122 l 168 364 l 300 364 l 300 -122 l 168 -122 z "},"§":{"ha":671,"x_min":44,"x_max":626,"o":"m 626 522 q 592 415 626 464 q 501 342 558 367 q 599 188 599 294 q 522 41 599 99 q 328 -17 446 -17 q 140 44 211 -17 q 68 206 68 106 l 228 206 q 257 135 229 161 q 335 110 285 110 q 414 131 386 110 q 442 190 442 153 q 351 272 442 253 l 218 303 q 44 493 44 342 q 78 600 44 551 q 169 676 113 649 q 72 829 72 722 q 149 977 72 919 q 344 1035 226 1035 q 531 974 460 1035 q 604 811 603 913 l 443 811 q 414 882 442 856 q 338 908 386 908 q 258 887 286 908 q 231 826 231 865 q 321 746 231 765 l 453 714 q 626 522 626 674 m 434 431 q 451 445 434 431 q 468 508 468 460 q 434 587 468 557 q 336 617 400 617 q 238 587 272 617 q 203 508 203 557 q 237 431 203 460 q 336 401 271 401 q 434 431 400 401 z "},"¨":{"ha":586,"x_min":78,"x_max":510,"o":"m 169 1085 q 104 1112 131 1085 q 78 1178 78 1139 q 105 1243 78 1215 q 169 1271 132 1271 q 235 1243 207 1271 q 263 1178 263 1215 q 235 1112 263 1139 q 169 1085 207 1085 m 417 1085 q 351 1112 378 1085 q 325 1178 325 1139 q 352 1243 325 1215 q 417 1271 379 1271 q 482 1243 454 1271 q 510 1178 510 1215 q 482 1112 510 1139 q 417 1085 454 1085 z "},"©":{"ha":1140,"x_min":56,"x_max":1085,"o":"m 571 -18 q 205 135 354 -18 q 56 508 56 288 q 205 881 56 729 q 571 1033 354 1033 q 935 881 786 1033 q 1085 508 1085 729 q 935 135 1085 288 q 571 -18 786 -18 m 571 85 q 859 206 743 85 q 975 508 975 328 q 859 810 975 689 q 571 931 743 931 q 281 809 399 931 q 164 508 164 688 q 281 206 164 328 q 571 85 397 85 m 310 507 q 384 705 310 628 q 574 782 458 782 q 746 727 678 782 q 825 579 814 672 l 694 579 q 578 667 672 667 q 478 623 517 667 q 439 508 439 579 q 476 393 439 436 q 574 350 513 350 q 696 436 672 350 l 825 436 q 744 290 814 346 q 574 233 675 233 q 383 308 456 233 q 310 507 310 383 z "},"«":{"ha":1003,"x_min":56,"x_max":947,"o":"m 356 0 l 56 343 l 356 686 l 572 686 l 271 343 l 572 0 l 356 0 m 731 0 l 431 343 l 731 686 l 947 686 l 646 343 l 947 0 l 731 0 z "},"¬":{"ha":917,"x_min":86,"x_max":788,"o":"m 788 524 l 788 124 l 626 124 l 626 379 l 86 379 l 86 524 l 788 524 z "},"®":{"ha":703,"x_min":56,"x_max":647,"o":"m 563 528 q 521 486 563 528 q 353 444 479 444 q 141 529 226 444 q 56 739 56 614 q 141 949 56 864 q 353 1033 226 1033 q 563 949 479 1033 q 647 739 647 865 q 563 528 647 613 m 353 497 q 524 566 456 497 q 592 739 592 635 q 524 912 592 843 q 353 981 456 981 q 181 912 249 981 q 113 739 113 843 q 181 566 113 635 q 353 497 249 497 m 290 578 l 233 578 l 233 910 l 367 910 q 456 883 422 910 q 489 808 489 856 q 422 711 489 738 l 494 578 l 432 578 l 369 697 l 290 697 l 290 578 m 429 804 q 365 856 429 856 l 290 856 l 290 749 l 365 749 q 429 804 429 749 z "},"¯":{"ha":539,"x_min":83,"x_max":456,"o":"m 83 1119 l 83 1238 l 456 1238 l 456 1119 l 83 1119 z "},"°":{"ha":433,"x_min":33,"x_max":400,"o":"m 400 850 q 348 719 400 772 q 217 667 296 667 q 85 719 138 667 q 33 850 33 772 q 85 981 33 929 q 217 1033 138 1033 q 348 981 296 1033 q 400 850 400 929 m 304 850 q 280 917 304 892 q 217 942 256 942 q 153 916 178 942 q 129 850 129 890 q 153 785 129 810 q 217 760 178 760 q 280 785 256 760 q 304 850 304 810 z "},"±":{"ha":917,"x_min":111,"x_max":806,"o":"m 111 619 l 388 619 l 388 844 l 529 844 l 529 619 l 806 619 l 806 478 l 529 478 l 529 251 l 388 251 l 388 478 l 111 478 l 111 619 m 111 0 l 111 143 l 806 143 l 806 0 l 111 0 z "},"²":{"ha":499,"x_min":33,"x_max":465,"o":"m 465 458 l 40 458 l 40 546 l 264 732 q 344 871 344 799 q 249 978 344 978 q 174 947 200 978 q 147 858 147 915 l 33 858 q 94 1022 36 961 q 249 1082 151 1082 q 403 1027 347 1082 q 460 878 460 972 q 343 667 460 764 l 218 563 l 465 563 l 465 458 z "},"³":{"ha":494,"x_min":28,"x_max":463,"o":"m 197 756 l 151 756 l 151 831 l 308 967 l 56 967 l 56 1071 l 447 1071 l 447 974 l 296 842 q 416 781 369 829 q 463 651 463 732 q 399 503 463 558 q 242 447 336 447 q 88 503 149 447 q 28 656 28 560 l 140 656 q 169 579 140 607 q 244 551 197 551 q 319 579 290 551 q 347 653 347 607 q 321 724 347 697 q 242 754 294 751 q 197 756 228 756 z "},"´":{"ha":385,"x_min":58,"x_max":319,"o":"m 319 1274 l 183 1068 l 58 1068 l 163 1274 l 319 1274 z "},"µ":{"ha":810,"x_min":79,"x_max":722,"o":"m 250 -318 l 79 -318 l 79 686 l 249 686 l 249 317 q 394 133 249 133 q 553 326 553 133 l 553 686 l 722 686 l 722 0 l 565 0 l 553 92 q 365 -18 483 -18 q 231 50 279 -18 l 250 -318 z "},"¶":{"ha":838,"x_min":38,"x_max":697,"o":"m 38 736 q 110 940 38 864 q 303 1015 183 1015 l 507 1015 l 507 -119 l 361 -119 l 361 454 l 303 454 q 110 530 183 454 q 38 736 38 606 m 697 -122 l 633 -122 l 633 1014 l 697 1014 l 697 -122 z "},"·":{"ha":463,"x_min":82,"x_max":381,"o":"m 232 239 q 126 283 171 239 q 82 386 82 326 q 126 491 82 447 q 232 535 171 535 q 336 491 292 535 q 381 386 381 447 q 336 283 381 326 q 232 239 292 239 z "},"¸":{"ha":360,"x_min":46,"x_max":304,"o":"m 46 -272 l 46 -194 q 139 -219 99 -219 q 211 -167 211 -219 q 153 -119 211 -119 q 85 -132 118 -119 l 67 -85 l 133 53 l 185 51 l 185 8 l 147 -64 q 193 -57 171 -57 q 272 -85 239 -57 q 304 -165 304 -112 q 260 -262 304 -228 q 149 -296 217 -296 q 46 -272 89 -296 z "},"¹":{"ha":353,"x_min":28,"x_max":292,"o":"m 176 965 l 28 965 l 28 1071 l 292 1071 l 292 458 l 176 458 l 176 965 z "},"»":{"ha":1003,"x_min":56,"x_max":947,"o":"m 271 0 l 56 0 l 356 343 l 56 686 l 271 686 l 572 343 l 271 0 m 646 0 l 431 0 l 731 343 l 431 686 l 646 686 l 947 343 l 646 0 z "},"¼":{"ha":982,"x_min":22,"x_max":950,"o":"m 147 924 l 22 924 l 22 1015 l 246 1015 l 246 518 l 147 518 l 147 924 m 881 986 l 224 0 l 88 0 l 743 986 l 881 986 m 790 94 l 546 94 l 546 175 l 764 497 l 886 497 l 886 183 l 950 183 l 950 94 l 886 94 l 886 0 l 790 0 l 790 94 m 656 183 l 790 183 l 790 381 l 656 183 z "},"½":{"ha":1031,"x_min":22,"x_max":1000,"o":"m 147 924 l 22 924 l 22 1015 l 246 1015 l 246 518 l 147 518 l 147 924 m 881 986 l 224 0 l 88 0 l 743 986 l 881 986 m 1000 0 l 642 0 l 642 74 l 804 203 q 883 332 883 267 q 864 393 883 371 q 808 415 844 415 q 749 393 771 415 q 728 332 728 371 l 628 332 q 678 458 628 410 q 810 506 729 506 q 938 460 890 506 q 985 338 985 415 q 871 142 985 232 l 808 90 l 1000 90 l 1000 0 z "},"¾":{"ha":1025,"x_min":26,"x_max":993,"o":"m 26 681 l 128 681 q 149 621 128 642 q 207 600 171 600 q 262 620 242 600 q 282 675 282 640 q 186 756 282 756 l 126 756 l 126 821 l 242 925 l 50 925 l 50 1015 l 371 1015 l 371 932 l 256 828 q 348 777 313 815 q 383 676 383 739 q 333 554 383 600 q 204 508 282 508 q 77 554 128 508 q 26 681 26 600 m 924 986 l 267 0 l 129 0 l 786 986 l 924 986 m 833 94 l 589 94 l 589 175 l 807 497 l 929 497 l 929 183 l 993 183 l 993 94 l 929 94 l 929 0 l 833 0 l 833 94 m 699 183 l 833 183 l 833 381 l 699 183 z "},"¿":{"ha":769,"x_min":44,"x_max":724,"o":"m 413 1035 q 493 1002 460 1035 q 526 924 526 969 q 493 845 526 878 q 413 813 460 813 q 335 846 368 813 q 301 924 301 879 q 335 1001 301 968 q 413 1035 368 1035 m 342 757 l 496 757 l 496 724 q 484 642 496 679 q 447 572 472 604 q 401 522 421 540 q 346 475 382 504 q 284 424 306 444 q 244 370 263 404 q 225 297 225 336 q 267 183 225 226 q 382 140 308 140 q 502 191 456 140 q 549 321 549 242 l 724 321 q 626 77 724 172 q 378 -18 529 -18 q 134 65 224 -18 q 44 288 44 149 q 59 384 44 340 q 103 462 74 428 q 158 516 133 496 q 221 563 182 536 q 312 641 282 606 q 342 724 342 676 l 342 757 z "},"À":{"ha":946,"x_min":15,"x_max":931,"o":"m 536 1088 l 410 1088 l 275 1294 l 432 1294 l 536 1088 m 200 0 l 15 0 l 382 1015 l 564 1015 l 931 0 l 743 0 l 661 235 l 282 235 l 200 0 m 450 713 l 335 385 l 610 385 l 493 713 q 472 790 475 769 q 450 713 464 753 z "},"Á":{"ha":946,"x_min":15,"x_max":931,"o":"m 674 1293 l 538 1088 l 413 1088 l 517 1293 l 674 1293 m 200 0 l 15 0 l 382 1015 l 564 1015 l 931 0 l 743 0 l 661 235 l 282 235 l 200 0 m 450 713 l 335 385 l 610 385 l 493 713 q 472 790 475 769 q 450 713 464 753 z "},"Â":{"ha":946,"x_min":15,"x_max":931,"o":"m 394 1088 l 263 1088 l 388 1304 l 561 1304 l 686 1088 l 554 1088 l 475 1225 l 394 1088 m 200 0 l 15 0 l 382 1015 l 564 1015 l 931 0 l 743 0 l 661 235 l 282 235 l 200 0 m 450 713 l 335 385 l 610 385 l 493 713 q 472 790 475 769 q 450 713 464 753 z "},"Ã":{"ha":946,"x_min":15,"x_max":931,"o":"m 338 1099 l 238 1099 q 263 1241 228 1188 q 365 1294 299 1294 q 476 1253 415 1294 q 563 1213 538 1213 q 611 1294 611 1213 l 711 1294 q 684 1149 719 1199 q 579 1099 649 1099 q 465 1140 525 1099 q 385 1181 404 1181 q 338 1099 338 1181 m 200 0 l 15 0 l 382 1015 l 564 1015 l 931 0 l 743 0 l 661 235 l 282 235 l 200 0 m 450 713 l 335 385 l 610 385 l 493 713 q 472 790 475 769 q 450 713 464 753 z "},"Ä":{"ha":946,"x_min":15,"x_max":931,"o":"m 351 1104 q 285 1131 313 1104 q 258 1197 258 1158 q 285 1263 258 1235 q 351 1290 313 1290 q 416 1263 389 1290 q 443 1197 443 1235 q 416 1131 443 1158 q 351 1104 389 1104 m 599 1104 q 533 1131 560 1104 q 506 1197 506 1158 q 533 1263 506 1235 q 599 1290 561 1290 q 663 1263 636 1290 q 690 1197 690 1235 q 663 1131 690 1158 q 599 1104 636 1104 m 200 0 l 15 0 l 382 1015 l 564 1015 l 931 0 l 743 0 l 661 235 l 282 235 l 200 0 m 450 713 l 335 385 l 610 385 l 493 713 q 472 790 475 769 q 450 713 464 753 z "},"Å":{"ha":946,"x_min":15,"x_max":931,"o":"m 475 1071 q 347 1121 397 1071 q 296 1247 296 1171 q 347 1374 296 1324 q 475 1425 399 1425 q 602 1374 551 1425 q 653 1247 653 1322 q 602 1122 653 1172 q 475 1071 551 1071 m 475 1163 q 533 1186 511 1163 q 556 1250 556 1210 q 533 1310 556 1286 q 475 1333 510 1333 q 416 1310 439 1333 q 393 1250 393 1288 q 415 1186 393 1210 q 475 1163 438 1163 m 200 0 l 15 0 l 382 1015 l 564 1015 l 931 0 l 743 0 l 661 235 l 282 235 l 200 0 m 450 713 l 335 385 l 610 385 l 493 713 q 472 790 475 769 q 450 713 464 753 z "},"Æ":{"ha":1306,"x_min":8,"x_max":1226,"o":"m 8 0 l 417 1015 l 1226 1015 l 1226 851 l 774 851 l 774 590 l 1179 590 l 1179 433 l 774 433 l 774 164 l 1226 164 l 1226 0 l 597 0 l 597 253 l 306 253 l 208 0 l 8 0 m 363 403 l 597 403 l 597 851 l 536 851 l 363 403 z "},"Ç":{"ha":1054,"x_min":54,"x_max":1007,"o":"m 440 -272 l 440 -194 q 533 -219 493 -219 q 607 -167 607 -219 q 547 -119 607 -119 q 479 -132 513 -119 l 463 -85 l 496 -15 q 174 141 293 0 q 54 507 54 282 q 190 888 54 743 q 550 1032 326 1032 q 854 935 731 1032 q 1004 674 978 838 l 817 674 q 719 812 790 763 q 546 861 647 861 q 323 766 406 861 q 240 508 240 671 q 324 251 240 347 q 546 154 407 154 q 723 204 649 154 q 822 339 797 254 l 1007 339 q 858 88 979 185 q 567 -17 738 -10 l 543 -64 q 589 -57 567 -57 q 667 -85 635 -57 q 700 -165 700 -112 q 656 -262 700 -228 q 543 -296 611 -296 q 440 -272 485 -296 z "},"È":{"ha":824,"x_min":113,"x_max":743,"o":"m 486 1088 l 361 1088 l 225 1294 l 383 1294 l 486 1088 m 743 0 l 113 0 l 113 1015 l 743 1015 l 743 851 l 290 851 l 290 590 l 696 590 l 696 433 l 290 433 l 290 164 l 743 164 l 743 0 z "},"É":{"ha":824,"x_min":113,"x_max":743,"o":"m 625 1293 l 489 1088 l 363 1088 l 467 1293 l 625 1293 m 743 0 l 113 0 l 113 1015 l 743 1015 l 743 851 l 290 851 l 290 590 l 696 590 l 696 433 l 290 433 l 290 164 l 743 164 l 743 0 z "},"Ê":{"ha":824,"x_min":113,"x_max":743,"o":"m 346 1088 l 213 1088 l 338 1304 l 511 1304 l 638 1088 l 504 1088 l 425 1225 l 346 1088 m 743 0 l 113 0 l 113 1015 l 743 1015 l 743 851 l 290 851 l 290 590 l 696 590 l 696 433 l 290 433 l 290 164 l 743 164 l 743 0 z "},"Ë":{"ha":824,"x_min":113,"x_max":743,"o":"m 301 1104 q 235 1131 263 1104 q 208 1197 208 1158 q 236 1263 208 1235 q 301 1290 264 1290 q 366 1263 339 1290 q 393 1197 393 1235 q 366 1131 393 1158 q 301 1104 339 1104 m 549 1104 q 483 1131 510 1104 q 457 1197 457 1158 q 484 1263 457 1235 q 549 1290 511 1290 q 614 1263 586 1290 q 642 1197 642 1235 q 614 1131 642 1158 q 549 1104 586 1104 m 743 0 l 113 0 l 113 1015 l 743 1015 l 743 851 l 290 851 l 290 590 l 696 590 l 696 433 l 290 433 l 290 164 l 743 164 l 743 0 z "},"Ì":{"ha":403,"x_min":1,"x_max":290,"o":"m 263 1088 l 136 1088 l 1 1294 l 158 1294 l 263 1088 m 290 1015 l 290 0 l 113 0 l 113 1015 l 290 1015 z "},"Í":{"ha":403,"x_min":113,"x_max":400,"o":"m 400 1293 l 265 1088 l 139 1088 l 243 1293 l 400 1293 m 290 1015 l 290 0 l 113 0 l 113 1015 l 290 1015 z "},"Î":{"ha":403,"x_min":-11,"x_max":413,"o":"m 122 1088 l -11 1088 l 114 1304 l 288 1304 l 413 1088 l 281 1088 l 201 1225 l 122 1088 m 290 1015 l 290 0 l 113 0 l 113 1015 l 290 1015 z "},"Ï":{"ha":403,"x_min":-15,"x_max":417,"o":"m 78 1104 q 12 1131 39 1104 q -15 1197 -15 1158 q 12 1263 -15 1235 q 78 1290 39 1290 q 142 1263 115 1290 q 169 1197 169 1235 q 142 1131 169 1158 q 78 1104 115 1104 m 325 1104 q 259 1131 286 1104 q 232 1197 232 1158 q 260 1263 232 1235 q 325 1290 288 1290 q 390 1263 363 1290 q 417 1197 417 1235 q 390 1131 417 1158 q 325 1104 363 1104 m 290 1015 l 290 0 l 113 0 l 113 1015 l 290 1015 z "},"Ð":{"ha":1028,"x_min":18,"x_max":975,"o":"m 18 435 l 18 581 l 113 581 l 113 1015 l 468 1015 q 834 874 693 1015 q 975 506 975 732 q 837 141 975 282 q 478 0 699 0 l 113 0 l 113 435 l 18 435 m 496 435 l 290 435 l 290 164 l 461 164 q 700 256 613 164 q 788 506 788 347 q 698 759 788 667 q 451 851 608 851 l 290 851 l 290 581 l 496 581 l 496 435 z "},"Ñ":{"ha":1053,"x_min":113,"x_max":940,"o":"m 394 1099 l 294 1099 q 320 1241 285 1188 q 422 1294 356 1294 q 533 1253 472 1294 q 619 1213 594 1213 q 668 1294 668 1213 l 768 1294 q 741 1149 776 1199 q 636 1099 706 1099 q 522 1140 582 1099 q 442 1181 461 1181 q 394 1099 394 1181 m 288 0 l 113 0 l 113 1015 l 289 1015 l 765 296 l 765 1015 l 940 1015 l 940 0 l 765 0 l 288 719 l 288 0 z "},"Ò":{"ha":1092,"x_min":54,"x_max":1039,"o":"m 607 1088 l 482 1088 l 347 1294 l 504 1294 l 607 1088 m 901 887 q 970 814 901 887 q 1039 508 1039 740 q 901 130 1039 276 q 544 -17 763 -17 q 190 130 326 -17 q 54 508 54 276 q 191 887 54 740 q 546 1033 328 1033 q 901 887 764 1033 m 851 508 q 769 767 851 671 q 546 863 686 863 q 323 767 406 863 q 240 508 240 671 q 323 250 240 346 q 546 154 406 154 q 768 251 685 154 q 851 508 851 347 z "},"Ó":{"ha":1092,"x_min":54,"x_max":1039,"o":"m 746 1293 l 610 1088 l 485 1088 l 589 1293 l 746 1293 m 901 887 q 970 814 901 887 q 1039 508 1039 740 q 901 130 1039 276 q 544 -17 763 -17 q 190 130 326 -17 q 54 508 54 276 q 191 887 54 740 q 546 1033 328 1033 q 901 887 764 1033 m 851 508 q 769 767 851 671 q 546 863 686 863 q 323 767 406 863 q 240 508 240 671 q 323 250 240 346 q 546 154 406 154 q 768 251 685 154 q 851 508 851 347 z "},"Ô":{"ha":1092,"x_min":54,"x_max":1039,"o":"m 467 1088 l 333 1088 l 460 1304 l 633 1304 l 758 1088 l 625 1088 l 546 1225 l 467 1088 m 901 887 q 970 814 901 887 q 1039 508 1039 740 q 901 130 1039 276 q 544 -17 763 -17 q 190 130 326 -17 q 54 508 54 276 q 191 887 54 740 q 546 1033 328 1033 q 901 887 764 1033 m 851 508 q 769 767 851 671 q 546 863 686 863 q 323 767 406 863 q 240 508 240 671 q 323 250 240 346 q 546 154 406 154 q 768 251 685 154 q 851 508 851 347 z "},"Õ":{"ha":1092,"x_min":54,"x_max":1039,"o":"m 410 1099 l 310 1099 q 335 1241 300 1188 q 438 1294 371 1294 q 548 1253 488 1294 q 635 1213 608 1213 q 683 1294 683 1213 l 783 1294 q 756 1149 792 1199 q 651 1099 721 1099 q 537 1140 597 1099 q 457 1181 476 1181 q 410 1099 410 1181 m 901 887 q 970 814 901 887 q 1039 508 1039 740 q 901 130 1039 276 q 544 -17 763 -17 q 190 130 326 -17 q 54 508 54 276 q 191 887 54 740 q 546 1033 328 1033 q 901 887 764 1033 m 851 508 q 769 767 851 671 q 546 863 686 863 q 323 767 406 863 q 240 508 240 671 q 323 250 240 346 q 546 154 406 154 q 768 251 685 154 q 851 508 851 347 z "},"Ö":{"ha":1092,"x_min":54,"x_max":1039,"o":"m 422 1104 q 357 1131 383 1104 q 331 1197 331 1158 q 358 1263 331 1235 q 422 1290 385 1290 q 488 1263 460 1290 q 515 1197 515 1235 q 488 1131 515 1158 q 422 1104 460 1104 m 669 1104 q 604 1131 631 1104 q 578 1197 578 1158 q 605 1263 578 1235 q 669 1290 632 1290 q 735 1263 707 1290 q 763 1197 763 1235 q 735 1131 763 1158 q 669 1104 707 1104 m 901 887 q 970 814 901 887 q 1039 508 1039 740 q 901 130 1039 276 q 544 -17 763 -17 q 190 130 326 -17 q 54 508 54 276 q 191 887 54 740 q 546 1033 328 1033 q 901 887 764 1033 m 851 508 q 769 767 851 671 q 546 863 686 863 q 323 767 406 863 q 240 508 240 671 q 323 250 240 346 q 546 154 406 154 q 768 251 685 154 q 851 508 851 347 z "},"×":{"ha":917,"x_min":129,"x_max":788,"o":"m 232 796 l 460 569 l 686 796 l 788 696 l 560 468 l 788 240 l 686 140 l 460 368 l 231 139 l 129 239 l 358 468 l 131 696 l 232 796 z "},"Ø":{"ha":1092,"x_min":54,"x_max":1039,"o":"m 1039 508 q 901 130 1039 276 q 544 -17 763 -17 q 288 51 399 -17 l 250 1 l 81 1 l 183 138 q 54 508 54 282 q 191 887 54 740 q 546 1033 328 1033 q 808 963 694 1033 l 850 1017 l 1013 1017 l 908 879 q 1039 508 1039 733 m 240 508 q 297 286 240 375 l 703 822 q 546 863 635 863 q 323 767 406 863 q 240 508 240 671 m 851 508 q 796 729 851 639 l 393 192 q 546 154 461 154 q 768 251 685 154 q 851 508 851 347 z "},"Ù":{"ha":1015,"x_min":106,"x_max":910,"o":"m 569 1088 l 443 1088 l 308 1294 l 465 1294 l 569 1088 m 106 371 l 106 1015 l 283 1015 l 283 382 q 341 214 283 272 q 507 156 399 156 q 674 215 615 156 q 732 382 732 274 l 732 1015 l 910 1015 l 910 371 q 801 88 910 193 q 507 -17 692 -17 q 214 88 322 -17 q 106 371 106 192 z "},"Ú":{"ha":1015,"x_min":106,"x_max":910,"o":"m 707 1293 l 571 1088 l 446 1088 l 550 1293 l 707 1293 m 106 371 l 106 1015 l 283 1015 l 283 382 q 341 214 283 272 q 507 156 399 156 q 674 215 615 156 q 732 382 732 274 l 732 1015 l 910 1015 l 910 371 q 801 88 910 193 q 507 -17 692 -17 q 214 88 322 -17 q 106 371 106 192 z "},"Û":{"ha":1015,"x_min":106,"x_max":910,"o":"m 428 1088 l 296 1088 l 421 1304 l 594 1304 l 719 1088 l 588 1088 l 508 1225 l 428 1088 m 106 371 l 106 1015 l 283 1015 l 283 382 q 341 214 283 272 q 507 156 399 156 q 674 215 615 156 q 732 382 732 274 l 732 1015 l 910 1015 l 910 371 q 801 88 910 193 q 507 -17 692 -17 q 214 88 322 -17 q 106 371 106 192 z "},"Ü":{"ha":1015,"x_min":106,"x_max":910,"o":"m 385 1104 q 319 1131 346 1104 q 292 1197 292 1158 q 319 1263 292 1235 q 385 1290 346 1290 q 449 1263 422 1290 q 476 1197 476 1235 q 449 1131 476 1158 q 385 1104 422 1104 m 632 1104 q 566 1131 593 1104 q 539 1197 539 1158 q 566 1263 539 1235 q 632 1290 593 1290 q 697 1263 669 1290 q 724 1197 724 1235 q 697 1131 724 1158 q 632 1104 669 1104 m 106 371 l 106 1015 l 283 1015 l 283 382 q 341 214 283 272 q 507 156 399 156 q 674 215 615 156 q 732 382 732 274 l 732 1015 l 910 1015 l 910 371 q 801 88 910 193 q 507 -17 692 -17 q 214 88 322 -17 q 106 371 106 192 z "},"Ý":{"ha":890,"x_min":14,"x_max":876,"o":"m 647 1293 l 511 1088 l 386 1088 l 490 1293 l 647 1293 m 357 400 l 14 1015 l 213 1015 l 413 646 q 449 571 426 619 q 464 602 453 578 q 485 646 475 626 l 683 1015 l 876 1015 l 535 400 l 535 0 l 357 0 l 357 400 z "},"Þ":{"ha":888,"x_min":113,"x_max":850,"o":"m 514 192 l 290 192 l 290 0 l 113 0 l 113 1015 l 290 1015 l 290 829 l 514 829 q 758 740 665 829 q 850 511 850 651 q 757 282 850 372 q 514 192 664 192 m 479 671 l 290 671 l 290 350 l 476 350 q 615 393 567 350 q 664 511 664 436 q 615 628 664 586 q 479 671 567 671 z "},"ß":{"ha":826,"x_min":88,"x_max":790,"o":"m 257 0 l 88 0 l 88 715 q 176 948 88 863 q 411 1033 264 1033 q 637 963 554 1033 q 719 772 719 893 q 690 656 719 707 q 608 578 660 604 q 790 317 790 504 q 695 88 790 175 q 438 0 600 0 q 328 10 374 0 l 328 154 l 435 154 q 571 200 522 154 q 619 324 619 246 q 566 449 619 406 q 411 493 513 493 l 347 493 l 347 631 l 411 631 q 513 666 476 631 q 550 764 550 701 q 513 859 550 824 q 413 894 476 894 q 300 850 343 894 q 257 732 257 806 l 257 0 z "},"à":{"ha":761,"x_min":57,"x_max":682,"o":"m 451 768 l 326 768 l 192 975 l 349 975 l 451 768 m 292 -18 q 120 40 183 -18 q 57 196 57 99 q 123 347 57 290 q 311 414 189 404 l 517 429 l 517 444 q 375 575 517 575 q 260 545 300 575 q 219 461 219 515 l 75 461 q 159 640 75 572 q 383 707 243 707 q 603 632 524 707 q 682 417 682 557 l 682 0 l 533 0 l 521 101 q 435 15 499 49 q 292 -18 372 -18 m 347 110 q 472 154 426 110 q 518 278 518 199 l 518 314 l 375 303 q 229 203 229 289 q 347 110 229 110 z "},"á":{"ha":761,"x_min":57,"x_max":682,"o":"m 590 974 l 454 768 l 329 768 l 433 974 l 590 974 m 292 -18 q 120 40 183 -18 q 57 196 57 99 q 123 347 57 290 q 311 414 189 404 l 517 429 l 517 444 q 375 575 517 575 q 260 545 300 575 q 219 461 219 515 l 75 461 q 159 640 75 572 q 383 707 243 707 q 603 632 524 707 q 682 417 682 557 l 682 0 l 533 0 l 521 101 q 435 15 499 49 q 292 -18 372 -18 m 347 110 q 472 154 426 110 q 518 278 518 199 l 518 314 l 375 303 q 229 203 229 289 q 347 110 229 110 z "},"â":{"ha":761,"x_min":57,"x_max":682,"o":"m 311 768 l 179 768 l 304 985 l 478 985 l 603 768 l 469 768 l 390 906 l 311 768 m 292 -18 q 120 40 183 -18 q 57 196 57 99 q 123 347 57 290 q 311 414 189 404 l 517 429 l 517 444 q 375 575 517 575 q 260 545 300 575 q 219 461 219 515 l 75 461 q 159 640 75 572 q 383 707 243 707 q 603 632 524 707 q 682 417 682 557 l 682 0 l 533 0 l 521 101 q 435 15 499 49 q 292 -18 372 -18 m 347 110 q 472 154 426 110 q 518 278 518 199 l 518 314 l 375 303 q 229 203 229 289 q 347 110 229 110 z "},"ã":{"ha":761,"x_min":57,"x_max":682,"o":"m 254 779 l 154 779 q 180 922 144 868 q 282 975 215 975 q 393 934 332 975 q 479 893 454 893 q 528 975 528 893 l 628 975 q 601 829 636 879 q 496 779 565 779 q 381 820 442 779 q 301 861 321 861 q 254 779 254 861 m 292 -18 q 120 40 183 -18 q 57 196 57 99 q 123 347 57 290 q 311 414 189 404 l 517 429 l 517 444 q 375 575 517 575 q 260 545 300 575 q 219 461 219 515 l 75 461 q 159 640 75 572 q 383 707 243 707 q 603 632 524 707 q 682 417 682 557 l 682 0 l 533 0 l 521 101 q 435 15 499 49 q 292 -18 372 -18 m 347 110 q 472 154 426 110 q 518 278 518 199 l 518 314 l 375 303 q 229 203 229 289 q 347 110 229 110 z "},"ä":{"ha":761,"x_min":57,"x_max":682,"o":"m 267 785 q 201 812 228 785 q 175 878 175 839 q 202 943 175 915 q 267 971 229 971 q 332 943 304 971 q 360 878 360 915 q 332 812 360 839 q 267 785 304 785 m 515 785 q 449 812 476 785 q 422 878 422 839 q 449 943 422 915 q 515 971 476 971 q 580 943 553 971 q 607 878 607 915 q 580 812 607 839 q 515 785 553 785 m 292 -18 q 120 40 183 -18 q 57 196 57 99 q 123 347 57 290 q 311 414 189 404 l 517 429 l 517 444 q 375 575 517 575 q 260 545 300 575 q 219 461 219 515 l 75 461 q 159 640 75 572 q 383 707 243 707 q 603 632 524 707 q 682 417 682 557 l 682 0 l 533 0 l 521 101 q 435 15 499 49 q 292 -18 372 -18 m 347 110 q 472 154 426 110 q 518 278 518 199 l 518 314 l 375 303 q 229 203 229 289 q 347 110 229 110 z "},"å":{"ha":761,"x_min":57,"x_max":682,"o":"m 390 751 q 263 801 313 751 q 213 928 213 851 q 264 1055 213 1004 q 390 1106 315 1106 q 518 1054 467 1106 q 569 928 569 1003 q 518 802 569 853 q 390 751 467 751 m 390 843 q 450 867 428 843 q 472 931 472 890 q 449 990 472 967 q 390 1014 426 1014 q 332 991 354 1014 q 310 931 310 968 q 332 867 310 890 q 390 843 354 843 m 292 -18 q 120 40 183 -18 q 57 196 57 99 q 123 347 57 290 q 311 414 189 404 l 517 429 l 517 444 q 375 575 517 575 q 260 545 300 575 q 219 461 219 515 l 75 461 q 159 640 75 572 q 383 707 243 707 q 603 632 524 707 q 682 417 682 557 l 682 0 l 533 0 l 521 101 q 435 15 499 49 q 292 -18 372 -18 m 347 110 q 472 154 426 110 q 518 278 518 199 l 518 314 l 375 303 q 229 203 229 289 q 347 110 229 110 z "},"æ":{"ha":1235,"x_min":57,"x_max":1188,"o":"m 57 197 q 125 349 57 296 q 310 406 193 403 l 517 411 l 517 444 q 371 575 517 575 q 259 545 299 575 q 219 461 219 515 l 75 461 q 158 639 75 571 q 374 707 240 707 q 608 606 540 707 q 850 707 699 707 q 1096 610 1006 707 q 1186 356 1186 514 l 1186 304 l 668 303 q 858 121 690 121 q 974 148 929 121 q 1031 222 1018 175 l 1188 222 q 1078 47 1165 111 q 856 -18 990 -18 q 575 128 668 -18 q 468 20 539 58 q 303 -18 397 -18 q 122 40 186 -18 q 57 197 57 97 m 974 524 q 951 546 974 524 q 851 568 929 568 q 728 526 774 568 q 669 410 682 483 l 1018 410 q 974 524 1018 481 m 229 206 q 261 135 229 160 q 349 110 293 110 q 472 152 426 110 q 518 265 518 194 l 518 304 l 361 299 q 260 275 292 296 q 229 206 229 254 z "},"ç":{"ha":764,"x_min":47,"x_max":725,"o":"m 47 344 q 143 606 47 504 q 390 707 239 707 q 620 634 531 707 q 724 438 710 561 l 554 438 q 397 556 525 556 q 266 498 315 556 q 217 344 217 440 q 264 191 217 247 q 392 135 311 135 q 498 165 456 135 q 554 251 540 196 l 725 251 q 628 65 711 138 q 421 -17 544 -8 l 397 -64 q 443 -57 421 -57 q 522 -85 489 -57 q 554 -165 554 -112 q 510 -262 554 -228 q 397 -296 465 -296 q 294 -272 339 -296 l 294 -194 q 388 -219 347 -219 q 460 -167 460 -219 q 401 -119 460 -119 q 333 -132 367 -119 l 317 -85 l 349 -17 q 129 96 211 -1 q 47 344 47 193 z "},"è":{"ha":774,"x_min":47,"x_max":728,"o":"m 453 768 l 328 768 l 193 975 l 350 975 l 453 768 m 394 -18 q 144 83 242 -18 q 47 343 47 183 q 142 606 47 504 q 389 707 238 707 q 634 612 543 707 q 725 356 725 517 l 725 304 l 208 303 q 397 121 228 121 q 571 222 540 121 l 728 222 q 617 46 706 110 q 394 -18 529 -18 m 390 568 q 213 411 238 568 l 557 411 q 512 525 557 482 q 390 568 467 568 z "},"é":{"ha":774,"x_min":47,"x_max":728,"o":"m 592 974 l 456 768 l 331 768 l 435 974 l 592 974 m 394 -18 q 144 83 242 -18 q 47 343 47 183 q 142 606 47 504 q 389 707 238 707 q 634 612 543 707 q 725 356 725 517 l 725 304 l 208 303 q 397 121 228 121 q 571 222 540 121 l 728 222 q 617 46 706 110 q 394 -18 529 -18 m 390 568 q 213 411 238 568 l 557 411 q 512 525 557 482 q 390 568 467 568 z "},"ê":{"ha":774,"x_min":47,"x_max":728,"o":"m 313 768 l 181 768 l 306 985 l 479 985 l 604 768 l 472 768 l 393 906 l 313 768 m 394 -18 q 144 83 242 -18 q 47 343 47 183 q 142 606 47 504 q 389 707 238 707 q 634 612 543 707 q 725 356 725 517 l 725 304 l 208 303 q 397 121 228 121 q 571 222 540 121 l 728 222 q 617 46 706 110 q 394 -18 529 -18 m 390 568 q 213 411 238 568 l 557 411 q 512 525 557 482 q 390 568 467 568 z "},"ë":{"ha":774,"x_min":47,"x_max":728,"o":"m 268 785 q 203 812 229 785 q 176 878 176 839 q 203 943 176 915 q 268 971 231 971 q 333 943 306 971 q 361 878 361 915 q 333 812 361 839 q 268 785 306 785 m 517 785 q 451 812 478 785 q 424 878 424 839 q 451 943 424 915 q 517 971 478 971 q 581 943 554 971 q 608 878 608 915 q 581 812 608 839 q 517 785 554 785 m 394 -18 q 144 83 242 -18 q 47 343 47 183 q 142 606 47 504 q 389 707 238 707 q 634 612 543 707 q 725 356 725 517 l 725 304 l 208 303 q 397 121 228 121 q 571 222 540 121 l 728 222 q 617 46 706 110 q 394 -18 529 -18 m 390 568 q 213 411 238 568 l 557 411 q 512 525 557 482 q 390 568 467 568 z "},"ì":{"ha":344,"x_min":-26,"x_max":257,"o":"m 235 768 l 110 768 l -26 975 l 131 975 l 235 768 m 88 0 l 88 686 l 257 686 l 257 0 l 88 0 z "},"í":{"ha":344,"x_min":88,"x_max":372,"o":"m 372 974 l 238 768 l 111 768 l 215 974 l 372 974 m 88 0 l 88 686 l 257 686 l 257 0 l 88 0 z "},"î":{"ha":344,"x_min":-39,"x_max":386,"o":"m 94 768 l -39 768 l 86 985 l 260 985 l 386 768 l 253 768 l 174 906 l 94 768 m 88 0 l 88 686 l 257 686 l 257 0 l 88 0 z "},"ï":{"ha":344,"x_min":-43,"x_max":390,"o":"m 50 785 q -16 812 11 785 q -43 878 -43 839 q -15 943 -43 915 q 50 971 13 971 q 115 943 88 971 q 142 878 142 915 q 115 812 142 839 q 50 785 88 785 m 297 785 q 232 812 258 785 q 206 878 206 839 q 233 943 206 915 q 297 971 260 971 q 363 943 335 971 q 390 878 390 915 q 363 812 390 839 q 297 785 335 785 m 88 0 l 88 686 l 257 686 l 257 0 l 88 0 z "},"ð":{"ha":828,"x_min":47,"x_max":781,"o":"m 47 339 q 149 585 47 489 q 394 682 250 682 q 579 619 507 682 q 457 828 531 729 l 288 760 l 250 854 l 390 911 q 279 1033 338 976 l 474 1033 q 535 969 493 1014 l 642 1014 l 681 919 l 601 888 q 781 381 781 647 q 677 87 781 192 q 413 -18 574 -18 q 148 82 249 -18 q 47 339 47 182 m 269 474 q 243 445 269 474 q 217 332 217 417 q 269 191 217 247 q 413 135 322 135 q 555 190 503 135 q 607 332 607 246 q 556 474 607 418 q 414 531 504 531 q 269 474 322 531 z "},"ñ":{"ha":818,"x_min":88,"x_max":739,"o":"m 285 779 l 185 779 q 210 922 175 868 q 313 975 246 975 q 424 934 363 975 q 510 893 485 893 q 558 975 558 893 l 658 975 q 631 829 667 879 q 526 779 596 779 q 412 820 472 779 q 332 861 351 861 q 285 779 285 861 m 257 0 l 88 0 l 88 686 l 244 686 l 258 597 q 349 678 290 649 q 478 707 407 707 q 672 632 606 707 q 739 422 739 557 l 739 0 l 569 0 l 569 382 q 531 510 569 467 q 425 553 493 553 q 302 503 347 553 q 257 369 257 453 l 257 0 z "},"ò":{"ha":828,"x_min":47,"x_max":781,"o":"m 475 768 l 350 768 l 215 975 l 372 975 l 475 768 m 151 84 q 99 134 151 84 q 47 344 47 185 q 151 605 47 504 q 414 706 254 706 q 677 605 574 706 q 781 344 781 504 q 677 84 781 185 q 414 -17 574 -17 q 151 84 254 -17 m 272 496 q 244 467 272 496 q 217 344 217 438 q 272 193 217 251 q 414 135 326 135 q 556 193 501 135 q 611 344 611 251 q 556 496 611 438 q 414 554 501 554 q 272 496 326 554 z "},"ó":{"ha":828,"x_min":47,"x_max":781,"o":"m 614 974 l 478 768 l 353 768 l 457 974 l 614 974 m 151 84 q 99 134 151 84 q 47 344 47 185 q 151 605 47 504 q 414 706 254 706 q 677 605 574 706 q 781 344 781 504 q 677 84 781 185 q 414 -17 574 -17 q 151 84 254 -17 m 272 496 q 244 467 272 496 q 217 344 217 438 q 272 193 217 251 q 414 135 326 135 q 556 193 501 135 q 611 344 611 251 q 556 496 611 438 q 414 554 501 554 q 272 496 326 554 z "},"ô":{"ha":828,"x_min":47,"x_max":781,"o":"m 335 768 l 201 768 l 328 985 l 501 985 l 626 768 l 493 768 l 414 906 l 335 768 m 151 84 q 99 134 151 84 q 47 344 47 185 q 151 605 47 504 q 414 706 254 706 q 677 605 574 706 q 781 344 781 504 q 677 84 781 185 q 414 -17 574 -17 q 151 84 254 -17 m 272 496 q 244 467 272 496 q 217 344 217 438 q 272 193 217 251 q 414 135 326 135 q 556 193 501 135 q 611 344 611 251 q 556 496 611 438 q 414 554 501 554 q 272 496 326 554 z "},"õ":{"ha":828,"x_min":47,"x_max":781,"o":"m 278 779 l 178 779 q 203 922 168 868 q 306 975 239 975 q 416 934 356 975 q 503 893 476 893 q 551 975 551 893 l 651 975 q 624 829 660 879 q 519 779 589 779 q 405 820 465 779 q 325 861 344 861 q 278 779 278 861 m 151 84 q 99 134 151 84 q 47 344 47 185 q 151 605 47 504 q 414 706 254 706 q 677 605 574 706 q 781 344 781 504 q 677 84 781 185 q 414 -17 574 -17 q 151 84 254 -17 m 272 496 q 244 467 272 496 q 217 344 217 438 q 272 193 217 251 q 414 135 326 135 q 556 193 501 135 q 611 344 611 251 q 556 496 611 438 q 414 554 501 554 q 272 496 326 554 z "},"ö":{"ha":828,"x_min":47,"x_max":781,"o":"m 290 785 q 225 812 251 785 q 199 878 199 839 q 226 943 199 915 q 290 971 253 971 q 356 943 328 971 q 383 878 383 915 q 356 812 383 839 q 290 785 328 785 m 538 785 q 472 812 499 785 q 446 878 446 839 q 473 943 446 915 q 538 971 500 971 q 603 943 575 971 q 631 878 631 915 q 603 812 631 839 q 538 785 575 785 m 151 84 q 99 134 151 84 q 47 344 47 185 q 151 605 47 504 q 414 706 254 706 q 677 605 574 706 q 781 344 781 504 q 677 84 781 185 q 414 -17 574 -17 q 151 84 254 -17 m 272 496 q 244 467 272 496 q 217 344 217 438 q 272 193 217 251 q 414 135 326 135 q 556 193 501 135 q 611 344 611 251 q 556 496 611 438 q 414 554 501 554 q 272 496 326 554 z "},"÷":{"ha":917,"x_min":111,"x_max":806,"o":"m 460 585 q 385 615 417 585 q 354 686 354 646 q 385 759 354 729 q 460 789 417 789 q 532 758 501 789 q 563 686 563 728 q 531 615 563 646 q 460 585 500 585 m 111 494 l 806 494 l 806 351 l 111 351 l 111 494 m 460 56 q 385 86 417 56 q 354 158 354 117 q 385 230 354 200 q 460 260 417 260 q 532 230 501 260 q 563 158 563 200 q 531 86 563 117 q 460 56 500 56 z "},"ø":{"ha":828,"x_min":47,"x_max":781,"o":"m 47 344 q 151 605 47 504 q 414 706 254 706 q 554 682 488 706 l 594 747 l 742 747 l 663 618 q 781 344 781 515 q 677 84 781 185 q 414 -17 574 -17 q 283 4 343 -17 l 239 -69 l 86 -69 l 171 67 q 47 344 47 168 m 217 344 q 258 208 217 263 l 469 547 q 414 554 442 554 q 272 496 326 554 q 217 344 217 438 m 611 344 q 574 475 611 419 l 368 139 q 414 135 389 135 q 556 193 501 135 q 611 344 611 251 z "},"ù":{"ha":810,"x_min":79,"x_max":722,"o":"m 461 768 l 335 768 l 200 975 l 357 975 l 461 768 m 553 686 l 722 686 l 722 0 l 565 0 l 553 92 q 460 13 521 43 q 331 -18 399 -18 q 146 56 213 -18 q 79 257 79 131 l 79 686 l 249 686 l 249 317 q 394 133 249 133 q 553 326 553 133 l 553 686 z "},"ú":{"ha":810,"x_min":79,"x_max":722,"o":"m 599 974 l 464 768 l 338 768 l 442 974 l 599 974 m 553 686 l 722 686 l 722 0 l 565 0 l 553 92 q 460 13 521 43 q 331 -18 399 -18 q 146 56 213 -18 q 79 257 79 131 l 79 686 l 249 686 l 249 317 q 394 133 249 133 q 553 326 553 133 l 553 686 z "},"û":{"ha":810,"x_min":79,"x_max":722,"o":"m 321 768 l 188 768 l 313 985 l 486 985 l 611 768 l 479 768 l 400 906 l 321 768 m 553 686 l 722 686 l 722 0 l 565 0 l 553 92 q 460 13 521 43 q 331 -18 399 -18 q 146 56 213 -18 q 79 257 79 131 l 79 686 l 249 686 l 249 317 q 394 133 249 133 q 553 326 553 133 l 553 686 z "},"ü":{"ha":810,"x_min":79,"x_max":722,"o":"m 276 785 q 210 812 238 785 q 183 878 183 839 q 210 943 183 915 q 276 971 238 971 q 341 943 314 971 q 368 878 368 915 q 341 812 368 839 q 276 785 314 785 m 524 785 q 458 812 485 785 q 431 878 431 839 q 458 943 431 915 q 524 971 486 971 q 588 943 561 971 q 615 878 615 915 q 588 812 615 839 q 524 785 561 785 m 553 686 l 722 686 l 722 0 l 565 0 l 553 92 q 460 13 521 43 q 331 -18 399 -18 q 146 56 213 -18 q 79 257 79 131 l 79 686 l 249 686 l 249 317 q 394 133 249 133 q 553 326 553 133 l 553 686 z "},"ý":{"ha":735,"x_min":10,"x_max":726,"o":"m 574 974 l 438 768 l 313 768 l 417 974 l 574 974 m 28 -318 l 28 -176 l 129 -176 q 215 -157 183 -176 q 267 -81 246 -137 l 286 -29 l 10 686 l 189 686 l 365 186 l 551 686 l 726 686 l 390 -153 q 295 -291 351 -249 q 154 -333 239 -333 q 28 -318 86 -333 z "},"þ":{"ha":860,"x_min":88,"x_max":813,"o":"m 813 349 q 727 84 813 186 q 492 -18 642 -18 q 351 11 414 -18 q 257 92 289 40 l 257 -318 l 88 -318 l 88 1033 l 257 1033 l 257 586 q 355 676 290 643 q 497 708 419 708 q 727 609 642 708 q 813 349 813 510 m 590 194 q 616 223 590 194 q 642 346 642 253 q 590 497 642 439 q 451 556 539 556 q 311 497 364 556 q 258 346 258 439 q 311 194 258 253 q 451 135 364 135 q 590 194 539 135 z "},"ÿ":{"ha":735,"x_min":10,"x_max":726,"o":"m 251 785 q 185 812 213 785 q 158 878 158 839 q 185 943 158 915 q 251 971 213 971 q 316 943 289 971 q 343 878 343 915 q 316 812 343 839 q 251 785 289 785 m 499 785 q 433 812 460 785 q 406 878 406 839 q 433 943 406 915 q 499 971 461 971 q 563 943 536 971 q 590 878 590 915 q 563 812 590 839 q 499 785 536 785 m 28 -318 l 28 -176 l 129 -176 q 215 -157 183 -176 q 267 -81 246 -137 l 286 -29 l 10 686 l 189 686 l 365 186 l 551 686 l 726 686 l 390 -153 q 295 -291 351 -249 q 154 -333 239 -333 q 28 -318 86 -333 z "},"Ā":{"ha":946,"x_min":15,"x_max":931,"o":"m 289 1139 l 289 1258 l 661 1258 l 661 1139 l 289 1139 m 200 0 l 15 0 l 382 1015 l 564 1015 l 931 0 l 743 0 l 661 235 l 282 235 l 200 0 m 450 713 l 335 385 l 610 385 l 493 713 q 472 790 475 769 q 450 713 464 753 z "},"ā":{"ha":761,"x_min":57,"x_max":682,"o":"m 206 819 l 206 939 l 576 939 l 576 819 l 206 819 m 292 -18 q 120 40 183 -18 q 57 196 57 99 q 123 347 57 290 q 311 414 189 404 l 517 429 l 517 444 q 375 575 517 575 q 260 545 300 575 q 219 461 219 515 l 75 461 q 159 640 75 572 q 383 707 243 707 q 603 632 524 707 q 682 417 682 557 l 682 0 l 533 0 l 521 101 q 435 15 499 49 q 292 -18 372 -18 m 347 110 q 472 154 426 110 q 518 278 518 199 l 518 314 l 375 303 q 229 203 229 289 q 347 110 229 110 z "},"Ă":{"ha":946,"x_min":15,"x_max":931,"o":"m 569 1296 l 692 1296 q 633 1135 692 1194 q 475 1076 574 1076 q 316 1135 375 1076 q 257 1296 257 1194 l 381 1296 q 475 1192 381 1192 q 545 1219 521 1192 q 569 1296 569 1246 m 200 0 l 15 0 l 382 1015 l 564 1015 l 931 0 l 743 0 l 661 235 l 282 235 l 200 0 m 450 713 l 335 385 l 610 385 l 493 713 q 472 790 475 769 q 450 713 464 753 z "},"ă":{"ha":761,"x_min":57,"x_max":682,"o":"m 486 976 l 608 976 q 549 816 608 875 q 392 757 490 757 q 232 816 290 757 q 174 976 174 875 l 297 976 q 392 872 297 872 q 461 900 436 872 q 486 976 486 928 m 292 -18 q 120 40 183 -18 q 57 196 57 99 q 123 347 57 290 q 311 414 189 404 l 517 429 l 517 444 q 375 575 517 575 q 260 545 300 575 q 219 461 219 515 l 75 461 q 159 640 75 572 q 383 707 243 707 q 603 632 524 707 q 682 417 682 557 l 682 0 l 533 0 l 521 101 q 435 15 499 49 q 292 -18 372 -18 m 347 110 q 472 154 426 110 q 518 278 518 199 l 518 314 l 375 303 q 229 203 229 289 q 347 110 229 110 z "},"Ą":{"ha":946,"x_min":15,"x_max":931,"o":"m 200 0 l 15 0 l 382 1015 l 564 1015 l 931 0 q 856 -47 882 -18 q 831 -104 831 -75 q 846 -142 831 -128 q 886 -156 861 -156 q 924 -147 903 -156 l 924 -260 q 853 -272 894 -272 q 753 -235 792 -272 q 715 -143 715 -197 q 744 -60 715 -99 q 826 0 772 -21 l 743 0 l 661 235 l 282 235 l 200 0 m 450 713 l 335 385 l 610 385 l 493 713 q 472 790 475 769 q 450 713 464 753 z "},"ą":{"ha":761,"x_min":57,"x_max":682,"o":"m 292 -18 q 120 40 183 -18 q 57 196 57 99 q 123 347 57 290 q 311 414 189 404 l 517 429 l 517 444 q 375 575 517 575 q 260 545 300 575 q 219 461 219 515 l 75 461 q 159 640 75 572 q 383 707 243 707 q 603 632 524 707 q 682 417 682 557 l 682 0 l 681 0 q 582 -104 582 -36 q 597 -142 582 -128 q 636 -156 611 -156 q 674 -147 653 -156 l 674 -260 q 604 -272 647 -272 q 504 -235 542 -272 q 467 -143 467 -197 q 494 -60 467 -99 q 576 0 522 -21 l 533 0 l 521 101 q 435 15 499 49 q 292 -18 372 -18 m 347 110 q 472 154 426 110 q 518 278 518 199 l 518 314 l 375 303 q 229 203 229 289 q 347 110 229 110 z "},"Ć":{"ha":1054,"x_min":54,"x_max":1007,"o":"m 747 1293 l 611 1088 l 486 1088 l 590 1293 l 747 1293 m 542 -17 q 187 126 319 -17 q 54 507 54 268 q 190 888 54 743 q 550 1032 326 1032 q 854 935 731 1032 q 1004 674 978 838 l 817 674 q 719 812 790 763 q 546 861 647 861 q 323 766 406 861 q 240 508 240 671 q 324 251 240 347 q 546 154 407 154 q 723 204 649 154 q 822 339 797 254 l 1007 339 q 850 81 978 179 q 542 -17 722 -17 z "},"ć":{"ha":764,"x_min":47,"x_max":725,"o":"m 586 974 l 450 768 l 325 768 l 429 974 l 586 974 m 47 344 q 143 606 47 504 q 390 707 239 707 q 620 634 531 707 q 724 438 710 561 l 554 438 q 397 556 525 556 q 266 498 315 556 q 217 344 217 440 q 264 191 217 247 q 392 135 311 135 q 498 165 456 135 q 554 251 540 196 l 725 251 q 617 56 710 131 q 392 -18 525 -18 q 142 81 236 -18 q 47 344 47 181 z "},"Ĉ":{"ha":1054,"x_min":54,"x_max":1007,"o":"m 469 1088 l 336 1088 l 461 1304 l 635 1304 l 761 1088 l 628 1088 l 549 1225 l 469 1088 m 542 -17 q 187 126 319 -17 q 54 507 54 268 q 190 888 54 743 q 550 1032 326 1032 q 854 935 731 1032 q 1004 674 978 838 l 817 674 q 719 812 790 763 q 546 861 647 861 q 323 766 406 861 q 240 508 240 671 q 324 251 240 347 q 546 154 407 154 q 723 204 649 154 q 822 339 797 254 l 1007 339 q 850 81 978 179 q 542 -17 722 -17 z "},"ĉ":{"ha":764,"x_min":47,"x_max":725,"o":"m 307 768 l 175 768 l 300 985 l 474 985 l 599 768 l 467 768 l 388 906 l 307 768 m 47 344 q 143 606 47 504 q 390 707 239 707 q 620 634 531 707 q 724 438 710 561 l 554 438 q 397 556 525 556 q 266 498 315 556 q 217 344 217 440 q 264 191 217 247 q 392 135 311 135 q 498 165 456 135 q 554 251 540 196 l 725 251 q 617 56 710 131 q 392 -18 525 -18 q 142 81 236 -18 q 47 344 47 181 z "},"Ċ":{"ha":1054,"x_min":54,"x_max":1007,"o":"m 547 1104 q 479 1133 507 1104 q 451 1201 451 1161 q 480 1270 451 1242 q 547 1299 508 1299 q 615 1269 586 1299 q 644 1201 644 1240 q 615 1133 644 1161 q 547 1104 586 1104 m 542 -17 q 187 126 319 -17 q 54 507 54 268 q 190 888 54 743 q 550 1032 326 1032 q 854 935 731 1032 q 1004 674 978 838 l 817 674 q 719 812 790 763 q 546 861 647 861 q 323 766 406 861 q 240 508 240 671 q 324 251 240 347 q 546 154 407 154 q 723 204 649 154 q 822 339 797 254 l 1007 339 q 850 81 978 179 q 542 -17 722 -17 z "},"ċ":{"ha":764,"x_min":47,"x_max":725,"o":"m 386 785 q 318 813 346 785 q 290 882 290 842 q 319 951 290 922 q 386 979 347 979 q 454 950 425 979 q 483 882 483 921 q 454 813 483 842 q 386 785 425 785 m 47 344 q 143 606 47 504 q 390 707 239 707 q 620 634 531 707 q 724 438 710 561 l 554 438 q 397 556 525 556 q 266 498 315 556 q 217 344 217 440 q 264 191 217 247 q 392 135 311 135 q 498 165 456 135 q 554 251 540 196 l 725 251 q 617 56 710 131 q 392 -18 525 -18 q 142 81 236 -18 q 47 344 47 181 z "},"Č":{"ha":1054,"x_min":54,"x_max":1007,"o":"m 461 1088 l 336 1304 l 468 1304 l 549 1167 l 628 1304 l 760 1304 l 635 1088 l 461 1088 m 542 -17 q 187 126 319 -17 q 54 507 54 268 q 190 888 54 743 q 550 1032 326 1032 q 854 935 731 1032 q 1004 674 978 838 l 817 674 q 719 812 790 763 q 546 861 647 861 q 323 766 406 861 q 240 508 240 671 q 324 251 240 347 q 546 154 407 154 q 723 204 649 154 q 822 339 797 254 l 1007 339 q 850 81 978 179 q 542 -17 722 -17 z "},"č":{"ha":764,"x_min":47,"x_max":725,"o":"m 300 768 l 175 985 l 307 985 l 388 847 l 467 985 l 599 985 l 474 768 l 300 768 m 47 344 q 143 606 47 504 q 390 707 239 707 q 620 634 531 707 q 724 438 710 561 l 554 438 q 397 556 525 556 q 266 498 315 556 q 217 344 217 440 q 264 191 217 247 q 392 135 311 135 q 498 165 456 135 q 554 251 540 196 l 725 251 q 617 56 710 131 q 392 -18 525 -18 q 142 81 236 -18 q 47 344 47 181 z "},"Ď":{"ha":1028,"x_min":113,"x_max":975,"o":"m 360 1088 l 233 1303 l 367 1303 l 446 1167 l 525 1303 l 658 1303 l 532 1088 l 360 1088 m 478 0 l 113 0 l 113 1015 l 468 1015 q 834 874 693 1015 q 975 506 975 732 q 837 141 975 282 q 478 0 699 0 m 451 851 l 290 851 l 290 164 l 461 164 q 700 256 613 164 q 788 506 788 347 q 698 759 788 667 q 451 851 608 851 z "},"ď":{"ha":860,"x_min":47,"x_max":981,"o":"m 369 -18 q 135 81 222 -18 q 47 340 47 179 q 137 605 47 503 q 379 707 226 707 q 511 678 451 707 q 603 599 571 650 l 603 1033 l 771 1033 l 771 0 l 615 0 l 604 107 q 511 15 574 49 q 369 -18 449 -18 m 840 783 l 840 1033 l 981 1033 l 944 783 l 840 783 m 268 195 q 294 166 268 195 q 407 138 319 138 q 548 195 494 138 q 601 346 601 253 q 548 497 601 439 q 407 556 494 556 q 268 497 319 556 q 217 346 217 439 q 268 195 217 253 z "},"Đ":{"ha":1028,"x_min":18,"x_max":975,"o":"m 18 435 l 18 581 l 113 581 l 113 1015 l 468 1015 q 834 874 693 1015 q 975 506 975 732 q 837 141 975 282 q 478 0 699 0 l 113 0 l 113 435 l 18 435 m 496 435 l 290 435 l 290 164 l 461 164 q 700 256 613 164 q 788 506 788 347 q 698 759 788 667 q 451 851 608 851 l 290 851 l 290 581 l 496 581 l 496 435 z "},"đ":{"ha":860,"x_min":47,"x_max":860,"o":"m 369 -18 q 135 81 222 -18 q 47 340 47 179 q 137 605 47 503 q 379 707 226 707 q 511 678 451 707 q 603 599 571 650 l 603 801 l 385 801 l 385 904 l 603 904 l 603 1033 l 771 1033 l 771 904 l 860 904 l 860 801 l 771 801 l 771 0 l 615 0 l 604 107 q 511 15 574 49 q 369 -18 449 -18 m 268 195 q 294 166 268 195 q 407 138 319 138 q 548 195 494 138 q 601 346 601 253 q 548 497 601 439 q 407 556 494 556 q 268 497 319 556 q 217 346 217 439 q 268 195 217 253 z "},"Ē":{"ha":824,"x_min":113,"x_max":743,"o":"m 239 1139 l 239 1258 l 611 1258 l 611 1139 l 239 1139 m 743 0 l 113 0 l 113 1015 l 743 1015 l 743 851 l 290 851 l 290 590 l 696 590 l 696 433 l 290 433 l 290 164 l 743 164 l 743 0 z "},"ē":{"ha":774,"x_min":47,"x_max":728,"o":"m 207 819 l 207 939 l 578 939 l 578 819 l 207 819 m 394 -18 q 144 83 242 -18 q 47 343 47 183 q 142 606 47 504 q 389 707 238 707 q 634 612 543 707 q 725 356 725 517 l 725 304 l 208 303 q 397 121 228 121 q 571 222 540 121 l 728 222 q 617 46 706 110 q 394 -18 529 -18 m 390 568 q 213 411 238 568 l 557 411 q 512 525 557 482 q 390 568 467 568 z "},"Ĕ":{"ha":824,"x_min":113,"x_max":743,"o":"m 519 1296 l 642 1296 q 583 1135 642 1194 q 426 1076 525 1076 q 267 1135 325 1076 q 208 1296 208 1194 l 332 1296 q 426 1192 332 1192 q 495 1219 471 1192 q 519 1296 519 1247 m 743 0 l 113 0 l 113 1015 l 743 1015 l 743 851 l 290 851 l 290 590 l 696 590 l 696 433 l 290 433 l 290 164 l 743 164 l 743 0 z "},"ĕ":{"ha":774,"x_min":47,"x_max":728,"o":"m 488 976 l 610 976 q 551 816 610 875 q 393 757 492 757 q 233 816 292 757 q 175 976 175 875 l 299 976 q 393 872 299 872 q 463 899 439 872 q 488 976 488 926 m 394 -18 q 144 83 242 -18 q 47 343 47 183 q 142 606 47 504 q 389 707 238 707 q 634 612 543 707 q 725 356 725 517 l 725 304 l 208 303 q 397 121 228 121 q 571 222 540 121 l 728 222 q 617 46 706 110 q 394 -18 529 -18 m 390 568 q 213 411 238 568 l 557 411 q 512 525 557 482 q 390 568 467 568 z "},"Ė":{"ha":824,"x_min":113,"x_max":743,"o":"m 492 1133 q 478 1118 492 1133 q 424 1104 464 1104 q 356 1133 383 1104 q 328 1201 328 1161 q 356 1269 328 1240 q 424 1299 385 1299 q 492 1269 463 1299 q 521 1201 521 1240 q 492 1133 521 1161 m 743 0 l 113 0 l 113 1015 l 743 1015 l 743 851 l 290 851 l 290 590 l 696 590 l 696 433 l 290 433 l 290 164 l 743 164 l 743 0 z "},"ė":{"ha":774,"x_min":47,"x_max":728,"o":"m 392 785 q 324 813 351 785 q 296 882 296 842 q 324 951 296 922 q 392 979 353 979 q 460 950 431 979 q 489 882 489 921 q 460 813 489 842 q 392 785 431 785 m 394 -18 q 144 83 242 -18 q 47 343 47 183 q 142 606 47 504 q 389 707 238 707 q 634 612 543 707 q 725 356 725 517 l 725 304 l 208 303 q 397 121 228 121 q 571 222 540 121 l 728 222 q 617 46 706 110 q 394 -18 529 -18 m 390 568 q 213 411 238 568 l 557 411 q 512 525 557 482 q 390 568 467 568 z "},"Ę":{"ha":824,"x_min":113,"x_max":743,"o":"m 639 0 l 113 0 l 113 1015 l 743 1015 l 743 851 l 290 851 l 290 590 l 696 590 l 696 433 l 290 433 l 290 164 l 743 164 l 743 0 q 669 -47 694 -18 q 643 -104 643 -75 q 658 -142 643 -128 q 699 -156 674 -156 q 736 -147 715 -156 l 736 -260 q 665 -272 707 -272 q 566 -235 604 -272 q 528 -143 528 -197 q 556 -60 528 -99 q 639 0 585 -21 z "},"ę":{"ha":774,"x_min":47,"x_max":728,"o":"m 514 -260 q 444 -272 488 -272 q 344 -235 382 -272 q 307 -143 307 -197 q 381 -18 307 -62 q 140 88 232 -12 q 47 343 47 188 q 142 606 47 504 q 389 707 238 707 q 634 612 543 707 q 725 356 725 517 l 725 304 l 208 303 q 397 121 228 121 q 571 222 540 121 l 728 222 q 655 79 711 138 q 513 -3 599 21 q 445 -49 468 -21 q 422 -104 422 -76 q 437 -142 422 -128 q 476 -156 451 -156 q 514 -147 493 -156 l 514 -260 m 390 568 q 213 411 238 568 l 557 411 q 512 525 557 482 q 390 568 467 568 z "},"Ě":{"ha":824,"x_min":113,"x_max":743,"o":"m 338 1088 l 213 1304 l 346 1304 l 425 1167 l 504 1304 l 638 1304 l 511 1088 l 338 1088 m 743 0 l 113 0 l 113 1015 l 743 1015 l 743 851 l 290 851 l 290 590 l 696 590 l 696 433 l 290 433 l 290 164 l 743 164 l 743 0 z "},"ě":{"ha":774,"x_min":47,"x_max":728,"o":"m 306 768 l 181 985 l 313 985 l 393 847 l 472 985 l 604 985 l 479 768 l 306 768 m 394 -18 q 144 83 242 -18 q 47 343 47 183 q 142 606 47 504 q 389 707 238 707 q 634 612 543 707 q 725 356 725 517 l 725 304 l 208 303 q 397 121 228 121 q 571 222 540 121 l 728 222 q 617 46 706 110 q 394 -18 529 -18 m 390 568 q 213 411 238 568 l 557 411 q 512 525 557 482 q 390 568 467 568 z "},"Ĝ":{"ha":1086,"x_min":54,"x_max":1007,"o":"m 481 1089 l 349 1089 l 474 1304 l 647 1304 l 772 1089 l 639 1089 l 560 1225 l 481 1089 m 557 865 q 324 766 408 865 q 240 500 240 667 q 327 242 240 333 q 558 150 414 150 q 766 219 690 150 q 842 410 842 288 l 842 414 l 535 414 l 535 571 l 1007 571 l 1007 0 l 857 0 l 846 117 q 721 21 803 57 q 538 -15 639 -15 q 188 128 322 -15 q 54 504 54 271 q 194 885 54 738 q 561 1032 333 1032 q 858 938 736 1032 q 1001 690 979 844 l 814 690 q 722 821 790 776 q 557 865 653 865 z "},"ĝ":{"ha":853,"x_min":49,"x_max":765,"o":"m 317 774 l 185 774 l 310 989 l 483 989 l 608 774 l 475 774 l 396 911 l 317 774 m 49 358 q 139 609 49 510 q 375 708 229 708 q 599 592 535 708 l 608 686 l 765 686 l 765 35 q 669 -237 765 -137 q 406 -337 572 -337 q 163 -258 257 -337 q 53 -42 68 -179 l 222 -42 q 279 -146 231 -108 q 406 -183 328 -183 q 545 -133 493 -183 q 597 4 597 -82 l 597 118 q 505 42 565 69 q 371 14 444 14 q 138 111 226 14 q 49 358 49 208 m 219 363 q 271 218 219 275 q 404 161 322 161 q 542 217 490 161 q 593 363 593 272 q 542 506 593 451 q 404 560 492 560 q 270 504 321 560 q 219 363 219 449 z "},"Ğ":{"ha":1086,"x_min":54,"x_max":1007,"o":"m 656 1296 l 778 1296 q 719 1137 778 1196 q 561 1078 660 1078 q 401 1136 460 1078 q 343 1296 343 1194 l 467 1296 q 561 1192 467 1192 q 631 1219 606 1192 q 656 1296 656 1247 m 557 865 q 324 766 408 865 q 240 500 240 667 q 327 242 240 333 q 558 150 414 150 q 766 219 690 150 q 842 410 842 288 l 842 414 l 535 414 l 535 571 l 1007 571 l 1007 0 l 857 0 l 846 117 q 721 21 803 57 q 538 -15 639 -15 q 188 128 322 -15 q 54 504 54 271 q 194 885 54 738 q 561 1032 333 1032 q 858 938 736 1032 q 1001 690 979 844 l 814 690 q 722 821 790 776 q 557 865 653 865 z "},"ğ":{"ha":853,"x_min":49,"x_max":765,"o":"m 492 982 l 614 982 q 555 822 614 881 q 397 763 496 763 q 238 822 296 763 q 179 982 179 881 l 303 982 q 397 878 303 878 q 467 905 442 878 q 492 982 492 932 m 49 358 q 139 609 49 510 q 375 708 229 708 q 599 592 535 708 l 608 686 l 765 686 l 765 35 q 669 -237 765 -137 q 406 -337 572 -337 q 163 -258 257 -337 q 53 -42 68 -179 l 222 -42 q 279 -146 231 -108 q 406 -183 328 -183 q 545 -133 493 -183 q 597 4 597 -82 l 597 118 q 505 42 565 69 q 371 14 444 14 q 138 111 226 14 q 49 358 49 208 m 219 363 q 271 218 219 275 q 404 161 322 161 q 542 217 490 161 q 593 363 593 272 q 542 506 593 451 q 404 560 492 560 q 270 504 321 560 q 219 363 219 449 z "},"Ġ":{"ha":1086,"x_min":54,"x_max":1007,"o":"m 628 1133 q 614 1118 628 1133 q 560 1104 600 1104 q 491 1133 519 1104 q 463 1201 463 1161 q 491 1270 463 1242 q 560 1299 519 1299 q 628 1270 600 1299 q 657 1201 657 1242 q 628 1133 657 1161 m 557 865 q 324 766 408 865 q 240 500 240 667 q 327 242 240 333 q 558 150 414 150 q 766 219 690 150 q 842 410 842 288 l 842 414 l 535 414 l 535 571 l 1007 571 l 1007 0 l 857 0 l 846 117 q 721 21 803 57 q 538 -15 639 -15 q 188 128 322 -15 q 54 504 54 271 q 194 885 54 738 q 561 1032 333 1032 q 858 938 736 1032 q 1001 690 979 844 l 814 690 q 722 821 790 776 q 557 865 653 865 z "},"ġ":{"ha":853,"x_min":49,"x_max":765,"o":"m 465 819 q 450 805 465 819 q 396 790 436 790 q 327 818 356 790 q 299 886 299 846 q 327 956 299 926 q 396 985 356 985 q 464 956 435 985 q 493 886 493 926 q 465 819 493 847 m 49 358 q 139 609 49 510 q 375 708 229 708 q 599 592 535 708 l 608 686 l 765 686 l 765 35 q 669 -237 765 -137 q 406 -337 572 -337 q 163 -258 257 -337 q 53 -42 68 -179 l 222 -42 q 279 -146 231 -108 q 406 -183 328 -183 q 545 -133 493 -183 q 597 4 597 -82 l 597 118 q 505 42 565 69 q 371 14 444 14 q 138 111 226 14 q 49 358 49 208 m 219 363 q 271 218 219 275 q 404 161 322 161 q 542 217 490 161 q 593 363 593 272 q 542 506 593 451 q 404 560 492 560 q 270 504 321 560 q 219 363 219 449 z "},"Ģ":{"ha":1086,"x_min":54,"x_max":1007,"o":"m 557 865 q 324 766 408 865 q 240 500 240 667 q 327 242 240 333 q 558 150 414 150 q 766 219 690 150 q 842 410 842 288 l 842 414 l 535 414 l 535 571 l 1007 571 l 1007 0 l 857 0 l 846 117 q 721 21 803 57 q 538 -15 639 -15 q 188 128 322 -15 q 54 504 54 271 q 194 885 54 738 q 561 1032 333 1032 q 858 938 736 1032 q 1001 690 979 844 l 814 690 q 722 821 790 776 q 557 865 653 865 m 625 -157 q 580 -277 625 -232 q 458 -312 535 -322 l 458 -257 q 554 -203 550 -265 q 521 -211 539 -211 q 466 -188 488 -211 q 444 -132 444 -165 q 469 -72 444 -94 q 533 -49 493 -49 q 600 -78 575 -49 q 625 -157 625 -107 z "},"ģ":{"ha":853,"x_min":49,"x_max":765,"o":"m 478 871 q 453 810 478 833 q 390 788 429 788 q 324 817 349 788 q 299 896 299 846 q 344 1016 299 971 q 465 1051 389 1061 l 465 996 q 369 942 374 1004 q 403 949 386 949 q 457 926 436 949 q 478 871 478 904 m 49 358 q 139 609 49 510 q 375 708 229 708 q 599 592 535 708 l 608 686 l 765 686 l 765 35 q 669 -237 765 -137 q 406 -337 572 -337 q 163 -258 257 -337 q 53 -42 68 -179 l 222 -42 q 279 -146 231 -108 q 406 -183 328 -183 q 545 -133 493 -183 q 597 4 597 -82 l 597 118 q 505 42 565 69 q 371 14 444 14 q 138 111 226 14 q 49 358 49 208 m 219 363 q 271 218 219 275 q 404 161 322 161 q 542 217 490 161 q 593 363 593 272 q 542 506 593 451 q 404 560 492 560 q 270 504 321 560 q 219 363 219 449 z "},"Ħ":{"ha":1031,"x_min":4,"x_max":1028,"o":"m 290 0 l 113 0 l 113 742 l 4 742 l 4 893 l 113 893 l 113 1015 l 290 1015 l 290 893 l 740 893 l 740 1015 l 918 1015 l 918 893 l 1028 893 l 1028 742 l 918 742 l 918 0 l 740 0 l 740 431 l 290 431 l 290 0 m 290 596 l 740 596 l 740 742 l 290 742 l 290 596 z "},"ħ":{"ha":818,"x_min":0,"x_max":739,"o":"m 257 0 l 88 0 l 88 801 l 0 801 l 0 904 l 88 904 l 88 1033 l 258 1033 l 258 904 l 475 904 l 475 801 l 258 801 l 258 597 q 350 678 292 649 q 481 707 408 707 q 672 632 606 707 q 739 422 739 557 l 739 0 l 569 0 l 569 382 q 531 510 569 467 q 426 553 493 553 q 302 503 347 553 q 257 375 257 454 l 257 0 z "},"Ĩ":{"ha":403,"x_min":-36,"x_max":438,"o":"m 64 1099 l -36 1099 q -10 1241 -46 1188 q 92 1294 25 1294 q 203 1253 142 1294 q 289 1213 264 1213 q 338 1294 338 1213 l 438 1294 q 410 1149 446 1199 q 306 1099 375 1099 q 226 1119 264 1099 q 160 1160 189 1139 q 111 1181 132 1181 q 64 1099 64 1181 m 290 1015 l 290 0 l 113 0 l 113 1015 l 290 1015 z "},"ĩ":{"ha":344,"x_min":-64,"x_max":410,"o":"m 36 779 l -64 779 q -38 922 -74 868 q 64 975 -3 975 q 176 934 115 975 q 261 893 236 893 q 310 975 310 893 l 410 975 q 383 829 418 879 q 278 779 347 779 q 199 799 236 779 q 133 840 161 819 q 83 861 104 861 q 36 779 36 861 m 88 0 l 88 686 l 257 686 l 257 0 l 88 0 z "},"Ī":{"ha":403,"x_min":15,"x_max":388,"o":"m 15 1139 l 15 1258 l 388 1258 l 388 1139 l 15 1139 m 290 1015 l 290 0 l 113 0 l 113 1015 l 290 1015 z "},"ī":{"ha":344,"x_min":-12,"x_max":360,"o":"m -12 819 l -12 939 l 360 939 l 360 819 l -12 819 m 88 0 l 88 686 l 257 686 l 257 0 l 88 0 z "},"Į":{"ha":403,"x_min":75,"x_max":290,"o":"m 185 0 l 113 0 l 113 1015 l 290 1015 l 290 0 l 289 0 q 190 -104 190 -36 q 205 -142 190 -128 q 244 -156 219 -156 q 282 -147 261 -156 l 282 -260 q 213 -272 256 -272 q 113 -235 150 -272 q 75 -143 75 -197 q 103 -60 75 -99 q 185 0 131 -21 z "},"į":{"ha":344,"x_min":42,"x_max":274,"o":"m 172 824 q 99 853 129 824 q 68 926 68 883 q 98 999 68 969 q 172 1028 128 1028 q 244 999 214 1028 q 274 926 274 969 q 244 853 274 883 q 172 824 214 824 m 88 0 l 88 686 l 257 686 l 257 0 l 256 0 q 182 -47 207 -18 q 157 -104 157 -75 q 172 -142 157 -128 q 211 -156 186 -156 q 249 -147 231 -156 l 249 -260 q 179 -272 222 -272 q 79 -235 117 -272 q 42 -143 42 -197 q 70 -60 42 -99 q 153 0 99 -21 l 88 0 z "},"İ":{"ha":403,"x_min":104,"x_max":297,"o":"m 200 1104 q 132 1133 160 1104 q 104 1201 104 1161 q 133 1270 104 1242 q 200 1299 161 1299 q 268 1269 239 1299 q 297 1201 297 1240 q 268 1133 297 1161 q 200 1104 239 1104 m 290 1015 l 290 0 l 113 0 l 113 1015 l 290 1015 z "},"ı":{"ha":344,"x_min":88,"x_max":257,"o":"m 88 0 l 88 686 l 257 686 l 257 0 l 88 0 z "},"Ĵ":{"ha":767,"x_min":28,"x_max":783,"o":"m 492 1089 l 360 1089 l 485 1304 l 658 1304 l 783 1089 l 651 1089 l 572 1225 l 492 1089 m 28 286 l 28 346 l 199 346 l 199 286 q 234 185 199 224 q 342 147 269 147 q 483 293 483 147 l 483 1015 l 661 1015 l 661 283 q 574 65 661 149 q 343 -18 488 -18 q 110 66 192 -18 q 28 286 28 150 z "},"ĵ":{"ha":344,"x_min":-76,"x_max":386,"o":"m 94 768 l -37 768 l 88 985 l 261 985 l 386 768 l 254 768 l 175 906 l 94 768 m -76 -322 l -49 -172 q 10 -181 -21 -181 q 70 -156 53 -181 q 88 -78 88 -132 l 88 686 l 257 686 l 257 -97 q 196 -273 257 -208 q 25 -337 135 -337 q -76 -322 -22 -337 z "},"Ķ":{"ha":936,"x_min":113,"x_max":915,"o":"m 290 1015 l 290 482 l 701 1015 l 911 1015 l 575 582 l 915 0 l 710 0 l 458 432 l 290 217 l 290 0 l 113 0 l 113 1015 l 290 1015 m 576 -157 q 531 -277 576 -232 q 408 -312 485 -322 l 408 -257 q 504 -204 497 -265 q 472 -211 488 -211 q 417 -188 439 -211 q 396 -132 396 -165 q 420 -72 396 -94 q 483 -49 444 -49 q 551 -78 526 -49 q 576 -157 576 -107 z "},"ķ":{"ha":747,"x_min":90,"x_max":738,"o":"m 258 0 l 90 0 l 90 1033 l 258 1033 l 258 399 l 525 686 l 738 686 l 476 414 l 732 0 l 538 0 l 358 289 l 258 185 l 258 0 m 468 -157 q 422 -277 468 -232 q 300 -312 376 -322 l 300 -257 q 396 -203 392 -265 q 364 -211 381 -211 q 309 -188 331 -211 q 288 -132 288 -165 q 312 -72 288 -94 q 375 -49 336 -49 q 442 -78 417 -49 q 468 -157 468 -107 z "},"Ĺ":{"ha":747,"x_min":113,"x_max":715,"o":"m 401 1274 l 265 1068 l 140 1068 l 244 1274 l 401 1274 m 290 1015 l 290 164 l 715 164 l 715 0 l 113 0 l 113 1015 l 290 1015 z "},"ĺ":{"ha":349,"x_min":90,"x_max":374,"o":"m 374 1289 l 238 1083 l 113 1083 l 217 1289 l 374 1289 m 258 0 l 90 0 l 90 1033 l 258 1033 l 258 0 z "},"Ļ":{"ha":747,"x_min":113,"x_max":715,"o":"m 290 1015 l 290 164 l 715 164 l 715 0 l 113 0 l 113 1015 l 290 1015 m 510 -157 q 464 -277 510 -232 q 342 -312 418 -322 l 342 -257 q 438 -203 433 -265 q 406 -211 422 -211 q 351 -188 372 -211 q 329 -132 329 -165 q 353 -72 329 -94 q 417 -49 378 -49 q 484 -78 458 -49 q 510 -157 510 -107 z "},"ļ":{"ha":349,"x_min":82,"x_max":263,"o":"m 258 0 l 90 0 l 90 1033 l 258 1033 l 258 0 m 263 -157 q 217 -277 263 -232 q 94 -312 171 -322 l 94 -257 q 190 -203 186 -265 q 158 -211 176 -211 q 103 -188 125 -211 q 82 -132 82 -165 q 106 -72 82 -94 q 169 -49 131 -49 q 237 -78 211 -49 q 263 -157 263 -107 z "},"Ľ":{"ha":747,"x_min":113,"x_max":715,"o":"m 290 1015 l 290 164 l 715 164 l 715 0 l 113 0 l 113 1015 l 290 1015 m 360 764 l 360 1015 l 500 1015 l 463 764 l 360 764 z "},"ľ":{"ha":349,"x_min":90,"x_max":468,"o":"m 258 0 l 90 0 l 90 1033 l 258 1033 l 258 0 m 328 783 l 328 1033 l 468 1033 l 432 783 l 328 783 z "},"Ŀ":{"ha":747,"x_min":113,"x_max":715,"o":"m 290 1015 l 290 164 l 715 164 l 715 0 l 113 0 l 113 1015 l 290 1015 m 563 437 q 549 423 563 437 q 496 408 535 408 q 428 437 457 408 q 399 504 399 465 q 427 572 399 543 q 496 600 456 600 q 563 572 535 600 q 592 504 592 543 q 563 437 592 465 z "},"ŀ":{"ha":532,"x_min":90,"x_max":539,"o":"m 258 0 l 90 0 l 90 1033 l 258 1033 l 258 0 m 442 407 q 371 435 400 407 q 342 504 342 464 q 371 574 342 544 q 442 603 400 603 q 510 573 481 603 q 539 504 539 543 q 510 435 539 464 q 442 407 481 407 z "},"Ł":{"ha":747,"x_min":22,"x_max":715,"o":"m 22 344 l 22 482 l 113 525 l 113 1015 l 290 1015 l 290 610 l 490 706 l 490 568 l 290 472 l 290 164 l 715 164 l 715 0 l 113 0 l 113 388 l 22 344 z "},"ł":{"ha":349,"x_min":15,"x_max":335,"o":"m 258 0 l 90 0 l 90 435 l 15 399 l 15 519 l 90 556 l 90 1033 l 258 1033 l 258 636 l 335 672 l 335 551 l 258 515 l 258 0 z "},"Ń":{"ha":1053,"x_min":113,"x_max":940,"o":"m 731 1293 l 594 1088 l 469 1088 l 574 1293 l 731 1293 m 288 0 l 113 0 l 113 1015 l 289 1015 l 765 296 l 765 1015 l 940 1015 l 940 0 l 765 0 l 288 719 l 288 0 z "},"ń":{"ha":818,"x_min":88,"x_max":739,"o":"m 621 974 l 485 768 l 360 768 l 464 974 l 621 974 m 257 0 l 88 0 l 88 686 l 244 686 l 258 597 q 349 678 290 649 q 478 707 407 707 q 672 632 606 707 q 739 422 739 557 l 739 0 l 569 0 l 569 382 q 531 510 569 467 q 425 553 493 553 q 302 503 347 553 q 257 369 257 453 l 257 0 z "},"Ņ":{"ha":1053,"x_min":113,"x_max":940,"o":"m 288 0 l 113 0 l 113 1015 l 289 1015 l 765 296 l 765 1015 l 940 1015 l 940 0 l 765 0 l 288 719 l 288 0 m 622 -157 q 576 -277 622 -232 q 454 -312 531 -322 l 454 -257 q 550 -203 546 -265 q 518 -211 535 -211 q 463 -188 485 -211 q 442 -132 442 -165 q 466 -72 442 -94 q 529 -49 490 -49 q 597 -78 571 -49 q 622 -157 622 -107 z "},"ņ":{"ha":818,"x_min":88,"x_max":739,"o":"m 257 0 l 88 0 l 88 686 l 244 686 l 258 597 q 349 678 290 649 q 478 707 407 707 q 672 632 606 707 q 739 422 739 557 l 739 0 l 569 0 l 569 382 q 531 510 569 467 q 425 553 493 553 q 302 503 347 553 q 257 369 257 453 l 257 0 m 501 -157 q 456 -277 501 -232 q 333 -312 410 -322 l 333 -257 q 429 -203 425 -265 q 396 -211 414 -211 q 342 -188 363 -211 q 321 -132 321 -165 q 345 -72 321 -94 q 408 -49 369 -49 q 476 -78 450 -49 q 501 -157 501 -107 z "},"Ň":{"ha":1053,"x_min":113,"x_max":940,"o":"m 444 1088 l 319 1304 l 451 1304 l 532 1167 l 611 1304 l 743 1304 l 618 1088 l 444 1088 m 288 0 l 113 0 l 113 1015 l 289 1015 l 765 296 l 765 1015 l 940 1015 l 940 0 l 765 0 l 288 719 l 288 0 z "},"ň":{"ha":818,"x_min":88,"x_max":739,"o":"m 335 768 l 210 985 l 342 985 l 421 847 l 500 985 l 633 985 l 508 768 l 335 768 m 257 0 l 88 0 l 88 686 l 244 686 l 258 597 q 349 678 290 649 q 478 707 407 707 q 672 632 606 707 q 739 422 739 557 l 739 0 l 569 0 l 569 382 q 531 510 569 467 q 425 553 493 553 q 302 503 347 553 q 257 369 257 453 l 257 0 z "},"Ŋ":{"ha":1053,"x_min":113,"x_max":940,"o":"m 708 -337 q 583 -319 642 -337 l 613 -169 q 683 -181 650 -181 q 772 -78 772 -181 l 772 -10 l 288 719 l 288 0 l 113 0 l 113 1015 l 289 1015 l 765 296 l 765 1015 l 940 1015 l 940 -97 q 879 -273 940 -208 q 708 -337 818 -337 z "},"ŋ":{"ha":818,"x_min":88,"x_max":739,"o":"m 257 0 l 88 0 l 88 686 l 244 686 l 258 597 q 349 678 290 649 q 478 707 407 707 q 672 632 606 707 q 739 422 739 557 l 739 -97 q 678 -273 739 -208 q 507 -337 617 -337 q 406 -322 458 -337 l 433 -172 q 492 -181 461 -181 q 551 -156 533 -181 q 569 -78 569 -131 l 569 382 q 531 510 569 467 q 425 553 493 553 q 302 503 347 553 q 257 369 257 453 l 257 0 z "},"Ō":{"ha":1092,"x_min":54,"x_max":1039,"o":"m 360 1139 l 360 1258 l 732 1258 l 732 1139 l 360 1139 m 901 887 q 970 814 901 887 q 1039 508 1039 740 q 901 130 1039 276 q 544 -17 763 -17 q 190 130 326 -17 q 54 508 54 276 q 191 887 54 740 q 546 1033 328 1033 q 901 887 764 1033 m 851 508 q 769 767 851 671 q 546 863 686 863 q 323 767 406 863 q 240 508 240 671 q 323 250 240 346 q 546 154 406 154 q 768 251 685 154 q 851 508 851 347 z "},"ō":{"ha":828,"x_min":47,"x_max":781,"o":"m 228 819 l 228 939 l 600 939 l 600 819 l 228 819 m 151 84 q 99 134 151 84 q 47 344 47 185 q 151 605 47 504 q 414 706 254 706 q 677 605 574 706 q 781 344 781 504 q 677 84 781 185 q 414 -17 574 -17 q 151 84 254 -17 m 272 496 q 244 467 272 496 q 217 344 217 438 q 272 193 217 251 q 414 135 326 135 q 556 193 501 135 q 611 344 611 251 q 556 496 611 438 q 414 554 501 554 q 272 496 326 554 z "},"Ő":{"ha":1092,"x_min":54,"x_max":1039,"o":"m 643 1293 l 507 1088 l 388 1088 l 501 1293 l 643 1293 m 857 1293 l 714 1088 l 594 1088 l 714 1293 l 857 1293 m 901 887 q 970 814 901 887 q 1039 508 1039 740 q 901 130 1039 276 q 544 -17 763 -17 q 190 130 326 -17 q 54 508 54 276 q 191 887 54 740 q 546 1033 328 1033 q 901 887 764 1033 m 851 508 q 769 767 851 671 q 546 863 686 863 q 323 767 406 863 q 240 508 240 671 q 323 250 240 346 q 546 154 406 154 q 768 251 685 154 q 851 508 851 347 z "},"ő":{"ha":828,"x_min":47,"x_max":781,"o":"m 511 974 l 375 768 l 256 768 l 369 974 l 511 974 m 725 974 l 582 768 l 463 768 l 582 974 l 725 974 m 151 84 q 99 134 151 84 q 47 344 47 185 q 151 605 47 504 q 414 706 254 706 q 677 605 574 706 q 781 344 781 504 q 677 84 781 185 q 414 -17 574 -17 q 151 84 254 -17 m 272 496 q 244 467 272 496 q 217 344 217 438 q 272 193 217 251 q 414 135 326 135 q 556 193 501 135 q 611 344 611 251 q 556 496 611 438 q 414 554 501 554 q 272 496 326 554 z "},"Œ":{"ha":1572,"x_min":54,"x_max":1493,"o":"m 189 131 q 122 204 189 131 q 54 508 54 278 q 191 886 54 739 q 549 1033 328 1033 q 726 1000 642 1033 q 863 908 810 967 l 863 1015 l 1493 1015 l 1493 851 l 1040 851 l 1040 590 l 1446 590 l 1446 433 l 1040 433 l 1040 164 l 1493 164 l 1493 0 l 863 0 l 863 121 q 732 22 819 60 q 542 -17 644 -17 q 189 131 324 -17 m 328 767 q 284 719 328 767 q 240 510 240 671 q 328 251 240 349 q 551 154 415 154 q 773 251 686 154 q 860 510 860 347 q 773 767 860 671 q 550 863 686 863 q 328 767 415 863 z "},"œ":{"ha":1344,"x_min":47,"x_max":1299,"o":"m 151 84 q 99 134 151 84 q 47 344 47 185 q 151 605 47 504 q 414 706 254 706 q 693 582 593 706 q 961 707 792 707 q 1205 612 1114 707 q 1296 356 1296 517 l 1296 304 l 779 303 q 969 121 799 121 q 1142 222 1114 121 l 1299 222 q 1188 46 1276 110 q 965 -18 1100 -18 q 693 108 793 -18 q 414 -17 594 -17 q 151 84 254 -17 m 961 568 q 783 411 808 568 l 1128 411 q 1083 525 1128 482 q 961 568 1038 568 m 272 496 q 244 467 272 496 q 217 344 217 438 q 272 193 217 251 q 414 135 326 135 q 556 193 501 135 q 611 344 611 251 q 556 496 611 438 q 414 554 501 554 q 272 496 326 554 z "},"Ŕ":{"ha":931,"x_min":113,"x_max":875,"o":"m 633 1294 l 499 1089 l 372 1089 l 476 1294 l 633 1294 m 290 0 l 113 0 l 113 1015 l 500 1015 q 769 932 674 1015 q 865 699 865 849 q 682 417 865 492 l 875 0 l 681 0 l 508 379 l 290 379 l 290 0 m 290 857 l 290 536 l 500 536 q 632 579 585 536 q 679 699 679 622 q 632 815 679 774 q 500 857 585 857 l 290 857 z "},"ŕ":{"ha":546,"x_min":88,"x_max":518,"o":"m 490 976 l 354 771 l 229 771 l 333 976 l 490 976 m 518 689 l 518 532 l 456 532 q 309 482 361 532 q 257 333 257 432 l 257 0 l 88 0 l 88 685 l 247 685 l 257 585 q 328 668 279 638 q 443 699 376 699 q 518 689 479 699 z "},"Ŗ":{"ha":931,"x_min":113,"x_max":875,"o":"m 290 0 l 113 0 l 113 1015 l 500 1015 q 769 932 674 1015 q 865 699 865 849 q 682 417 865 492 l 875 0 l 681 0 l 508 379 l 290 379 l 290 0 m 290 857 l 290 536 l 500 536 q 632 579 585 536 q 679 699 679 622 q 632 815 679 774 q 500 857 585 857 l 290 857 m 574 -157 q 528 -277 574 -232 q 406 -312 482 -322 l 406 -257 q 501 -203 497 -265 q 469 -211 486 -211 q 415 -188 436 -211 q 393 -132 393 -165 q 417 -72 393 -94 q 481 -49 442 -49 q 548 -78 522 -49 q 574 -157 574 -107 z "},"ŗ":{"ha":546,"x_min":82,"x_max":518,"o":"m 518 689 l 518 532 l 456 532 q 309 482 361 532 q 257 333 257 432 l 257 0 l 88 0 l 88 685 l 247 685 l 257 585 q 328 668 279 638 q 443 699 376 699 q 518 689 479 699 m 261 -157 q 216 -277 261 -232 q 94 -312 171 -322 l 94 -257 q 190 -203 186 -265 q 157 -211 175 -211 q 103 -188 124 -211 q 82 -132 82 -165 q 106 -72 82 -94 q 169 -49 131 -49 q 236 -78 211 -49 q 261 -157 261 -107 z "},"Ř":{"ha":931,"x_min":113,"x_max":875,"o":"m 347 1089 l 222 1304 l 356 1304 l 435 1167 l 514 1304 l 646 1304 l 521 1089 l 347 1089 m 290 0 l 113 0 l 113 1015 l 500 1015 q 769 932 674 1015 q 865 699 865 849 q 682 417 865 492 l 875 0 l 681 0 l 508 379 l 290 379 l 290 0 m 290 857 l 290 536 l 500 536 q 632 579 585 536 q 679 699 679 622 q 632 815 679 774 q 500 857 585 857 l 290 857 z "},"ř":{"ha":546,"x_min":78,"x_max":518,"o":"m 204 771 l 78 988 l 211 988 l 290 850 l 369 988 l 503 988 l 378 771 l 204 771 m 518 689 l 518 532 l 456 532 q 309 482 361 532 q 257 333 257 432 l 257 0 l 88 0 l 88 685 l 247 685 l 257 585 q 328 668 279 638 q 443 699 376 699 q 518 689 479 699 z "},"Ś":{"ha":822,"x_min":40,"x_max":774,"o":"m 607 1293 l 471 1088 l 346 1088 l 450 1293 l 607 1293 m 54 732 q 155 949 54 865 q 415 1033 256 1033 q 661 953 569 1033 q 757 736 753 874 l 579 736 q 532 838 576 801 q 413 875 488 875 q 281 838 331 875 q 232 738 232 801 q 356 606 232 633 l 515 571 q 774 293 774 515 q 672 67 774 151 q 403 -18 571 -18 q 142 63 240 -18 q 40 279 43 143 l 218 279 q 268 178 219 215 q 403 142 317 142 q 544 178 492 142 q 596 278 596 214 q 478 404 596 379 l 317 440 q 54 732 54 497 z "},"ś":{"ha":643,"x_min":35,"x_max":601,"o":"m 528 986 l 392 781 l 267 781 l 371 986 l 528 986 m 35 208 l 196 208 q 229 137 197 163 q 319 111 261 111 q 410 133 378 111 q 442 193 442 156 q 363 267 442 249 l 239 296 q 100 363 144 317 q 56 492 56 410 q 131 649 56 592 q 328 707 207 707 q 515 646 443 707 q 588 485 586 585 l 426 485 q 397 555 425 529 q 321 581 369 581 q 243 559 271 581 q 215 499 215 538 q 304 421 215 442 l 428 392 q 559 328 517 371 q 601 207 601 285 q 522 43 601 104 q 314 -18 443 -18 q 110 44 186 -18 q 35 208 35 107 z "},"Ŝ":{"ha":822,"x_min":40,"x_max":774,"o":"m 328 1088 l 196 1088 l 321 1304 l 494 1304 l 619 1088 l 488 1088 l 408 1225 l 328 1088 m 54 732 q 155 949 54 865 q 415 1033 256 1033 q 661 953 569 1033 q 757 736 753 874 l 579 736 q 532 838 576 801 q 413 875 488 875 q 281 838 331 875 q 232 738 232 801 q 356 606 232 633 l 515 571 q 774 293 774 515 q 672 67 774 151 q 403 -18 571 -18 q 142 63 240 -18 q 40 279 43 143 l 218 279 q 268 178 219 215 q 403 142 317 142 q 544 178 492 142 q 596 278 596 214 q 478 404 596 379 l 317 440 q 54 732 54 497 z "},"ŝ":{"ha":643,"x_min":35,"x_max":601,"o":"m 249 781 l 115 781 l 242 997 l 414 997 l 540 781 l 407 781 l 328 918 l 249 781 m 35 208 l 196 208 q 229 137 197 163 q 319 111 261 111 q 410 133 378 111 q 442 193 442 156 q 363 267 442 249 l 239 296 q 100 363 144 317 q 56 492 56 410 q 131 649 56 592 q 328 707 207 707 q 515 646 443 707 q 588 485 586 585 l 426 485 q 397 555 425 529 q 321 581 369 581 q 243 559 271 581 q 215 499 215 538 q 304 421 215 442 l 428 392 q 559 328 517 371 q 601 207 601 285 q 522 43 601 104 q 314 -18 443 -18 q 110 44 186 -18 q 35 208 35 107 z "},"Ş":{"ha":822,"x_min":40,"x_max":774,"o":"m 306 -272 l 306 -194 q 399 -219 358 -219 q 471 -167 471 -219 q 413 -119 471 -119 q 344 -132 378 -119 l 328 -85 l 360 -17 q 129 74 215 -6 q 40 279 43 153 l 218 279 q 268 178 219 215 q 403 142 317 142 q 544 178 492 142 q 596 278 596 214 q 478 404 596 379 l 317 440 q 54 732 54 497 q 155 949 54 865 q 415 1033 256 1033 q 661 953 569 1033 q 757 736 753 874 l 579 736 q 532 838 576 801 q 413 875 488 875 q 281 838 331 875 q 232 738 232 801 q 356 606 232 633 l 515 571 q 774 293 774 515 q 681 74 774 158 q 432 -17 588 -10 l 408 -64 q 454 -57 432 -57 q 533 -85 500 -57 q 565 -165 565 -112 q 521 -262 565 -228 q 408 -296 476 -296 q 306 -272 349 -296 z "},"ş":{"ha":643,"x_min":35,"x_max":601,"o":"m 35 208 l 196 208 q 229 137 197 163 q 319 111 261 111 q 410 133 378 111 q 442 193 442 156 q 363 267 442 249 l 239 296 q 100 363 144 317 q 56 492 56 410 q 131 649 56 592 q 328 707 207 707 q 515 646 443 707 q 588 485 586 585 l 426 485 q 397 555 425 529 q 321 581 369 581 q 243 559 271 581 q 215 499 215 538 q 304 421 215 442 l 428 392 q 559 328 517 371 q 601 207 601 285 q 531 50 601 110 q 343 -17 460 -10 l 319 -64 q 364 -57 343 -57 q 443 -84 410 -57 q 476 -165 476 -111 q 432 -262 476 -228 q 319 -296 388 -296 q 217 -272 260 -296 l 217 -194 q 310 -219 269 -219 q 382 -167 382 -219 q 324 -119 382 -119 q 256 -132 289 -119 l 239 -85 l 271 -17 q 98 55 161 -6 q 35 208 35 115 z "},"Š":{"ha":822,"x_min":40,"x_max":774,"o":"m 321 1088 l 196 1304 l 328 1304 l 408 1167 l 488 1304 l 619 1304 l 494 1088 l 321 1088 m 54 732 q 155 949 54 865 q 415 1033 256 1033 q 661 953 569 1033 q 757 736 753 874 l 579 736 q 532 838 576 801 q 413 875 488 875 q 281 838 331 875 q 232 738 232 801 q 356 606 232 633 l 515 571 q 774 293 774 515 q 672 67 774 151 q 403 -18 571 -18 q 142 63 240 -18 q 40 279 43 143 l 218 279 q 268 178 219 215 q 403 142 317 142 q 544 178 492 142 q 596 278 596 214 q 478 404 596 379 l 317 440 q 54 732 54 497 z "},"š":{"ha":643,"x_min":35,"x_max":601,"o":"m 242 781 l 115 997 l 249 997 l 328 860 l 407 997 l 540 997 l 414 781 l 242 781 m 35 208 l 196 208 q 229 137 197 163 q 319 111 261 111 q 410 133 378 111 q 442 193 442 156 q 363 267 442 249 l 239 296 q 100 363 144 317 q 56 492 56 410 q 131 649 56 592 q 328 707 207 707 q 515 646 443 707 q 588 485 586 585 l 426 485 q 397 555 425 529 q 321 581 369 581 q 243 559 271 581 q 215 499 215 538 q 304 421 215 442 l 428 392 q 559 328 517 371 q 601 207 601 285 q 522 43 601 104 q 314 -18 443 -18 q 110 44 186 -18 q 35 208 35 107 z "},"Ţ":{"ha":819,"x_min":24,"x_max":796,"o":"m 310 -272 l 310 -194 q 403 -219 363 -219 q 475 -167 475 -219 q 417 -119 475 -119 q 349 -132 382 -119 l 332 -85 l 372 0 l 321 0 l 321 851 l 24 851 l 24 1015 l 796 1015 l 796 851 l 499 851 l 499 0 l 444 0 l 413 -64 q 458 -57 436 -57 q 537 -85 504 -57 q 569 -165 569 -112 q 525 -262 569 -228 q 413 -296 481 -296 q 310 -272 354 -296 z "},"ţ":{"ha":472,"x_min":19,"x_max":454,"o":"m 143 -272 l 143 -194 q 236 -219 196 -219 q 308 -167 308 -219 q 250 -119 308 -119 q 182 -132 215 -119 l 164 -85 l 206 0 l 151 0 l 151 544 l 19 544 l 19 686 l 151 686 l 151 900 l 321 900 l 321 686 l 454 686 l 454 544 l 321 544 l 321 0 l 278 0 l 244 -64 q 290 -57 268 -57 q 369 -85 336 -57 q 401 -165 401 -112 q 357 -262 401 -228 q 246 -296 313 -296 q 143 -272 186 -296 z "},"Ť":{"ha":819,"x_min":24,"x_max":796,"o":"m 322 1088 l 197 1304 l 331 1304 l 410 1167 l 489 1304 l 621 1304 l 496 1088 l 322 1088 m 24 851 l 24 1015 l 796 1015 l 796 851 l 499 851 l 499 0 l 321 0 l 321 851 l 24 851 z "},"ť":{"ha":472,"x_min":19,"x_max":511,"o":"m 371 765 l 371 1017 l 511 1017 l 474 765 l 371 765 m 321 0 l 151 0 l 151 544 l 19 544 l 19 686 l 151 686 l 151 900 l 321 900 l 321 686 l 454 686 l 454 544 l 321 544 l 321 0 z "},"Ŧ":{"ha":819,"x_min":24,"x_max":796,"o":"m 171 450 l 171 594 l 321 594 l 321 851 l 24 851 l 24 1015 l 796 1015 l 796 851 l 499 851 l 499 594 l 649 594 l 649 450 l 499 450 l 499 0 l 321 0 l 321 450 l 171 450 z "},"ŧ":{"ha":472,"x_min":19,"x_max":454,"o":"m 321 0 l 151 0 l 151 290 l 53 290 l 53 421 l 151 421 l 151 544 l 19 544 l 19 686 l 151 686 l 151 900 l 321 900 l 321 686 l 454 686 l 454 544 l 321 544 l 321 421 l 419 421 l 419 290 l 321 290 l 321 0 z "},"Ũ":{"ha":1015,"x_min":106,"x_max":910,"o":"m 371 1099 l 271 1099 q 297 1241 261 1188 q 399 1294 332 1294 q 510 1253 449 1294 q 596 1213 571 1213 q 644 1294 644 1213 l 744 1294 q 717 1149 753 1199 q 613 1099 682 1099 q 498 1140 558 1099 q 418 1181 438 1181 q 371 1099 371 1181 m 106 371 l 106 1015 l 283 1015 l 283 382 q 341 214 283 272 q 507 156 399 156 q 674 215 615 156 q 732 382 732 274 l 732 1015 l 910 1015 l 910 371 q 801 88 910 193 q 507 -17 692 -17 q 214 88 322 -17 q 106 371 106 192 z "},"ũ":{"ha":810,"x_min":79,"x_max":722,"o":"m 263 779 l 163 779 q 188 922 153 868 q 290 975 224 975 q 401 934 340 975 q 488 893 463 893 q 536 975 536 893 l 636 975 q 609 829 644 879 q 504 779 574 779 q 390 820 450 779 q 310 861 331 861 q 263 779 263 861 m 553 686 l 722 686 l 722 0 l 565 0 l 553 92 q 460 13 521 43 q 331 -18 399 -18 q 146 56 213 -18 q 79 257 79 131 l 79 686 l 249 686 l 249 317 q 394 133 249 133 q 553 326 553 133 l 553 686 z "},"Ū":{"ha":1015,"x_min":106,"x_max":910,"o":"m 322 1139 l 322 1258 l 694 1258 l 694 1139 l 322 1139 m 106 371 l 106 1015 l 283 1015 l 283 382 q 341 214 283 272 q 507 156 399 156 q 674 215 615 156 q 732 382 732 274 l 732 1015 l 910 1015 l 910 371 q 801 88 910 193 q 507 -17 692 -17 q 214 88 322 -17 q 106 371 106 192 z "},"ū":{"ha":810,"x_min":79,"x_max":722,"o":"m 214 819 l 214 939 l 586 939 l 586 819 l 214 819 m 553 686 l 722 686 l 722 0 l 565 0 l 553 92 q 460 13 521 43 q 331 -18 399 -18 q 146 56 213 -18 q 79 257 79 131 l 79 686 l 249 686 l 249 317 q 394 133 249 133 q 553 326 553 133 l 553 686 z "},"Ů":{"ha":1015,"x_min":106,"x_max":910,"o":"m 508 1071 q 380 1121 431 1071 q 329 1247 329 1171 q 381 1374 329 1324 q 508 1425 432 1425 q 635 1374 583 1425 q 686 1247 686 1322 q 635 1122 686 1172 q 508 1071 585 1071 m 508 1163 q 567 1186 544 1163 q 589 1250 589 1210 q 566 1310 589 1286 q 508 1333 543 1333 q 449 1310 472 1333 q 426 1250 426 1288 q 449 1186 426 1210 q 508 1163 471 1163 m 106 371 l 106 1015 l 283 1015 l 283 382 q 341 214 283 272 q 507 156 399 156 q 674 215 615 156 q 732 382 732 274 l 732 1015 l 910 1015 l 910 371 q 801 88 910 193 q 507 -17 692 -17 q 214 88 322 -17 q 106 371 106 192 z "},"ů":{"ha":810,"x_min":79,"x_max":722,"o":"m 400 751 q 272 801 322 751 q 221 928 221 851 q 272 1055 221 1004 q 400 1106 324 1106 q 527 1054 476 1106 q 578 928 578 1003 q 527 802 578 853 q 400 751 476 751 m 400 843 q 458 867 436 843 q 481 931 481 890 q 458 990 481 967 q 400 1014 435 1014 q 341 991 364 1014 q 318 931 318 968 q 340 867 318 890 q 400 843 363 843 m 553 686 l 722 686 l 722 0 l 565 0 l 553 92 q 460 13 521 43 q 331 -18 399 -18 q 146 56 213 -18 q 79 257 79 131 l 79 686 l 249 686 l 249 317 q 394 133 249 133 q 553 326 553 133 l 553 686 z "},"Ű":{"ha":1015,"x_min":106,"x_max":910,"o":"m 604 1293 l 469 1088 l 350 1088 l 463 1293 l 604 1293 m 818 1293 l 676 1088 l 556 1088 l 675 1293 l 818 1293 m 106 371 l 106 1015 l 283 1015 l 283 382 q 341 214 283 272 q 507 156 399 156 q 674 215 615 156 q 732 382 732 274 l 732 1015 l 910 1015 l 910 371 q 801 88 910 193 q 507 -17 692 -17 q 214 88 322 -17 q 106 371 106 192 z "},"ű":{"ha":810,"x_min":79,"x_max":722,"o":"m 496 974 l 361 768 l 242 768 l 354 974 l 496 974 m 710 974 l 568 768 l 447 768 l 567 974 l 710 974 m 553 686 l 722 686 l 722 0 l 565 0 l 553 92 q 460 13 521 43 q 331 -18 399 -18 q 146 56 213 -18 q 79 257 79 131 l 79 686 l 249 686 l 249 317 q 394 133 249 133 q 553 326 553 133 l 553 686 z "},"Ų":{"ha":1015,"x_min":106,"x_max":910,"o":"m 106 371 l 106 1015 l 283 1015 l 283 382 q 341 214 283 272 q 507 156 399 156 q 674 215 615 156 q 732 382 732 274 l 732 1015 l 910 1015 l 910 371 q 837 128 910 226 q 635 -1 764 31 q 565 -48 589 -19 q 540 -104 540 -76 q 555 -142 540 -128 q 594 -156 569 -156 q 632 -147 614 -156 l 632 -260 q 563 -272 606 -272 q 463 -235 500 -272 q 425 -143 425 -197 q 501 -17 425 -64 q 212 90 318 -14 q 106 371 106 193 z "},"ų":{"ha":810,"x_min":79,"x_max":722,"o":"m 618 0 l 565 0 l 553 92 q 460 13 521 43 q 331 -18 399 -18 q 146 56 213 -18 q 79 257 79 131 l 79 686 l 249 686 l 249 317 q 394 133 249 133 q 553 326 553 133 l 553 686 l 722 686 l 722 0 l 721 0 q 647 -47 672 -18 q 622 -104 622 -75 q 637 -142 622 -128 q 676 -156 651 -156 q 714 -147 694 -156 l 714 -260 q 644 -272 688 -272 q 544 -235 582 -272 q 507 -143 507 -197 q 535 -60 507 -99 q 618 0 564 -21 z "},"Ŵ":{"ha":1438,"x_min":21,"x_max":1417,"o":"m 639 1088 l 507 1088 l 632 1304 l 806 1304 l 931 1088 l 799 1088 l 719 1225 l 639 1088 m 324 0 l 21 1015 l 206 1015 l 367 479 q 413 278 397 371 q 463 479 431 376 l 622 1015 l 818 1015 l 975 479 q 1024 278 1003 382 q 1072 478 1049 396 l 1236 1015 l 1417 1015 l 1108 0 l 936 0 l 719 739 l 499 0 l 324 0 z "},"ŵ":{"ha":1107,"x_min":17,"x_max":1092,"o":"m 475 768 l 343 768 l 468 985 l 642 985 l 767 768 l 635 768 l 556 906 l 475 768 m 239 0 l 17 686 l 193 686 l 283 392 q 325 214 306 313 q 372 392 340 292 l 467 686 l 639 686 l 731 392 q 775 215 763 288 q 821 392 790 288 l 913 686 l 1092 686 l 854 0 l 696 0 l 601 297 q 553 488 564 421 q 499 294 540 428 l 404 0 l 239 0 z "},"Ŷ":{"ha":890,"x_min":14,"x_max":876,"o":"m 368 1088 l 235 1088 l 361 1304 l 535 1304 l 660 1088 l 526 1088 l 447 1225 l 368 1088 m 357 400 l 14 1015 l 213 1015 l 413 646 q 449 571 426 619 q 464 602 453 578 q 485 646 475 626 l 683 1015 l 876 1015 l 535 400 l 535 0 l 357 0 l 357 400 z "},"ŷ":{"ha":735,"x_min":10,"x_max":726,"o":"m 294 768 l 163 768 l 288 985 l 461 985 l 586 768 l 454 768 l 375 906 l 294 768 m 28 -318 l 28 -176 l 129 -176 q 215 -157 183 -176 q 267 -81 246 -137 l 286 -29 l 10 686 l 189 686 l 365 186 l 551 686 l 726 686 l 390 -153 q 295 -291 351 -249 q 154 -333 239 -333 q 28 -318 86 -333 z "},"Ÿ":{"ha":890,"x_min":14,"x_max":876,"o":"m 324 1104 q 258 1131 285 1104 q 232 1197 232 1158 q 259 1263 232 1235 q 324 1290 286 1290 q 389 1263 361 1290 q 417 1197 417 1235 q 389 1131 417 1158 q 324 1104 361 1104 m 571 1104 q 506 1131 532 1104 q 479 1197 479 1158 q 506 1263 479 1235 q 571 1290 533 1290 q 636 1263 608 1290 q 664 1197 664 1235 q 636 1131 664 1158 q 571 1104 608 1104 m 357 400 l 14 1015 l 213 1015 l 413 646 q 449 571 426 619 q 464 602 453 578 q 485 646 475 626 l 683 1015 l 876 1015 l 535 400 l 535 0 l 357 0 l 357 400 z "},"Ź":{"ha":817,"x_min":43,"x_max":774,"o":"m 596 1293 l 460 1088 l 335 1088 l 439 1293 l 596 1293 m 774 0 l 43 0 l 43 165 l 544 851 l 54 851 l 54 1015 l 765 1015 l 765 857 l 260 164 l 774 164 l 774 0 z "},"ź":{"ha":657,"x_min":51,"x_max":606,"o":"m 528 974 l 392 768 l 267 768 l 371 974 l 528 974 m 606 0 l 51 0 l 51 139 l 393 544 l 51 544 l 51 686 l 606 686 l 606 546 l 258 142 l 606 142 l 606 0 z "},"Ż":{"ha":817,"x_min":43,"x_max":774,"o":"m 465 1133 q 450 1118 465 1133 q 396 1104 436 1104 q 328 1133 356 1104 q 300 1201 300 1161 q 328 1270 300 1242 q 396 1299 357 1299 q 464 1269 435 1299 q 493 1201 493 1240 q 465 1133 493 1161 m 774 0 l 43 0 l 43 165 l 544 851 l 54 851 l 54 1015 l 765 1015 l 765 857 l 260 164 l 774 164 l 774 0 z "},"ż":{"ha":657,"x_min":51,"x_max":606,"o":"m 328 785 q 260 813 288 785 q 232 882 232 842 q 260 951 232 922 q 328 979 289 979 q 396 950 367 979 q 425 882 425 921 q 396 813 425 842 q 328 785 367 785 m 606 0 l 51 0 l 51 139 l 393 544 l 51 544 l 51 686 l 606 686 l 606 546 l 258 142 l 606 142 l 606 0 z "},"Ž":{"ha":817,"x_min":43,"x_max":774,"o":"m 310 1088 l 185 1304 l 317 1304 l 397 1167 l 476 1304 l 608 1304 l 483 1088 l 310 1088 m 774 0 l 43 0 l 43 165 l 544 851 l 54 851 l 54 1015 l 765 1015 l 765 857 l 260 164 l 774 164 l 774 0 z "},"ž":{"ha":657,"x_min":51,"x_max":606,"o":"m 242 768 l 117 985 l 249 985 l 329 847 l 408 985 l 540 985 l 415 768 l 242 768 m 606 0 l 51 0 l 51 139 l 393 544 l 51 544 l 51 686 l 606 686 l 606 546 l 258 142 l 606 142 l 606 0 z "},"ƒ":{"ha":868,"x_min":67,"x_max":793,"o":"m 101 564 l 356 564 l 383 782 q 472 963 399 897 q 664 1028 544 1028 l 793 1028 l 793 865 l 654 865 q 563 772 574 865 l 536 564 l 785 564 l 785 406 l 515 406 l 458 -32 q 378 -196 444 -140 q 185 -251 313 -251 l 67 -251 l 67 -89 l 188 -89 q 250 -68 225 -89 q 281 -8 275 -47 l 335 406 l 101 406 l 101 564 z "},"Ǻ":{"ha":946,"x_min":15,"x_max":931,"o":"m 675 1514 l 540 1308 l 414 1308 l 518 1514 l 675 1514 m 200 0 l 15 0 l 363 963 q 296 1103 296 1011 q 347 1230 296 1179 q 474 1281 399 1281 q 601 1229 550 1281 q 653 1103 653 1178 q 583 961 653 1013 l 931 0 l 743 0 l 661 235 l 282 235 l 200 0 m 474 1018 q 533 1042 511 1018 q 556 1106 556 1065 q 533 1165 556 1142 q 474 1189 510 1189 q 415 1166 438 1189 q 393 1106 393 1143 q 415 1042 393 1065 q 474 1018 438 1018 m 450 713 l 335 385 l 610 385 l 493 713 q 472 790 475 769 q 450 713 464 753 z "},"ǻ":{"ha":761,"x_min":57,"x_max":682,"o":"m 574 1175 l 447 992 l 331 992 l 428 1175 l 574 1175 m 292 -18 q 120 40 183 -18 q 57 196 57 99 q 123 347 57 290 q 311 414 189 404 l 517 429 l 517 444 q 375 575 517 575 q 260 545 300 575 q 219 461 219 515 l 75 461 q 119 599 75 540 q 242 685 163 657 q 208 792 208 732 q 260 918 208 867 q 386 969 311 969 q 514 918 463 969 q 565 792 565 867 q 528 681 565 729 q 682 417 682 617 l 682 0 l 533 0 l 521 101 q 435 15 499 49 q 292 -18 372 -18 m 386 707 q 446 731 424 707 q 468 793 468 754 q 445 853 468 829 q 386 878 422 878 q 328 854 350 878 q 306 793 306 831 q 328 731 306 754 q 386 707 350 707 m 347 110 q 472 154 426 110 q 518 278 518 199 l 518 314 l 375 303 q 229 203 229 289 q 347 110 229 110 z "},"Ǽ":{"ha":1306,"x_min":8,"x_max":1226,"o":"m 985 1293 l 850 1088 l 724 1088 l 828 1293 l 985 1293 m 8 0 l 417 1015 l 1226 1015 l 1226 851 l 774 851 l 774 590 l 1179 590 l 1179 433 l 774 433 l 774 164 l 1226 164 l 1226 0 l 597 0 l 597 253 l 306 253 l 208 0 l 8 0 m 363 403 l 597 403 l 597 851 l 536 851 l 363 403 z "},"ǽ":{"ha":1235,"x_min":57,"x_max":1188,"o":"m 801 974 l 665 768 l 540 768 l 644 974 l 801 974 m 57 197 q 125 349 57 296 q 310 406 193 403 l 517 411 l 517 444 q 371 575 517 575 q 259 545 299 575 q 219 461 219 515 l 75 461 q 158 639 75 571 q 374 707 240 707 q 608 606 540 707 q 850 707 699 707 q 1096 610 1006 707 q 1186 356 1186 514 l 1186 304 l 668 303 q 858 121 690 121 q 974 148 929 121 q 1031 222 1018 175 l 1188 222 q 1078 47 1165 111 q 856 -18 990 -18 q 575 128 668 -18 q 468 20 539 58 q 303 -18 397 -18 q 122 40 186 -18 q 57 197 57 97 m 974 524 q 951 546 974 524 q 851 568 929 568 q 728 526 774 568 q 669 410 682 483 l 1018 410 q 974 524 1018 481 m 229 206 q 261 135 229 160 q 349 110 293 110 q 472 152 426 110 q 518 265 518 194 l 518 304 l 361 299 q 260 275 292 296 q 229 206 229 254 z "},"Ǿ":{"ha":1092,"x_min":54,"x_max":1039,"o":"m 735 1279 l 599 1074 l 474 1074 l 578 1279 l 735 1279 m 1039 508 q 901 130 1039 276 q 544 -17 763 -17 q 288 51 399 -17 l 250 1 l 81 1 l 183 138 q 54 508 54 282 q 191 887 54 740 q 546 1033 328 1033 q 808 963 694 1033 l 850 1017 l 1013 1017 l 908 879 q 1039 508 1039 733 m 240 508 q 297 286 240 375 l 703 822 q 546 863 635 863 q 323 767 406 863 q 240 508 240 671 m 851 508 q 796 729 851 639 l 393 192 q 546 154 461 154 q 768 251 685 154 q 851 508 851 347 z "},"ǿ":{"ha":828,"x_min":47,"x_max":781,"o":"m 614 974 l 478 768 l 353 768 l 457 974 l 614 974 m 47 344 q 151 605 47 504 q 414 706 254 706 q 554 682 488 706 l 594 747 l 742 747 l 663 618 q 781 344 781 515 q 677 84 781 185 q 414 -17 574 -17 q 283 4 343 -17 l 239 -69 l 86 -69 l 171 67 q 47 344 47 168 m 217 344 q 258 208 217 263 l 469 547 q 414 554 442 554 q 272 496 326 554 q 217 344 217 438 m 611 344 q 574 475 611 419 l 368 139 q 414 135 389 135 q 556 193 501 135 q 611 344 611 251 z "},"Ș":{"ha":822,"x_min":40,"x_max":774,"o":"m 54 732 q 155 949 54 865 q 415 1033 256 1033 q 661 953 569 1033 q 757 736 753 874 l 579 736 q 532 838 576 801 q 413 875 488 875 q 281 838 331 875 q 232 738 232 801 q 356 606 232 633 l 515 571 q 774 293 774 515 q 672 67 774 151 q 403 -18 571 -18 q 142 63 240 -18 q 40 279 43 143 l 218 279 q 268 178 219 215 q 403 142 317 142 q 544 178 492 142 q 596 278 596 214 q 478 404 596 379 l 317 440 q 54 732 54 497 m 493 -157 q 448 -277 493 -232 q 326 -312 403 -322 l 326 -257 q 421 -203 417 -265 q 389 -211 408 -211 q 334 -188 356 -211 q 313 -132 313 -165 q 337 -72 313 -94 q 400 -49 361 -49 q 468 -78 443 -49 q 493 -157 493 -107 z "},"ș":{"ha":643,"x_min":35,"x_max":601,"o":"m 35 208 l 196 208 q 229 137 197 163 q 319 111 261 111 q 410 133 378 111 q 442 193 442 156 q 363 267 442 249 l 239 296 q 100 363 144 317 q 56 492 56 410 q 131 649 56 592 q 328 707 207 707 q 515 646 443 707 q 588 485 586 585 l 426 485 q 397 555 425 529 q 321 581 369 581 q 243 559 271 581 q 215 499 215 538 q 304 421 215 442 l 428 392 q 559 328 517 371 q 601 207 601 285 q 522 43 601 104 q 314 -18 443 -18 q 110 44 186 -18 q 35 208 35 107 m 404 -157 q 358 -277 404 -232 q 236 -312 313 -322 l 236 -257 q 332 -204 325 -265 q 300 -211 315 -211 q 245 -188 267 -211 q 224 -132 224 -165 q 248 -72 224 -94 q 311 -49 272 -49 q 379 -78 354 -49 q 404 -157 404 -107 z "},"Ț":{"ha":819,"x_min":24,"x_max":796,"o":"m 24 851 l 24 1015 l 796 1015 l 796 851 l 499 851 l 499 0 l 321 0 l 321 851 l 24 851 m 497 -157 q 452 -277 497 -232 q 331 -312 407 -322 l 331 -257 q 426 -203 422 -265 q 393 -211 411 -211 q 338 -188 360 -211 q 317 -132 317 -165 q 341 -72 317 -94 q 406 -49 365 -49 q 472 -78 447 -49 q 497 -157 497 -107 z "},"ț":{"ha":472,"x_min":19,"x_max":454,"o":"m 321 0 l 151 0 l 151 544 l 19 544 l 19 686 l 151 686 l 151 900 l 321 900 l 321 686 l 454 686 l 454 544 l 321 544 l 321 0 m 331 -157 q 285 -277 331 -232 q 163 -312 239 -322 l 163 -257 q 258 -203 254 -265 q 226 -211 244 -211 q 172 -188 193 -211 q 150 -132 150 -165 q 174 -72 150 -94 q 238 -49 199 -49 q 305 -78 279 -49 q 331 -157 331 -107 z "},"ȷ":{"ha":344,"x_min":-76,"x_max":257,"o":"m -76 -322 l -49 -172 q 10 -181 -21 -181 q 70 -156 53 -181 q 88 -78 88 -132 l 88 686 l 257 686 l 257 -97 q 196 -273 257 -208 q 25 -337 135 -337 q -76 -322 -22 -337 z "},"ˆ":{"ha":536,"x_min":56,"x_max":481,"o":"m 189 1068 l 56 1068 l 181 1285 l 354 1285 l 481 1068 l 347 1068 l 268 1206 l 189 1068 z "},"ˇ":{"ha":536,"x_min":56,"x_max":481,"o":"m 181 1068 l 56 1285 l 189 1285 l 268 1147 l 347 1285 l 481 1285 l 354 1068 l 181 1068 z "},"˘":{"ha":585,"x_min":75,"x_max":510,"o":"m 386 1276 l 510 1276 q 451 1116 510 1175 q 293 1057 392 1057 q 133 1116 192 1057 q 75 1276 75 1175 l 199 1276 q 293 1172 199 1172 q 362 1200 338 1172 q 386 1276 386 1228 z "},"˙":{"ha":314,"x_min":60,"x_max":254,"o":"m 226 1113 q 211 1099 226 1113 q 157 1085 197 1085 q 88 1113 117 1085 q 60 1182 60 1142 q 88 1251 60 1222 q 157 1279 117 1279 q 225 1250 196 1279 q 254 1182 254 1221 q 226 1113 254 1142 z "},"˚":{"ha":463,"x_min":53,"x_max":410,"o":"m 231 1051 q 103 1101 153 1051 q 53 1228 53 1151 q 104 1355 53 1304 q 231 1406 156 1406 q 358 1354 307 1406 q 410 1228 410 1303 q 358 1102 410 1153 q 231 1051 307 1051 m 231 1143 q 290 1167 268 1143 q 313 1231 313 1190 q 290 1290 313 1267 q 231 1314 267 1314 q 172 1291 194 1314 q 150 1231 150 1268 q 172 1167 150 1190 q 231 1143 194 1143 z "},"˛":{"ha":325,"x_min":61,"x_max":275,"o":"m 171 0 l 275 0 q 176 -104 176 -36 q 191 -142 176 -128 q 231 -156 206 -156 q 268 -147 247 -156 l 268 -260 q 199 -272 242 -272 q 99 -235 136 -272 q 61 -143 61 -197 q 89 -60 61 -99 q 171 0 117 -21 z "},"˜":{"ha":597,"x_min":63,"x_max":536,"o":"m 163 1079 l 63 1079 q 88 1222 53 1168 q 190 1275 124 1275 q 301 1234 240 1275 q 388 1193 363 1193 q 436 1275 436 1193 l 536 1275 q 509 1129 544 1179 q 404 1079 474 1079 q 290 1120 350 1079 q 210 1161 229 1161 q 163 1079 163 1161 z "},"˝":{"ha":610,"x_min":57,"x_max":525,"o":"m 311 1274 l 176 1068 l 57 1068 l 169 1274 l 311 1274 m 525 1274 l 383 1068 l 263 1068 l 382 1274 l 525 1274 z "},"̀":{"ha":383,"x_min":65,"x_max":326,"o":"m 326 1068 l 200 1068 l 65 1275 l 222 1275 l 326 1068 z "},"́":{"ha":385,"x_min":58,"x_max":319,"o":"m 319 1274 l 183 1068 l 58 1068 l 163 1274 l 319 1274 z "},"̂":{"ha":536,"x_min":56,"x_max":481,"o":"m 189 1068 l 56 1068 l 181 1285 l 354 1285 l 481 1068 l 347 1068 l 268 1206 l 189 1068 z "},"̃":{"ha":597,"x_min":63,"x_max":536,"o":"m 163 1079 l 63 1079 q 88 1222 53 1168 q 190 1275 124 1275 q 301 1234 240 1275 q 388 1193 363 1193 q 436 1275 436 1193 l 536 1275 q 509 1129 544 1179 q 404 1079 474 1079 q 290 1120 350 1079 q 210 1161 229 1161 q 163 1079 163 1161 z "},"̄":{"ha":539,"x_min":83,"x_max":456,"o":"m 83 1119 l 83 1238 l 456 1238 l 456 1119 l 83 1119 z "},"̆":{"ha":585,"x_min":75,"x_max":510,"o":"m 386 1276 l 510 1276 q 451 1116 510 1175 q 293 1057 392 1057 q 133 1116 192 1057 q 75 1276 75 1175 l 199 1276 q 293 1172 199 1172 q 362 1200 338 1172 q 386 1276 386 1228 z "},"̇":{"ha":314,"x_min":60,"x_max":254,"o":"m 226 1113 q 211 1099 226 1113 q 157 1085 197 1085 q 88 1113 117 1085 q 60 1182 60 1142 q 88 1251 60 1222 q 157 1279 117 1279 q 225 1250 196 1279 q 254 1182 254 1221 q 226 1113 254 1142 z "},"̈":{"ha":586,"x_min":78,"x_max":510,"o":"m 169 1085 q 104 1112 131 1085 q 78 1178 78 1139 q 105 1243 78 1215 q 169 1271 132 1271 q 235 1243 207 1271 q 263 1178 263 1215 q 235 1112 263 1139 q 169 1085 207 1085 m 417 1085 q 351 1112 378 1085 q 325 1178 325 1139 q 352 1243 325 1215 q 417 1271 379 1271 q 482 1243 454 1271 q 510 1178 510 1215 q 482 1112 510 1139 q 417 1085 454 1085 z "},"̊":{"ha":463,"x_min":53,"x_max":410,"o":"m 231 1051 q 103 1101 153 1051 q 53 1228 53 1151 q 104 1355 53 1304 q 231 1406 156 1406 q 358 1354 307 1406 q 410 1228 410 1303 q 358 1102 410 1153 q 231 1051 307 1051 m 231 1143 q 290 1167 268 1143 q 313 1231 313 1190 q 290 1290 313 1267 q 231 1314 267 1314 q 172 1291 194 1314 q 150 1231 150 1268 q 172 1167 150 1190 q 231 1143 194 1143 z "},"̋":{"ha":610,"x_min":57,"x_max":525,"o":"m 311 1274 l 176 1068 l 57 1068 l 169 1274 l 311 1274 m 525 1274 l 383 1068 l 263 1068 l 382 1274 l 525 1274 z "},"̌":{"ha":536,"x_min":56,"x_max":481,"o":"m 181 1068 l 56 1285 l 189 1285 l 268 1147 l 347 1285 l 481 1285 l 354 1068 l 181 1068 z "},"̒":{"ha":294,"x_min":57,"x_max":238,"o":"m 238 1167 q 213 1106 238 1129 q 150 1082 189 1082 q 83 1111 108 1082 q 57 1190 57 1140 q 102 1311 57 1267 q 225 1347 147 1356 l 225 1290 q 131 1238 135 1299 q 161 1244 142 1244 q 216 1222 194 1244 q 238 1167 238 1200 z "},"̦":{"ha":294,"x_min":56,"x_max":236,"o":"m 236 -144 q 190 -265 236 -219 q 68 -300 144 -310 l 68 -243 q 163 -190 158 -253 q 132 -197 153 -197 q 77 -175 99 -197 q 56 -119 56 -153 q 80 -58 56 -82 q 143 -35 104 -35 q 210 -65 185 -35 q 236 -144 236 -94 z "},"̧":{"ha":360,"x_min":46,"x_max":304,"o":"m 46 -272 l 46 -194 q 139 -219 99 -219 q 211 -167 211 -219 q 153 -119 211 -119 q 85 -132 118 -119 l 67 -85 l 133 53 l 185 51 l 185 8 l 147 -64 q 193 -57 171 -57 q 272 -85 239 -57 q 304 -165 304 -112 q 260 -262 304 -228 q 149 -296 217 -296 q 46 -272 89 -296 z "},"̵":{"ha":808,"x_min":39,"x_max":514,"o":"m 39 894 l 514 894 l 514 792 l 39 792 l 39 894 z "},"̷":{"ha":371,"x_min":28,"x_max":349,"o":"m 28 419 l 28 542 l 349 694 l 349 572 l 28 419 z "},"̸":{"ha":767,"x_min":56,"x_max":711,"o":"m 711 757 l 208 -60 l 56 -60 l 564 757 l 711 757 z "},"Ω":{"ha":913,"x_min":88,"x_max":825,"o":"m 407 0 l 88 0 l 88 128 l 210 128 q 101 379 101 232 q 201 613 101 518 q 458 707 301 707 q 715 612 617 707 q 813 381 813 517 q 701 128 813 232 l 825 128 l 825 0 l 507 0 l 507 128 q 624 223 583 160 q 665 363 665 286 q 606 508 665 453 q 457 564 546 564 q 308 508 368 564 q 249 363 249 453 q 292 218 249 282 q 407 128 335 154 l 407 0 z "},"π":{"ha":893,"x_min":21,"x_max":849,"o":"m 147 0 l 147 547 l 21 547 l 21 686 l 849 686 l 849 547 l 713 547 l 713 213 q 782 147 713 147 l 849 146 l 849 7 q 718 -4 788 -4 q 585 40 628 -4 q 543 181 543 83 l 543 547 l 317 547 l 317 0 l 147 0 z "},"Ẁ":{"ha":1438,"x_min":21,"x_max":1417,"o":"m 781 1088 l 654 1088 l 519 1294 l 676 1294 l 781 1088 m 324 0 l 21 1015 l 206 1015 l 367 479 q 413 278 397 371 q 463 479 431 376 l 622 1015 l 818 1015 l 975 479 q 1024 278 1003 382 q 1072 478 1049 396 l 1236 1015 l 1417 1015 l 1108 0 l 936 0 l 719 739 l 499 0 l 324 0 z "},"ẁ":{"ha":1107,"x_min":17,"x_max":1092,"o":"m 617 768 l 490 768 l 356 975 l 513 975 l 617 768 m 239 0 l 17 686 l 193 686 l 283 392 q 325 214 306 313 q 372 392 340 292 l 467 686 l 639 686 l 731 392 q 775 215 763 288 q 821 392 790 288 l 913 686 l 1092 686 l 854 0 l 696 0 l 601 297 q 553 488 564 421 q 499 294 540 428 l 404 0 l 239 0 z "},"Ẃ":{"ha":1438,"x_min":21,"x_max":1417,"o":"m 918 1293 l 782 1088 l 657 1088 l 761 1293 l 918 1293 m 324 0 l 21 1015 l 206 1015 l 367 479 q 413 278 397 371 q 463 479 431 376 l 622 1015 l 818 1015 l 975 479 q 1024 278 1003 382 q 1072 478 1049 396 l 1236 1015 l 1417 1015 l 1108 0 l 936 0 l 719 739 l 499 0 l 324 0 z "},"ẃ":{"ha":1107,"x_min":17,"x_max":1092,"o":"m 754 974 l 618 768 l 493 768 l 597 974 l 754 974 m 239 0 l 17 686 l 193 686 l 283 392 q 325 214 306 313 q 372 392 340 292 l 467 686 l 639 686 l 731 392 q 775 215 763 288 q 821 392 790 288 l 913 686 l 1092 686 l 854 0 l 696 0 l 601 297 q 553 488 564 421 q 499 294 540 428 l 404 0 l 239 0 z "},"Ẅ":{"ha":1438,"x_min":21,"x_max":1417,"o":"m 596 1104 q 530 1131 557 1104 q 503 1197 503 1158 q 530 1263 503 1235 q 596 1290 557 1290 q 660 1263 633 1290 q 688 1197 688 1235 q 660 1131 688 1158 q 596 1104 633 1104 m 843 1104 q 777 1131 804 1104 q 750 1197 750 1158 q 777 1263 750 1235 q 843 1290 804 1290 q 908 1263 881 1290 q 935 1197 935 1235 q 908 1131 935 1158 q 843 1104 881 1104 m 324 0 l 21 1015 l 206 1015 l 367 479 q 413 278 397 371 q 463 479 431 376 l 622 1015 l 818 1015 l 975 479 q 1024 278 1003 382 q 1072 478 1049 396 l 1236 1015 l 1417 1015 l 1108 0 l 936 0 l 719 739 l 499 0 l 324 0 z "},"ẅ":{"ha":1107,"x_min":17,"x_max":1092,"o":"m 432 785 q 366 812 393 785 q 339 878 339 839 q 366 943 339 915 q 432 971 393 971 q 497 943 469 971 q 524 878 524 915 q 497 812 524 839 q 432 785 469 785 m 679 785 q 613 812 640 785 q 586 878 586 839 q 613 943 586 915 q 679 971 640 971 q 744 943 717 971 q 771 878 771 915 q 744 812 771 839 q 679 785 717 785 m 239 0 l 17 686 l 193 686 l 283 392 q 325 214 306 313 q 372 392 340 292 l 467 686 l 639 686 l 731 392 q 775 215 763 288 q 821 392 790 288 l 913 686 l 1092 686 l 854 0 l 696 0 l 601 297 q 553 488 564 421 q 499 294 540 428 l 404 0 l 239 0 z "},"Ỳ":{"ha":890,"x_min":14,"x_max":876,"o":"m 508 1088 l 383 1088 l 249 1294 l 406 1294 l 508 1088 m 357 400 l 14 1015 l 213 1015 l 413 646 q 449 571 426 619 q 464 602 453 578 q 485 646 475 626 l 683 1015 l 876 1015 l 535 400 l 535 0 l 357 0 l 357 400 z "},"ỳ":{"ha":735,"x_min":10,"x_max":726,"o":"m 436 768 l 310 768 l 175 975 l 332 975 l 436 768 m 28 -318 l 28 -176 l 129 -176 q 215 -157 183 -176 q 267 -81 246 -137 l 286 -29 l 10 686 l 189 686 l 365 186 l 551 686 l 726 686 l 390 -153 q 295 -291 351 -249 q 154 -333 239 -333 q 28 -318 86 -333 z "},"–":{"ha":1357,"x_min":96,"x_max":1263,"o":"m 96 294 l 96 444 l 1263 444 l 1263 294 l 96 294 z "},"—":{"ha":1682,"x_min":96,"x_max":1588,"o":"m 96 294 l 96 444 l 1588 444 l 1588 294 l 96 294 z "},"‘":{"ha":390,"x_min":88,"x_max":303,"o":"m 303 782 q 274 707 303 736 q 200 678 246 678 q 119 715 150 678 q 88 814 88 753 q 140 963 88 901 q 276 1035 193 1024 l 276 968 q 203 933 231 960 q 175 871 175 907 q 214 878 193 878 q 278 852 253 878 q 303 782 303 826 z "},"’":{"ha":390,"x_min":88,"x_max":303,"o":"m 303 899 q 250 750 303 811 q 114 678 197 689 l 114 744 q 188 779 160 753 q 217 842 217 806 q 178 835 199 835 q 113 860 139 835 q 88 931 88 886 q 116 1006 88 976 q 190 1035 144 1035 q 272 997 240 1035 q 303 899 303 960 z "},"‚":{"ha":390,"x_min":88,"x_max":303,"o":"m 303 51 q 250 -97 303 -36 q 114 -169 197 -158 l 114 -101 q 188 -67 160 -93 q 217 -4 217 -40 q 178 -12 200 -12 q 113 14 139 -12 q 88 83 88 40 q 116 158 88 129 q 190 188 144 188 q 272 150 240 188 q 303 51 303 113 z "},"“":{"ha":665,"x_min":88,"x_max":578,"o":"m 303 782 q 274 707 303 736 q 200 678 246 678 q 119 715 150 678 q 88 814 88 753 q 140 963 88 901 q 276 1035 193 1024 l 276 968 q 203 933 231 960 q 175 871 175 907 q 214 878 193 878 q 278 852 253 878 q 303 782 303 826 m 578 782 q 549 707 578 736 q 475 678 521 678 q 394 715 425 678 q 363 814 363 753 q 415 963 363 901 q 551 1035 468 1024 l 551 968 q 477 933 506 960 q 449 869 449 907 q 488 878 465 878 q 552 851 526 878 q 578 782 578 825 z "},"”":{"ha":665,"x_min":88,"x_max":578,"o":"m 303 899 q 250 750 303 811 q 114 678 197 689 l 114 744 q 188 779 160 753 q 217 842 217 806 q 178 835 199 835 q 113 860 139 835 q 88 931 88 886 q 116 1006 88 976 q 190 1035 144 1035 q 272 997 240 1035 q 303 899 303 960 m 578 899 q 525 750 578 811 q 389 678 472 689 l 389 744 q 463 779 435 753 q 490 842 490 806 q 451 835 472 835 q 388 860 413 835 q 363 931 363 886 q 391 1006 363 976 q 465 1035 419 1035 q 547 997 515 1035 q 578 899 578 960 z "},"„":{"ha":665,"x_min":88,"x_max":578,"o":"m 303 51 q 250 -97 303 -36 q 114 -169 197 -158 l 114 -101 q 188 -67 160 -93 q 217 -4 217 -40 q 178 -12 200 -12 q 113 14 139 -12 q 88 83 88 40 q 116 158 88 129 q 190 188 144 188 q 272 150 240 188 q 303 51 303 113 m 578 51 q 525 -97 578 -36 q 389 -169 472 -158 l 389 -101 q 463 -67 435 -93 q 490 -4 490 -42 q 451 -12 474 -12 q 388 13 413 -12 q 363 83 363 39 q 391 158 363 129 q 465 188 419 188 q 547 150 515 188 q 578 51 578 113 z "},"†":{"ha":464,"x_min":31,"x_max":433,"o":"m 179 396 l 179 776 l 31 776 l 31 876 l 179 876 l 179 1015 l 283 1015 l 283 876 l 433 876 l 433 776 l 283 776 l 283 396 l 179 396 z "},"‡":{"ha":467,"x_min":31,"x_max":436,"o":"m 179 396 l 179 547 l 33 547 l 33 647 l 179 647 l 179 764 l 31 764 l 31 864 l 179 864 l 179 1015 l 283 1015 l 283 864 l 433 864 l 433 764 l 283 764 l 283 647 l 436 647 l 436 547 l 283 547 l 283 396 l 179 396 z "},"•":{"ha":603,"x_min":82,"x_max":521,"o":"m 303 157 q 147 221 213 157 q 82 374 82 285 q 147 528 82 463 q 303 593 213 593 q 456 528 392 593 q 521 374 521 463 q 456 222 521 286 q 303 157 390 157 z "},"…":{"ha":1096,"x_min":89,"x_max":1006,"o":"m 281 16 q 264 0 281 16 q 201 -17 247 -17 q 122 16 156 -17 q 89 93 89 49 q 122 172 89 139 q 201 204 156 204 q 281 172 247 204 q 314 93 314 139 q 281 16 314 49 m 626 16 q 610 0 626 16 q 547 -17 593 -17 q 468 16 501 -17 q 435 93 435 49 q 468 172 435 139 q 547 204 501 204 q 626 172 593 204 q 660 93 660 139 q 626 16 660 49 m 972 16 q 956 0 972 16 q 893 -17 939 -17 q 814 16 847 -17 q 781 93 781 49 q 814 172 781 139 q 893 204 847 204 q 972 172 939 204 q 1006 93 1006 139 q 972 16 1006 49 z "},"‰":{"ha":1914,"x_min":47,"x_max":1865,"o":"m 578 768 q 503 576 578 650 q 313 501 428 501 q 122 576 197 501 q 47 768 47 650 q 122 960 47 885 q 313 1035 197 1035 q 503 960 428 1035 q 578 768 578 885 m 1135 1014 l 364 0 l 194 0 l 965 1014 l 1135 1014 m 407 669 q 425 688 407 669 q 443 768 443 707 q 407 867 443 829 q 313 904 371 904 q 219 867 254 904 q 183 768 183 829 q 219 670 183 708 q 313 632 256 632 q 407 669 371 632 m 1209 440 q 1246 403 1209 440 q 1283 249 1283 365 q 1209 57 1283 132 q 1019 -18 1135 -18 q 828 57 903 -18 q 754 249 754 132 q 828 440 754 365 q 1019 515 903 515 q 1209 440 1135 515 m 1791 440 q 1828 403 1791 440 q 1865 249 1865 365 q 1791 57 1865 132 q 1601 -18 1717 -18 q 1410 57 1485 -18 q 1336 249 1336 132 q 1410 440 1336 365 q 1601 515 1485 515 q 1791 440 1717 515 m 1113 151 q 1131 170 1113 151 q 1149 249 1149 189 q 1113 347 1149 308 q 1019 385 1076 385 q 925 347 961 385 q 889 249 889 310 q 925 150 889 188 q 1019 113 961 113 q 1113 151 1076 113 m 1694 151 q 1713 170 1694 151 q 1731 249 1731 189 q 1694 347 1731 308 q 1601 385 1658 385 q 1507 347 1543 385 q 1471 249 1471 310 q 1507 150 1471 188 q 1601 113 1543 113 q 1694 151 1658 113 z "},"′":{"ha":263,"x_min":60,"x_max":200,"o":"m 200 947 l 171 683 l 90 683 l 60 947 q 76 1012 54 989 q 131 1035 99 1035 q 183 1012 163 1035 q 200 947 204 989 z "},"‹":{"ha":628,"x_min":56,"x_max":572,"o":"m 356 0 l 56 343 l 356 686 l 572 686 l 271 343 l 572 0 l 356 0 z "},"›":{"ha":628,"x_min":56,"x_max":572,"o":"m 271 0 l 56 0 l 356 343 l 56 686 l 271 686 l 572 343 l 271 0 z "},"⁂":{"ha":1299,"x_min":33,"x_max":1265,"o":"m 483 788 l 390 821 l 424 906 l 514 876 q 615 825 564 857 q 603 939 603 885 l 603 1038 l 694 1038 l 694 939 q 682 825 694 881 q 785 876 732 858 l 875 907 l 908 821 l 814 788 q 701 763 772 772 q 778 679 732 738 l 833 596 l 758 544 l 701 624 q 647 724 668 672 q 596 624 633 678 l 536 544 l 461 596 l 518 679 q 596 763 557 731 q 483 788 525 772 m 126 246 l 33 279 l 67 365 l 156 335 q 258 283 207 315 q 246 397 246 343 l 246 496 l 338 496 l 338 397 q 325 283 338 340 q 428 335 365 311 l 518 365 l 551 279 l 456 246 q 344 222 404 228 q 421 138 379 190 l 475 54 l 400 4 l 344 82 q 289 183 315 122 q 238 82 276 136 l 179 3 l 104 54 l 161 138 q 238 222 192 179 q 126 246 175 228 m 842 246 l 747 279 l 782 365 l 871 335 q 972 283 928 313 q 960 397 960 358 l 960 496 l 1051 496 l 1051 397 q 1040 283 1051 335 q 1142 335 1082 313 l 1233 365 l 1265 279 l 1171 246 q 1060 222 1119 228 q 1136 138 1094 190 l 1190 54 l 1115 4 l 1060 82 q 1004 183 1024 132 q 953 82 989 135 l 893 3 l 819 54 l 876 138 q 953 222 913 186 q 842 246 889 228 z "},"⁄":{"ha":226,"x_min":-283,"x_max":510,"o":"m 510 986 l -147 0 l -283 0 l 374 986 l 510 986 z "},"⁰":{"ha":592,"x_min":35,"x_max":558,"o":"m 35 758 q 107 990 35 901 q 297 1078 179 1078 q 489 990 419 1078 q 558 758 558 903 q 487 529 558 615 q 296 443 415 443 q 104 528 174 443 q 35 758 35 614 m 150 758 q 188 601 150 656 q 297 546 226 546 q 405 601 367 546 q 443 758 443 656 q 406 918 443 863 q 297 974 368 974 q 188 918 226 974 q 150 758 150 863 z "},"⁴":{"ha":526,"x_min":26,"x_max":519,"o":"m 519 571 l 446 571 l 446 458 l 335 458 l 335 571 l 26 571 l 26 675 l 301 1071 l 446 1071 l 446 674 l 519 674 l 519 571 m 156 674 l 335 674 l 335 936 l 156 674 z "},"⁵":{"ha":503,"x_min":25,"x_max":479,"o":"m 25 658 l 139 658 q 169 581 139 610 q 250 551 200 551 q 332 583 301 551 q 363 667 363 614 q 332 753 363 721 q 250 785 301 785 q 147 732 182 785 l 40 747 l 118 1071 l 442 1071 l 442 967 l 207 967 l 178 857 q 271 879 214 879 q 420 819 361 879 q 479 668 479 760 q 416 510 479 571 q 253 449 353 449 q 90 508 154 449 q 25 658 25 567 z "},"⁶":{"ha":536,"x_min":33,"x_max":503,"o":"m 126 900 l 260 1081 l 390 1081 l 239 878 q 286 886 263 886 q 443 828 383 886 q 503 675 503 769 q 436 511 503 575 q 269 447 369 447 q 101 513 169 447 q 33 675 33 579 q 53 780 33 732 q 126 900 74 828 m 151 671 q 185 585 151 618 q 269 551 218 551 q 353 585 321 551 q 386 671 386 618 q 353 757 386 722 q 269 792 319 792 q 185 757 218 792 q 151 671 151 722 z "},"⁷":{"ha":472,"x_min":24,"x_max":447,"o":"m 447 967 l 242 458 l 128 458 l 338 967 l 24 967 l 24 1071 l 447 1071 l 447 967 z "},"⁸":{"ha":533,"x_min":33,"x_max":500,"o":"m 33 626 q 64 725 33 682 q 146 785 94 768 q 64 915 64 821 q 119 1036 64 990 q 268 1082 175 1082 q 416 1036 360 1082 q 472 914 472 990 q 449 834 472 868 q 386 785 425 800 q 469 726 439 769 q 500 626 500 683 q 437 497 500 544 q 267 449 374 449 q 97 497 160 449 q 33 626 33 544 m 190 962 q 175 951 190 962 q 161 906 161 940 q 188 849 161 871 q 267 828 215 828 q 342 849 315 828 q 369 904 369 869 q 342 962 369 940 q 267 983 315 983 q 190 962 218 983 m 181 708 q 165 696 181 708 q 149 642 149 685 q 181 575 149 599 q 267 551 213 551 q 353 575 322 551 q 385 642 385 599 q 352 707 385 683 q 267 731 319 731 q 181 708 213 731 z "},"⁹":{"ha":536,"x_min":33,"x_max":503,"o":"m 410 639 l 276 458 l 146 458 l 299 663 q 250 654 274 654 q 94 712 154 654 q 33 864 33 769 q 99 1028 33 964 q 267 1092 165 1092 q 435 1026 367 1092 q 503 864 503 960 q 483 759 503 808 q 410 639 463 710 m 385 868 q 352 955 385 921 q 267 989 319 989 q 183 955 215 989 q 150 868 150 921 q 183 783 150 817 q 267 749 215 749 q 352 783 319 749 q 385 868 385 817 z "},"₀":{"ha":593,"x_min":35,"x_max":558,"o":"m 35 165 q 107 397 35 308 q 297 485 179 485 q 489 397 419 485 q 558 165 558 310 q 487 -64 558 22 q 296 -150 415 -150 q 104 -65 174 -150 q 35 165 35 21 m 150 165 q 188 8 150 63 q 297 -47 226 -47 q 405 8 367 -47 q 443 165 443 63 q 406 325 443 269 q 297 381 368 381 q 188 325 226 381 q 150 165 150 269 z "},"₁":{"ha":353,"x_min":28,"x_max":292,"o":"m 176 368 l 28 368 l 28 474 l 292 474 l 292 -139 l 176 -139 l 176 368 z "},"₂":{"ha":499,"x_min":33,"x_max":465,"o":"m 465 -139 l 40 -139 l 40 -51 l 264 135 q 344 274 344 201 q 249 381 344 381 q 174 349 200 381 q 147 261 147 318 l 33 261 q 94 424 36 364 q 249 485 151 485 q 403 430 347 485 q 460 281 460 375 q 343 69 460 167 l 218 -35 l 465 -35 l 465 -139 z "},"₃":{"ha":494,"x_min":28,"x_max":463,"o":"m 197 158 l 151 158 l 151 233 l 308 369 l 56 369 l 56 474 l 447 474 l 447 376 l 296 244 q 416 183 369 232 q 463 54 463 135 q 399 -94 463 -39 q 242 -150 336 -150 q 88 -94 149 -150 q 28 58 28 -37 l 140 58 q 169 -18 140 10 q 244 -46 197 -46 q 319 -18 290 -46 q 347 56 347 10 q 321 127 347 100 q 242 157 294 154 q 197 158 228 158 z "},"₄":{"ha":536,"x_min":26,"x_max":519,"o":"m 519 -26 l 446 -26 l 446 -139 l 335 -139 l 335 -26 l 26 -26 l 26 78 l 301 474 l 446 474 l 446 76 l 519 76 l 519 -26 m 156 76 l 335 76 l 335 339 l 156 76 z "},"₅":{"ha":503,"x_min":25,"x_max":479,"o":"m 25 61 l 139 61 q 169 -17 139 13 q 250 -46 200 -46 q 332 -15 301 -46 q 363 69 363 17 q 332 156 363 124 q 250 188 301 188 q 147 135 182 188 l 40 150 l 118 474 l 442 474 l 442 369 l 207 369 l 178 260 q 271 282 214 282 q 420 222 361 282 q 479 71 479 163 q 416 -87 479 -26 q 253 -149 353 -149 q 90 -90 154 -149 q 25 61 25 -31 z "},"₆":{"ha":536,"x_min":33,"x_max":503,"o":"m 126 303 l 260 483 l 390 483 l 239 281 q 286 289 261 289 q 443 231 383 289 q 503 78 503 172 q 436 -86 503 -22 q 269 -150 369 -150 q 101 -84 169 -150 q 33 78 33 -18 q 53 183 33 135 q 126 303 74 231 m 151 74 q 185 -12 151 21 q 269 -46 218 -46 q 353 -12 321 -46 q 386 74 386 21 q 353 160 386 125 q 269 194 319 194 q 185 160 218 194 q 151 74 151 125 z "},"₇":{"ha":472,"x_min":24,"x_max":447,"o":"m 447 369 l 242 -139 l 128 -139 l 338 369 l 24 369 l 24 474 l 447 474 l 447 369 z "},"₈":{"ha":533,"x_min":33,"x_max":500,"o":"m 33 29 q 64 128 33 85 q 146 188 94 171 q 64 318 64 224 q 119 439 64 393 q 268 485 175 485 q 416 439 360 485 q 472 317 472 393 q 449 237 472 271 q 386 188 425 203 q 469 129 439 172 q 500 29 500 86 q 437 -101 500 -53 q 267 -149 374 -149 q 97 -101 160 -149 q 33 29 33 -53 m 190 365 q 175 354 190 365 q 161 308 161 343 q 188 252 161 274 q 267 231 215 231 q 342 251 315 231 q 369 307 369 272 q 342 365 369 343 q 267 386 315 386 q 190 365 218 386 m 181 110 q 165 99 181 110 q 149 44 149 88 q 181 -22 149 1 q 267 -46 213 -46 q 353 -22 322 -46 q 385 44 385 1 q 352 110 385 86 q 267 133 319 133 q 181 110 213 133 z "},"₉":{"ha":536,"x_min":33,"x_max":503,"o":"m 410 42 l 276 -139 l 146 -139 l 299 65 q 250 57 274 57 q 94 115 154 57 q 33 267 33 172 q 99 431 33 367 q 267 494 165 494 q 435 428 367 494 q 503 267 503 363 q 483 162 503 211 q 410 42 463 113 m 385 271 q 352 358 385 324 q 267 392 319 392 q 183 358 215 392 q 150 271 150 324 q 183 185 150 219 q 267 151 215 151 q 352 185 319 151 q 385 271 385 219 z "},"€":{"ha":858,"x_min":25,"x_max":799,"o":"m 619 -17 q 306 75 436 -17 q 129 331 176 167 l 25 331 l 25 457 l 108 457 q 107 506 107 472 q 108 554 107 539 l 25 554 l 25 681 l 131 681 q 311 940 178 847 q 635 1033 444 1033 q 789 1013 719 1033 l 789 846 q 643 867 715 867 q 313 681 390 867 l 661 681 l 661 554 l 283 554 q 282 508 282 539 q 285 457 282 490 l 661 457 l 661 331 l 314 331 q 629 149 392 149 q 799 175 711 149 l 799 4 q 619 -17 703 -17 z "},"№":{"ha":1783,"x_min":113,"x_max":1719,"o":"m 1624 941 q 1672 894 1624 941 q 1719 707 1719 847 q 1624 474 1719 567 q 1383 381 1528 381 q 1142 476 1240 381 q 1044 707 1044 571 q 1142 941 1044 847 q 1383 1035 1239 1035 q 1624 941 1528 1035 m 288 0 l 113 0 l 113 1015 l 289 1015 l 765 296 l 765 1015 l 940 1015 l 940 0 l 765 0 l 288 719 l 288 0 m 1561 706 q 1512 834 1561 785 q 1383 883 1463 883 q 1253 834 1303 883 q 1203 706 1203 785 q 1255 581 1203 632 q 1383 529 1307 529 q 1510 579 1460 529 q 1561 706 1561 629 m 1688 161 l 1076 161 l 1076 307 l 1688 307 l 1688 161 z "},"℗":{"ha":703,"x_min":56,"x_max":647,"o":"m 563 528 q 521 486 563 528 q 353 444 479 444 q 141 529 226 444 q 56 739 56 614 q 141 949 56 864 q 353 1033 226 1033 q 563 949 479 1033 q 647 739 647 865 q 563 528 647 613 m 353 497 q 524 566 456 497 q 592 739 592 635 q 524 912 592 843 q 353 981 456 981 q 181 912 249 981 q 113 739 113 843 q 181 566 113 635 q 353 497 249 497 m 306 571 l 249 571 l 249 901 l 379 901 q 471 871 436 901 q 506 789 506 840 q 472 701 506 733 q 379 668 438 668 l 306 668 l 306 571 m 306 847 l 306 722 l 379 722 q 444 786 444 722 q 379 847 444 847 l 306 847 z "},"™":{"ha":903,"x_min":36,"x_max":819,"o":"m 167 950 l 36 950 l 36 1015 l 367 1015 l 367 950 l 236 950 l 236 622 l 167 622 l 167 950 m 479 622 l 414 622 l 414 1015 l 479 1015 l 617 692 l 754 1015 l 819 1015 l 819 622 l 754 622 l 754 876 l 646 622 l 588 622 l 479 872 l 479 622 z "},"℮":{"ha":1082,"x_min":83,"x_max":999,"o":"m 83 490 q 212 848 83 710 q 542 986 340 986 q 872 863 746 986 q 999 529 999 740 q 997 456 999 476 l 222 456 l 222 206 q 558 43 336 43 q 755 94 665 43 q 889 228 844 144 l 942 208 q 788 47 890 106 q 556 -12 685 -12 q 213 126 343 -12 q 83 490 83 265 m 222 758 l 222 506 l 860 506 l 860 783 q 725 892 808 854 q 542 931 642 931 q 358 884 440 931 q 222 758 275 838 z "},"⅛":{"ha":1049,"x_min":22,"x_max":1010,"o":"m 147 924 l 22 924 l 22 1015 l 246 1015 l 246 518 l 147 518 l 147 924 m 881 986 l 224 0 l 88 0 l 743 986 l 881 986 m 635 138 q 659 217 635 182 q 725 265 683 251 q 660 372 660 294 q 704 469 660 432 q 824 506 749 506 q 941 469 897 506 q 985 372 985 433 q 919 265 985 293 q 985 218 960 253 q 1010 138 1010 183 q 959 31 1010 71 q 822 -8 908 -8 q 685 31 736 -8 q 635 138 635 71 m 766 403 q 756 394 766 403 q 746 360 746 386 q 766 317 746 333 q 822 301 786 301 q 878 318 857 301 q 899 361 899 335 q 878 403 899 386 q 822 419 857 419 q 766 403 786 419 m 736 150 q 760 99 736 117 q 822 82 783 82 q 885 99 861 82 q 908 150 908 117 q 885 200 908 182 q 822 218 861 218 q 760 200 783 218 q 736 150 736 182 z "},"⅜":{"ha":1092,"x_min":26,"x_max":1053,"o":"m 26 681 l 128 681 q 149 621 128 642 q 207 600 171 600 q 262 620 242 600 q 282 675 282 640 q 186 756 282 756 l 126 756 l 126 821 l 242 925 l 50 925 l 50 1015 l 371 1015 l 371 932 l 256 828 q 348 777 313 815 q 383 676 383 739 q 333 554 383 600 q 204 508 282 508 q 77 554 128 508 q 26 681 26 600 m 924 986 l 267 0 l 129 0 l 786 986 l 924 986 m 678 138 q 703 217 678 182 q 768 265 728 251 q 703 372 703 294 q 747 469 703 432 q 867 506 792 506 q 984 469 940 506 q 1028 372 1028 433 q 1010 306 1028 335 q 961 265 992 276 q 1028 218 1003 253 q 1053 138 1053 183 q 1002 31 1053 71 q 865 -8 951 -8 q 728 31 779 -8 q 678 138 678 71 m 809 403 q 799 394 809 403 q 789 360 789 386 q 809 317 789 333 q 865 301 829 301 q 920 318 900 301 q 940 361 940 335 q 920 403 940 386 q 865 419 900 419 q 809 403 829 419 m 779 150 q 803 99 779 117 q 865 82 826 82 q 928 99 904 82 q 951 150 951 117 q 928 200 951 182 q 865 218 904 218 q 803 200 826 218 q 779 150 779 182 z "},"⅝":{"ha":1115,"x_min":35,"x_max":1076,"o":"m 215 510 q 86 556 138 510 q 35 682 35 601 l 136 682 q 158 622 136 643 q 215 600 179 600 q 278 624 256 600 q 301 690 301 649 q 278 756 301 731 q 215 781 254 781 q 135 738 157 781 l 40 751 l 106 1015 l 379 1015 l 379 925 l 176 925 l 153 842 q 229 863 183 863 q 356 814 310 863 q 403 690 403 765 q 351 560 403 610 q 215 510 299 510 m 947 986 l 290 0 l 154 0 l 811 986 l 947 986 m 703 138 q 727 217 703 182 q 792 265 751 251 q 726 372 726 294 q 772 469 726 432 q 890 506 817 506 q 1008 469 964 506 q 1053 372 1053 433 q 986 265 1053 293 q 1051 218 1026 253 q 1076 138 1076 183 q 1026 31 1076 71 q 889 -8 975 -8 q 753 31 804 -8 q 703 138 703 71 m 833 403 q 823 394 833 403 q 813 360 813 386 q 833 317 813 333 q 889 301 853 301 q 945 318 925 301 q 965 361 965 335 q 944 403 965 386 q 889 419 924 419 q 833 403 853 419 m 803 150 q 826 99 803 117 q 889 82 850 82 q 951 99 928 82 q 975 150 975 117 q 951 200 975 182 q 889 218 928 218 q 826 200 850 218 q 803 150 803 182 z "},"⅞":{"ha":1013,"x_min":18,"x_max":974,"o":"m 272 924 l 18 924 l 18 1015 l 372 1015 l 372 924 l 196 518 l 94 518 l 272 924 m 844 986 l 188 0 l 50 0 l 707 986 l 844 986 m 599 138 q 623 217 599 182 q 688 265 647 251 q 622 372 622 296 q 667 469 622 432 q 786 506 713 506 q 904 469 860 506 q 949 372 949 433 q 882 265 949 293 q 949 218 924 253 q 974 138 974 183 q 922 31 974 71 q 786 -8 871 -8 q 649 31 700 -8 q 599 138 599 71 m 730 403 q 720 394 730 403 q 710 360 710 386 q 730 317 710 333 q 786 301 750 301 q 841 318 821 301 q 861 361 861 335 q 841 403 861 386 q 786 419 821 419 q 730 403 750 419 m 700 150 q 724 99 700 117 q 786 82 747 82 q 849 99 825 82 q 872 150 872 117 q 849 200 872 182 q 786 218 825 218 q 724 200 747 218 q 700 150 700 182 z "},"←":{"ha":1353,"x_min":83,"x_max":1269,"o":"m 665 -1 l 574 -94 l 83 393 l 574 883 l 665 793 l 333 460 l 1269 460 l 1269 331 l 333 331 l 665 -1 z "},"↑":{"ha":1149,"x_min":83,"x_max":1065,"o":"m 175 563 l 83 654 l 574 1142 l 1065 654 l 974 563 l 639 893 l 639 0 l 510 0 l 510 893 l 175 563 z "},"→":{"ha":1353,"x_min":83,"x_max":1269,"o":"m 688 819 l 779 911 l 1269 422 l 779 -67 l 688 25 l 1019 358 l 83 358 l 83 486 l 1019 488 l 688 819 z "},"↓":{"ha":1143,"x_min":83,"x_max":1060,"o":"m 971 419 l 1060 328 l 571 -161 l 83 328 l 176 419 l 507 88 l 507 1042 l 636 1042 l 636 88 l 971 419 z "},"↔":{"ha":1567,"x_min":83,"x_max":1483,"o":"m 83 381 l 465 760 l 465 574 l 329 443 l 650 444 l 650 446 l 928 446 l 928 444 l 1240 443 l 1103 575 l 1103 760 l 1483 381 l 1103 -3 l 1103 182 l 1239 314 l 326 314 l 465 181 l 465 -4 l 83 381 z "},"↕":{"ha":931,"x_min":83,"x_max":847,"o":"m 463 -253 l 83 129 l 268 129 l 400 -8 l 399 315 l 397 315 l 397 590 l 399 590 l 400 903 l 268 767 l 83 767 l 463 1147 l 847 767 l 661 767 l 529 904 l 529 -10 l 661 129 l 847 129 l 463 -253 z "},"↖":{"ha":1158,"x_min":83,"x_max":1075,"o":"m 83 1015 l 774 1014 l 774 885 l 304 883 l 1075 90 l 983 0 l 213 793 l 213 322 l 83 324 l 83 1015 z "},"↗":{"ha":1183,"x_min":83,"x_max":1100,"o":"m 408 886 l 408 1015 l 1100 1015 l 1100 325 l 969 325 l 969 794 l 175 0 l 83 90 l 878 886 l 408 886 z "},"↘":{"ha":1181,"x_min":83,"x_max":1097,"o":"m 968 693 l 1097 693 l 1097 1 l 406 1 l 406 132 l 875 132 l 83 925 l 174 1015 l 967 224 l 968 693 z "},"↙":{"ha":1185,"x_min":83,"x_max":1101,"o":"m 776 129 l 775 0 l 83 0 l 85 690 l 215 690 l 215 221 l 1010 1017 l 1101 926 l 306 129 l 776 129 z "},"∂":{"ha":896,"x_min":69,"x_max":826,"o":"m 69 354 q 173 623 69 521 q 426 725 276 725 q 618 657 544 725 q 335 1021 542 846 l 551 1021 q 826 415 826 751 q 715 94 826 206 q 439 -18 604 -18 q 176 83 283 -18 q 69 354 69 183 m 299 511 q 269 480 299 511 q 240 353 240 449 q 299 195 240 257 q 447 133 357 133 q 596 196 538 133 q 654 356 654 258 q 596 512 654 450 q 449 574 538 574 q 299 511 357 574 z "},"∅":{"ha":1172,"x_min":49,"x_max":1124,"o":"m 582 -17 q 243 121 383 -17 l 128 15 l 49 101 l 169 211 q 88 508 88 344 q 229 883 88 733 q 582 1033 371 1033 q 924 896 783 1033 l 1046 1007 l 1124 921 l 997 806 q 1078 508 1078 675 q 935 134 1078 285 q 582 -17 792 -17 m 254 508 q 293 324 254 406 l 804 788 q 582 875 717 875 q 346 773 438 875 q 254 508 254 671 m 582 142 q 819 244 726 142 q 911 508 911 347 q 872 693 911 611 l 361 228 q 582 142 451 142 z "},"∆":{"ha":972,"x_min":65,"x_max":907,"o":"m 907 0 l 65 0 l 65 150 l 401 1015 l 569 1015 l 907 149 l 907 0 m 467 736 l 243 149 l 731 149 l 503 736 q 485 789 490 769 q 467 736 475 750 z "},"∏":{"ha":979,"x_min":113,"x_max":867,"o":"m 290 0 l 113 0 l 113 1015 l 867 1015 l 867 0 l 689 0 l 689 851 l 290 851 l 290 0 z "},"∑":{"ha":796,"x_min":57,"x_max":731,"o":"m 731 0 l 57 0 l 57 179 l 351 511 l 57 838 l 57 1015 l 731 1015 l 731 851 l 261 851 l 563 511 l 258 164 l 731 164 l 731 0 z "},"−":{"ha":917,"x_min":111,"x_max":806,"o":"m 111 539 l 806 539 l 806 397 l 111 397 l 111 539 z "},"√":{"ha":1017,"x_min":0,"x_max":981,"o":"m 274 0 l 0 685 l 176 685 l 356 218 l 657 1017 l 981 1017 l 981 863 l 772 863 l 438 0 l 274 0 z "},"∞":{"ha":1249,"x_min":64,"x_max":1185,"o":"m 64 399 q 144 602 64 522 q 346 682 224 682 q 497 643 432 682 q 625 515 563 604 q 751 643 688 604 q 901 682 815 682 q 1105 602 1025 682 q 1185 399 1185 522 q 1105 197 1185 276 q 901 118 1025 118 q 751 157 815 118 q 625 283 688 196 q 497 157 561 196 q 346 118 433 118 q 144 197 224 118 q 64 399 64 276 m 218 399 q 253 302 218 339 q 349 265 289 265 q 524 399 464 265 q 349 533 465 533 q 253 497 289 533 q 218 399 218 460 m 724 399 q 900 265 783 265 q 994 302 958 265 q 1031 399 1031 339 q 995 497 1031 460 q 900 533 960 533 q 724 399 782 533 z "},"∫":{"ha":617,"x_min":42,"x_max":575,"o":"m 158 -18 l 42 -18 l 42 136 l 146 136 q 222 228 222 136 l 222 788 q 288 966 222 899 q 458 1033 354 1033 l 575 1033 l 575 881 l 471 881 q 393 789 393 881 l 393 229 q 328 50 393 118 q 158 -18 263 -18 z "},"≈":{"ha":917,"x_min":111,"x_max":806,"o":"m 675 679 l 806 679 q 753 508 806 575 q 613 440 700 440 q 499 467 556 440 q 397 522 443 494 q 317 549 350 549 q 242 453 244 549 l 111 453 q 164 620 111 554 q 304 686 217 686 q 466 632 372 686 q 600 578 560 578 q 675 679 672 578 m 675 403 l 806 403 q 753 231 806 299 q 613 163 700 163 q 522 180 568 163 q 446 217 476 197 q 380 255 415 238 q 317 272 344 272 q 242 175 244 272 l 111 175 q 164 342 111 276 q 304 408 217 408 q 466 354 372 408 q 600 300 560 300 q 675 403 672 300 z "},"≠":{"ha":917,"x_min":111,"x_max":806,"o":"m 165 25 l 258 197 l 111 197 l 111 340 l 336 340 l 421 496 l 111 496 l 111 639 l 499 639 l 592 811 l 753 811 l 660 639 l 806 639 l 806 496 l 581 496 l 497 340 l 806 340 l 806 197 l 418 197 l 325 25 l 165 25 z "},"≤":{"ha":917,"x_min":111,"x_max":806,"o":"m 806 336 l 806 171 l 111 404 l 111 583 l 806 818 l 806 653 l 278 494 l 806 336 m 111 0 l 111 143 l 806 143 l 806 0 l 111 0 z "},"≥":{"ha":917,"x_min":111,"x_max":806,"o":"m 806 404 l 111 171 l 111 336 l 639 494 l 111 653 l 111 818 l 806 583 l 806 404 m 111 143 l 806 143 l 806 0 l 111 0 l 111 143 z "},"■":{"ha":1153,"x_min":83,"x_max":1069,"o":"m 83 0 l 83 986 l 1069 986 l 1069 0 l 83 0 z "},"□":{"ha":1153,"x_min":83,"x_max":1069,"o":"m 83 0 l 83 986 l 1069 986 l 1069 0 l 83 0 m 942 858 l 211 858 l 211 128 l 942 128 l 942 858 z "},"▲":{"ha":1342,"x_min":83,"x_max":1258,"o":"m 83 0 l 671 986 l 1258 0 l 83 0 z "},"△":{"ha":1343,"x_min":83,"x_max":1260,"o":"m 672 990 l 1260 4 l 83 4 l 672 990 m 288 117 l 1054 117 l 671 758 l 288 117 z "},"◊":{"ha":890,"x_min":83,"x_max":807,"o":"m 807 493 l 526 0 l 364 0 l 83 493 l 364 986 l 526 986 l 807 493 m 635 493 l 446 839 l 256 493 l 446 149 l 635 493 z "},"○":{"ha":1244,"x_min":83,"x_max":1161,"o":"m 1003 81 q 924 2 1003 81 q 622 -76 844 -76 q 242 81 400 -76 q 83 463 83 239 q 242 843 83 685 q 622 1001 400 1001 q 1003 843 844 1001 q 1161 463 1161 685 q 1003 81 1161 239 m 622 43 q 919 166 796 43 q 1042 463 1042 289 q 918 758 1042 635 q 622 882 794 882 q 326 759 450 882 q 203 463 203 636 q 326 166 203 289 q 622 43 450 43 z "},"●":{"ha":1244,"x_min":83,"x_max":1161,"o":"m 1003 81 q 924 2 1003 81 q 622 -76 844 -76 q 242 81 400 -76 q 83 463 83 239 q 242 843 83 685 q 622 1001 400 1001 q 1003 843 844 1001 q 1161 463 1161 685 q 1003 81 1161 239 z "},"☮":{"ha":1244,"x_min":83,"x_max":1161,"o":"m 1003 81 q 924 2 1003 81 q 622 -76 844 -76 q 242 81 400 -76 q 83 463 83 239 q 242 843 83 685 q 622 1001 400 1001 q 1003 843 844 1001 q 1161 463 1161 685 q 1003 81 1161 239 m 203 463 q 238 297 203 375 l 569 524 l 569 879 q 308 740 414 860 q 203 463 203 621 m 1042 463 q 937 738 1042 619 q 678 878 832 857 l 678 524 l 1008 297 q 1042 463 1042 379 m 293 204 q 569 46 399 69 l 569 392 l 293 204 m 678 392 l 678 47 q 953 204 846 68 l 678 392 z "},"✓":{"ha":981,"x_min":51,"x_max":888,"o":"m 351 10 l 51 333 l 149 438 l 346 226 l 778 746 l 888 653 l 351 10 z "},"":{"ha":2415,"x_min":104,"x_max":2214,"o":"m 104 0 l 104 972 l 404 972 l 404 0 l 104 0 m 467 689 l 467 972 l 767 972 l 767 689 l 467 689 m 828 0 l 828 972 l 1129 972 l 1129 0 l 828 0 m 1190 689 l 1190 972 l 1490 972 l 1490 689 l 1190 689 m 1551 0 l 1551 972 l 1853 972 l 1853 0 l 1551 0 m 1914 689 l 1914 972 l 2214 972 l 2214 689 l 1914 689 m 1914 343 l 1914 628 l 2214 628 l 2214 343 l 1914 343 z "},"ﬀ":{"ha":919,"x_min":19,"x_max":900,"o":"m 19 686 l 118 686 l 118 769 q 183 969 118 904 q 364 1033 247 1033 q 451 1026 415 1033 l 451 882 l 392 882 q 308 853 331 882 q 286 769 286 825 l 286 686 l 567 686 l 567 769 q 631 969 567 904 q 813 1033 696 1033 q 900 1026 864 1033 l 900 882 l 842 882 q 758 853 781 882 q 735 769 735 825 l 735 686 l 899 686 l 899 544 l 735 544 l 735 0 l 567 0 l 567 544 l 286 544 l 286 0 l 118 0 l 118 544 l 19 544 l 19 686 z "},"ﬁ":{"ha":824,"x_min":19,"x_max":751,"o":"m 567 0 l 567 544 l 286 544 l 286 0 l 118 0 l 118 544 l 19 544 l 19 686 l 118 686 l 118 769 q 181 969 118 904 q 354 1033 244 1033 q 442 1026 406 1033 l 442 882 l 382 882 q 307 853 328 882 q 286 769 286 825 l 286 686 l 736 686 l 736 0 l 567 0 m 651 826 q 579 856 608 826 q 550 928 550 885 q 579 999 550 969 q 651 1028 608 1028 q 722 999 693 1028 q 751 928 751 969 q 722 856 751 885 q 651 826 693 826 z "},"ﬂ":{"ha":819,"x_min":19,"x_max":729,"o":"m 19 686 l 118 686 l 118 769 q 180 969 118 904 q 351 1033 242 1033 q 439 1026 403 1033 l 439 882 l 379 882 q 306 853 325 882 q 286 769 286 825 l 286 686 l 560 686 l 560 1033 l 729 1033 l 729 0 l 560 0 l 560 544 l 286 544 l 286 0 l 118 0 l 118 544 l 19 544 l 19 686 z "},"ﬃ":{"ha":1272,"x_min":19,"x_max":1201,"o":"m 19 686 l 118 686 l 118 769 q 183 969 118 904 q 364 1033 247 1033 q 451 1026 415 1033 l 451 882 l 392 882 q 308 853 331 882 q 286 769 286 825 l 286 686 l 567 686 l 567 769 q 630 969 567 904 q 803 1033 693 1033 q 890 1026 854 1033 l 890 882 l 832 882 q 756 853 778 882 q 735 769 735 825 l 735 686 l 1185 686 l 1185 0 l 1015 0 l 1015 544 l 735 544 l 735 0 l 567 0 l 567 544 l 286 544 l 286 0 l 118 0 l 118 544 l 19 544 l 19 686 m 1172 860 q 1158 845 1172 860 q 1100 831 1143 831 q 1028 860 1057 831 q 1000 932 1000 889 q 1028 1004 1000 975 q 1100 1033 1057 1033 q 1172 1004 1143 1033 q 1201 932 1201 975 q 1172 860 1201 889 z "},"ﬄ":{"ha":1268,"x_min":19,"x_max":1178,"o":"m 19 686 l 118 686 l 118 769 q 183 969 118 904 q 364 1033 247 1033 q 451 1026 415 1033 l 451 882 l 392 882 q 308 853 331 882 q 286 769 286 825 l 286 686 l 567 686 l 567 769 q 631 969 567 904 q 813 1033 696 1033 q 900 1026 864 1033 l 900 882 l 842 882 q 758 853 781 882 q 735 769 735 825 l 735 686 l 1010 686 l 1010 1033 l 1178 1033 l 1178 0 l 1010 0 l 1010 544 l 735 544 l 735 0 l 567 0 l 567 544 l 286 544 l 286 0 l 118 0 l 118 544 l 19 544 l 19 686 z "}}}
